SplineFontDB: 3.0
FontName: Jost-Light
FullName: Jost* 300 Light
FamilyName: Jost* Light
Weight: Light
Copyright: This typeface is licensed under the SIL open font license.
UComments: "2018-6-8: Created with FontForge (http://fontforge.org)"
Version: 003.300
ItalicAngle: 0
UnderlinePosition: -100
UnderlineWidth: 50
Ascent: 800
Descent: 200
InvalidEm: 0
LayerCount: 2
Layer: 0 0 "Back" 1
Layer: 1 0 "Fore" 0
XUID: [1021 69 1495626776 760146]
FSType: 0
OS2Version: 0
OS2_WeightWidthSlopeOnly: 0
OS2_UseTypoMetrics: 0
CreationTime: 1528480336
ModificationTime: 1563287693
PfmFamily: 17
TTFWeight: 300
TTFWidth: 5
LineGap: 100
VLineGap: 0
OS2TypoAscent: 825
OS2TypoAOffset: 0
OS2TypoDescent: -225
OS2TypoDOffset: 0
OS2TypoLinegap: 100
OS2WinAscent: 900
OS2WinAOffset: 0
OS2WinDescent: 300
OS2WinDOffset: 0
HheadAscent: 1030
HheadAOffset: 0
HheadDescent: -350
HheadDOffset: 0
OS2CapHeight: 700
OS2XHeight: 460
OS2Vendor: 'PfEd'
Lookup: 1 0 0 "alt a" { "alt a"  } ['ss01' ('DFLT' <'dflt' > 'latn' <'dflt' > ) ]
Lookup: 1 0 0 "Tabular Numbers lookup" { "Tabular Numbers lookup"  } ['tnum' ('DFLT' <'dflt' > 'grek' <'dflt' > 'latn' <'dflt' > ) ]
Lookup: 258 0 0 "Lets get our kern on" { "kernin like nobodys business" [150,0,4] } ['kern' ('DFLT' <'dflt' > 'latn' <'dflt' > ) ]
MarkAttachClasses: 1
DEI: 91125
KernClass2: 16 14 "kernin like nobodys business"
 43 slash seven V W Wcircumflex uni040E uni0423
 175 quotedbl quotesingle asterisk grave dieresis ordfeminine macron degree acute ordmasculine circumflex breve dotaccent ring tilde quoteleft quoteright quotedblleft quotedblright
 25 nine question F P uni0420
 131 A L backslash Agrave Aacute Acircumflex Atilde Adieresis Aring Amacron Abreve Aogonek Lacute uni013B Lslash uni0410 uni0414 uni041C
 58 three eight B C germandbls uni0411 uni0412 uni0417 uni0421
 29 K X Z uni0416 uni041A uni0425

StartChar: H
Encoding: 72 72 0
Width: 646
VWidth: 0
Flags: HMW
LayerCount: 2
Fore
SplineSet
174 355 m 1
 191 407 l 1
 637 407 l 1
 620 355 l 1
 174 355 l 1
699 699 m 1
 756 700 l 1
 513 0 l 1
 462 0 l 1
 699 699 l 1
262 699 m 1
 318 700 l 1
 77 0 l 1
 25 0 l 1
 262 699 l 1
EndSplineSet
EndChar

StartChar: O
Encoding: 79 79 1
Width: 737
VWidth: 0
Flags: HMW
LayerCount: 2
Fore
SplineSet
163 350 m 0
 115 213 157 49 326 47 c 0
 499 45 651 196 705 350 c 0
 753 487 711 651 542 653 c 0
 369 655 217 504 163 350 c 0
105 350 m 0
 166 536 348 710 552 709 c 0
 751 708 818 517 763 350 c 0
 702 164 520 -10 316 -9 c 0
 117 -8 50 183 105 350 c 0
EndSplineSet
EndChar

StartChar: I
Encoding: 73 73 2
Width: 205
VWidth: 0
Flags: HMW
LayerCount: 2
Fore
SplineSet
261 700 m 1
 316 700 l 1
 74 0 l 1
 23 0 l 1
 261 700 l 1
EndSplineSet
EndChar

StartChar: C
Encoding: 67 67 3
Width: 644
VWidth: 0
Flags: HMW
LayerCount: 2
Fore
SplineSet
163 350 m 0
 116 216 155 51 321 48 c 0
 413 46 496 90 569 141 c 1
 546 68 l 1
 474 22 396 -10 310 -9 c 0
 113 -7 50 185 105 350 c 0
 166 535 344 707 547 709 c 0
 623 710 684 685 737 631 c 1
 713 558 l 1
 672 622 612 653 536 653 c 0
 365 652 217 503 163 350 c 0
EndSplineSet
EndChar

StartChar: E
Encoding: 69 69 4
Width: 501
VWidth: 0
Flags: HMW
LayerCount: 2
Fore
SplineSet
52 0 m 1
 69 52 l 1
 398 52 l 1
 381 0 l 1
 52 0 l 1
274 648 m 1
 291 700 l 1
 619 700 l 1
 602 648 l 1
 274 648 l 1
174 358 m 1
 192 410 l 1
 501 410 l 1
 484 358 l 1
 174 358 l 1
262 700 m 1
 318 700 l 1
 77 0 l 1
 25 0 l 1
 262 700 l 1
EndSplineSet
EndChar

StartChar: F
Encoding: 70 70 6
Width: 451
VWidth: 0
Flags: HMW
LayerCount: 2
Fore
SplineSet
274 648 m 1
 291 700 l 1
 582 700 l 1
 564 648 l 1
 274 648 l 1
173 354 m 1
 191 405 l 1
 472 405 l 1
 454 353 l 1
 173 354 l 1
262 700 m 1
 318 700 l 1
 77 0 l 1
 25 0 l 1
 262 700 l 1
EndSplineSet
EndChar

StartChar: G
Encoding: 71 71 7
Width: 725
VWidth: 0
Flags: HMW
LayerCount: 2
Fore
SplineSet
432 297 m 1
 451 348 l 1
 744 348 l 1
 676 170 522 -9 316 -9 c 0
 117 -9 50 183 105 350 c 0
 167 537 349 709 554 709 c 0
 660 710 737 655 776 558 c 1
 728 524 l 1
 699 608 633 654 543 653 c 0
 370 653 218 506 163 350 c 0
 115 213 158 48 327 47 c 0
 483 46 596 172 666 297 c 1
 432 297 l 1
EndSplineSet
EndChar

StartChar: T
Encoding: 84 84 8
Width: 424
VWidth: 0
Flags: HMW
LayerCount: 2
Fore
SplineSet
178 648 m 1
 197 700 l 1
 598 700 l 1
 579 648 l 1
 406 648 l 1
 184 0 l 1
 130 0 l 1
 352 648 l 1
 178 648 l 1
EndSplineSet
EndChar

StartChar: L
Encoding: 76 76 9
Width: 415
VWidth: 0
Flags: HMW
LayerCount: 2
Fore
SplineSet
263 700 m 1
 318 700 l 1
 95 52 l 1
 367 52 l 1
 349 0 l 1
 23 0 l 1
 263 700 l 1
EndSplineSet
EndChar

StartChar: D
Encoding: 68 68 10
Width: 622
VWidth: 0
Flags: HMW
LayerCount: 2
Fore
SplineSet
262 699 m 1
 318 700 l 1
 77 0 l 1
 25 0 l 1
 262 699 l 1
208 0 m 2
 52 0 l 1
 71 55 l 1
 219 55 l 2
 392 55 538 190 594 350 c 0
 645 494 594 645 427 645 c 2
 272 645 l 1
 291 700 l 1
 438 700 l 2
 635 700 705 522 648 350 c 0
 586 161 412 0 208 0 c 2
EndSplineSet
EndChar

StartChar: Q
Encoding: 81 81 11
Width: 735
VWidth: 0
Flags: HMW
LayerCount: 2
Fore
SplineSet
163 350 m 0
 115 213 157 49 326 47 c 0
 499 45 651 196 705 350 c 0
 753 487 711 651 542 653 c 0
 369 655 217 504 163 350 c 0
105 350 m 0
 166 536 348 710 552 709 c 0
 751 708 818 517 763 350 c 0
 702 164 520 -10 316 -9 c 0
 117 -8 50 183 105 350 c 0
414 300 m 1
 478 300 l 1
 667 0 l 1
 602 0 l 1
 414 300 l 1
EndSplineSet
EndChar

StartChar: A
Encoding: 65 65 12
Width: 597
VWidth: 0
Flags: HMW
LayerCount: 2
Fore
SplineSet
158 235 m 1
 191 286 l 1
 497 286 l 1
 497 235 l 1
 158 235 l 1
454 600 m 1
 211 269 l 1
 202 257 l 1
 13 0 l 1
 -50 0 l 1
 493 729 l 1
 535 0 l 1
 477 0 l 1
 467 253 l 1
 467 266 l 1
 454 600 l 1
EndSplineSet
EndChar

StartChar: R
Encoding: 82 82 13
Width: 491
VWidth: 0
Flags: HMW
LayerCount: 2
Fore
SplineSet
250 334 m 1
 307 334 l 1
 418 0 l 1
 357 0 l 1
 250 334 l 1
262 700 m 1
 318 700 l 1
 77 0 l 1
 25 0 l 1
 262 700 l 1
272 651 m 1
 290 700 l 1
 411 700 l 2
 528 700 608 616 569 496 c 0
 529 372 405 296 279 294 c 1
 150 294 l 1
 168 343 l 1
 288 343 l 1
 386 345 482 402 516 497 c 0
 548 588 490 649 401 651 c 1
 272 651 l 1
EndSplineSet
EndChar

StartChar: V
Encoding: 86 86 14
Width: 597
VWidth: 0
Flags: HMW
LayerCount: 2
Fore
SplineSet
293 101 m 1
 712 699 l 1
 774 699 l 1
 256 -29 l 1
 191 700 l 1
 247 700 l 1
 293 101 l 1
EndSplineSet
EndChar

StartChar: M
Encoding: 77 77 15
Width: 769
VWidth: 0
Flags: HMW
LayerCount: 2
Fore
SplineSet
291 553 m 1
 43 0 l 1
 -12 0 l 1
 316 728 l 1
 393 191 l 1
 846 732 l 1
 670 0 l 1
 616 0 l 1
 751 547 l 1
 359 79 l 1
 291 553 l 1
EndSplineSet
EndChar

StartChar: W
Encoding: 87 87 16
Width: 915
VWidth: 0
Flags: HMW
LayerCount: 2
Fore
SplineSet
657 119 m 1
 1026 699 l 1
 1088 699 l 1
 616 -30 l 1
 603 573 l 1
 214 -30 l 1
 195 700 l 1
 252 700 l 1
 259 119 l 1
 649 730 l 1
 657 119 l 1
EndSplineSet
EndChar

StartChar: N
Encoding: 78 78 17
Width: 687
VWidth: 0
Flags: HMW
LayerCount: 2
Fore
SplineSet
749 700 m 1
 803 700 l 1
 553 -26 l 1
 264 584 l 1
 62 0 l 1
 7 0 l 1
 257 726 l 1
 547 114 l 1
 749 700 l 1
EndSplineSet
EndChar

StartChar: a
Encoding: 97 97 18
Width: 437
VWidth: 0
Flags: HMW
LayerCount: 2
Fore
SplineSet
73 135 m 0
 55 79 89 39 145 38 c 0
 232 36 294 100 334 171 c 1
 335 140 l 1
 294 58 222 -10 125 -9 c 0
 43 -8 -3 56 22 134 c 0
 52 228 155 284 250 283 c 0
 301 282 340 265 374 228 c 1
 363 198 l 1
 329 227 291 243 245 242 c 0
 176 241 96 205 73 135 c 0
167 370 m 1
 154 412 l 1
 208 443 267 470 330 469 c 0
 415 467 461 406 435 326 c 2
 323 0 l 1
 271 0 l 1
 386 326 l 2
 403 376 382 420 321 422 c 0
 266 424 213 396 167 370 c 1
EndSplineSet
Substitution2: "alt a" a.alt
EndChar

StartChar: X
Encoding: 88 88 19
Width: 501
VWidth: 0
Flags: HMW
LayerCount: 2
Fore
SplineSet
592 699 m 1
 659 699 l 1
 358 364 l 1
 453 0 l 1
 394 0 l 1
 319 316 l 1
 42 0 l 1
 -25 0 l 1
 307 370 l 1
 219 700 l 1
 279 700 l 1
 345 418 l 1
 592 699 l 1
EndSplineSet
EndChar

StartChar: K
Encoding: 75 75 20
Width: 489
VWidth: 0
Flags: HMW
LayerCount: 2
Fore
SplineSet
261 700 m 1
 316 700 l 1
 75 0 l 1
 23 0 l 1
 261 700 l 1
584 699 m 1
 656 699 l 1
 249 369 l 1
 425 0 l 1
 364 0 l 1
 186 374 l 1
 584 699 l 1
EndSplineSet
EndChar

StartChar: Y
Encoding: 89 89 21
Width: 507
VWidth: 0
Flags: HMW
LayerCount: 2
Fore
SplineSet
623 699 m 1
 687 699 l 1
 322 285 l 1
 224 0 l 1
 169 0 l 1
 271 291 l 1
 194 700 l 1
 251 700 l 1
 311 340 l 1
 623 699 l 1
EndSplineSet
EndChar

StartChar: B
Encoding: 66 66 22
Width: 501
VWidth: 0
Flags: HMW
LayerCount: 2
Fore
SplineSet
194 377 m 1
 203 407 l 1
 304 408 l 1
 381 410 460 451 487 528 c 0
 513 602 464 649 393 650 c 2
 300 651 l 1
 94 49 l 1
 190 50 l 2
 288 51 381 111 414 206 c 0
 444 293 390 358 303 359 c 2
 187 360 l 1
 198 390 l 1
 311 391 l 2
 419 389 502 316 467 202 c 0
 428 77 307 0 181 0 c 2
 23 0 l 1
 263 700 l 1
 403 700 l 2
 502 700 577 636 542 530 c 0
 508 428 404 380 303 377 c 1
 194 377 l 1
EndSplineSet
EndChar

StartChar: Z
Encoding: 90 90 23
Width: 508
VWidth: 0
Flags: HMW
LayerCount: 2
Fore
SplineSet
200 648 m 1
 219 700 l 1
 680 699 l 1
 71 53 l 1
 443 53 l 1
 424 0 l 1
 -42 0 l 1
 568 647 l 1
 200 648 l 1
EndSplineSet
EndChar

StartChar: o
Encoding: 111 111 24
Width: 517
VWidth: 0
Flags: HMW
LayerCount: 2
Fore
SplineSet
72 230 m 0
 108 355 231 469 366 469 c 0
 498 469 553 345 519 230 c 0
 483 105 360 -9 225 -9 c 0
 93 -9 38 115 72 230 c 0
123 230 m 0
 95 143 129 41 233 40 c 0
 340 39 437 133 468 230 c 0
 496 317 461 419 357 420 c 0
 250 421 154 327 123 230 c 0
EndSplineSet
EndChar

StartChar: J
Encoding: 74 74 25
Width: 209
VWidth: 0
Flags: HMW
LayerCount: 2
Fore
SplineSet
-186 -127 m 1
 -167 -150 -148 -168 -115 -167 c 0
 -50 -166 -10 -104 9 -50 c 2
 266 700 l 1
 318 700 l 1
 58 -61 l 2
 28 -142 -33 -221 -128 -219 c 0
 -171 -218 -200 -198 -226 -167 c 1
 -186 -127 l 1
EndSplineSet
EndChar

StartChar: t
Encoding: 116 116 26
Width: 206
VWidth: 0
Flags: HMW
LayerCount: 2
Fore
SplineSet
114 460 m 1
 306 460 l 1
 288 411 l 1
 96 411 l 1
 114 460 l 1
235 619 m 1
 288 620 l 1
 73 0 l 1
 25 0 l 1
 235 619 l 1
EndSplineSet
EndChar

StartChar: d
Encoding: 100 100 27
Width: 525
VWidth: 0
Flags: HMW
LayerCount: 2
Fore
SplineSet
617 779 m 1
 670 780 l 1
 401 0 l 1
 352 0 l 1
 617 779 l 1
59 230 m 0
 98 350 214 472 348 470 c 0
 478 468 487 326 455 230 c 0
 419 118 321 -8 192 -9 c 0
 58 -10 24 123 59 230 c 0
111 230 m 0
 82 147 101 39 207 40 c 0
 309 41 399 141 431 230 c 0
 457 306 444 416 345 420 c 0
 238 424 144 324 111 230 c 0
EndSplineSet
EndChar

StartChar: l
Encoding: 108 108 28
Width: 197
VWidth: 0
Flags: HMW
LayerCount: 2
Fore
SplineSet
285 779 m 1
 338 780 l 1
 68 0 l 1
 20 0 l 1
 285 779 l 1
EndSplineSet
EndChar

StartChar: i
Encoding: 105 105 29
Width: 217
VWidth: 0
Flags: HMW
LayerCount: 2
Fore
SplineSet
247 668 m 0
 247 688 263 704 283 704 c 0
 303 704 320 688 320 668 c 0
 320 648 303 632 283 632 c 0
 263 632 247 648 247 668 c 0
186 459 m 1
 239 459 l 1
 81 0 l 1
 30 0 l 1
 186 459 l 1
EndSplineSet
EndChar

StartChar: r
Encoding: 114 114 30
Width: 302
VWidth: 0
Flags: HMW
LayerCount: 2
Fore
SplineSet
228 460 m 1
 69 0 l 1
 17 0 l 1
 177 460 l 1
 228 460 l 1
353 400 m 1
 338 410 323 420 304 421 c 0
 230 424 189 337 164 282 c 1
 140 282 l 1
 172 357 229 471 325 469 c 0
 352 469 371 456 392 440 c 1
 353 400 l 1
EndSplineSet
EndChar

StartChar: c
Encoding: 99 99 31
Width: 453
VWidth: 0
Flags: HMW
LayerCount: 2
Fore
SplineSet
118 230 m 0
 90 142 125 42 229 40 c 0
 295 39 354 73 404 112 c 1
 385 48 l 1
 335 15 281 -9 220 -9 c 0
 88 -8 33 115 67 230 c 0
 103 356 225 469 361 469 c 0
 415 469 459 450 496 411 c 1
 477 347 l 1
 451 395 410 421 353 420 c 0
 246 419 150 328 118 230 c 0
EndSplineSet
EndChar

StartChar: b
Encoding: 98 98 32
Width: 525
VWidth: 0
Flags: HMW
LayerCount: 2
Fore
SplineSet
333 780 m 1
 64 0 l 1
 13 0 l 1
 281 780 l 1
 333 780 l 1
514 230 m 0
 475 110 360 -12 226 -10 c 0
 96 -8 88 134 120 230 c 0
 156 342 253 468 382 469 c 0
 516 470 549 337 514 230 c 0
463 230 m 0
 492 313 472 421 366 420 c 0
 264 419 175 319 143 230 c 0
 117 154 129 44 228 40 c 0
 335 36 430 136 463 230 c 0
EndSplineSet
EndChar

StartChar: p
Encoding: 112 112 33
Width: 525
VWidth: 0
Flags: HMW
LayerCount: 2
Fore
SplineSet
-9 -219 m 1
 -63 -220 l 1
 173 460 l 1
 221 459 l 1
 -9 -219 l 1
514 230 m 0
 475 110 360 -12 226 -10 c 0
 96 -8 88 134 120 230 c 0
 156 342 253 468 382 469 c 0
 516 470 549 337 514 230 c 0
463 230 m 0
 492 313 472 421 366 420 c 0
 264 419 175 319 143 230 c 0
 117 154 129 44 228 40 c 0
 335 36 430 136 463 230 c 0
EndSplineSet
EndChar

StartChar: q
Encoding: 113 113 34
Width: 525
VWidth: 0
Flags: HMW
LayerCount: 2
Fore
SplineSet
275 -220 m 1
 509 460 l 1
 561 460 l 1
 326 -220 l 1
 275 -220 l 1
59 230 m 0
 98 350 214 472 348 470 c 0
 478 468 487 326 455 230 c 0
 419 118 321 -8 192 -9 c 0
 58 -10 24 123 59 230 c 0
111 230 m 0
 82 147 101 39 207 40 c 0
 309 41 399 141 431 230 c 0
 457 306 444 416 345 420 c 0
 238 424 144 324 111 230 c 0
EndSplineSet
EndChar

StartChar: h
Encoding: 104 104 35
Width: 474
VWidth: 0
Flags: HMW
LayerCount: 2
Fore
SplineSet
338 780 m 1
 69 0 l 1
 18 0 l 1
 286 780 l 1
 338 780 l 1
399 296 m 2
 416 351 417 417 344 420 c 0
 261 423 200 347 164 282 c 1
 146 282 l 1
 185 370 257 469 364 469 c 0
 463 469 474 379 451 302 c 1
 346 0 l 1
 297 0 l 1
 399 296 l 2
EndSplineSet
EndChar

StartChar: n
Encoding: 110 110 36
Width: 474
VWidth: 0
Flags: HMW
LayerCount: 2
Fore
SplineSet
228 460 m 1
 69 0 l 1
 17 0 l 1
 177 460 l 1
 228 460 l 1
399 296 m 2
 416 351 417 417 344 420 c 0
 261 423 200 347 164 282 c 1
 146 282 l 1
 185 370 257 469 364 469 c 0
 463 469 474 379 451 302 c 1
 346 0 l 1
 297 0 l 1
 399 296 l 2
EndSplineSet
EndChar

StartChar: m
Encoding: 109 109 37
Width: 699
VWidth: 0
Flags: HMW
LayerCount: 2
Fore
SplineSet
373 296 m 2
 388 344 401 416 331 419 c 0
 252 423 196 343 164 282 c 1
 146 282 l 1
 183 364 248 470 351 469 c 0
 447 468 445 372 424 302 c 2
 320 0 l 1
 271 0 l 1
 373 296 l 2
228 460 m 1
 69 0 l 1
 17 0 l 1
 177 460 l 1
 228 460 l 1
675 302 m 2
 572 0 l 1
 520 0 l 1
 624 296 l 2
 639 344 651 416 581 419 c 0
 502 423 448 343 416 282 c 1
 388 282 l 1
 426 366 497 471 602 469 c 0
 698 468 696 372 675 302 c 2
EndSplineSet
EndChar

StartChar: k
Encoding: 107 107 38
Width: 387
VWidth: 0
Flags: HMW
LayerCount: 2
Fore
SplineSet
280 779 m 1
 333 780 l 1
 64 0 l 1
 15 0 l 1
 280 779 l 1
404 459 m 1
 473 459 l 1
 196 262 l 1
 329 0 l 1
 271 0 l 1
 139 273 l 1
 404 459 l 1
EndSplineSet
EndChar

StartChar: u
Encoding: 117 117 39
Width: 474
VWidth: 0
Flags: HMW
LayerCount: 2
Fore
SplineSet
295 0 m 1
 454 460 l 1
 506 460 l 1
 347 0 l 1
 295 0 l 1
126 168 m 2
 109 113 105 42 180 40 c 0
 263 37 323 112 359 178 c 1
 377 178 l 1
 338 90 266 -10 159 -9 c 0
 58 -9 51 85 74 162 c 1
 178 460 l 1
 226 459 l 1
 126 168 l 2
EndSplineSet
EndChar

StartChar: e
Encoding: 101 101 40
Width: 479
VWidth: 0
Flags: HMW
LayerCount: 2
Fore
SplineSet
101 217 m 1
 114 262 l 1
 434 262 l 1
 458 332 438 421 344 423 c 0
 242 425 164 335 130 250 c 1
 123 231 l 1
 99 149 112 41 217 40 c 0
 289 39 349 86 400 134 c 1
 436 104 l 1
 373 42 296 -10 203 -9 c 0
 73 -7 42 125 72 231 c 0
 78 252 86 272 96 291 c 0
 143 385 240 470 351 469 c 0
 478 468 512 348 484 242 c 0
 482 234 478 225 476 217 c 1
 101 217 l 1
EndSplineSet
EndChar

StartChar: g
Encoding: 103 103 41
Width: 525
VWidth: 0
Flags: HMW
LayerCount: 2
Fore
SplineSet
-18 -30 m 1
 32 -31 l 1
 17 -108 38 -178 129 -180 c 0
 237 -182 322 -84 354 10 c 2
 509 460 l 1
 561 460 l 1
 407 10 l 2
 365 -111 272 -229 128 -229 c 0
 8 -229 -41 -136 -18 -30 c 1
59 230 m 0
 98 350 214 472 348 470 c 0
 478 468 487 326 455 230 c 0
 419 118 321 -8 192 -9 c 0
 58 -10 24 123 59 230 c 0
111 230 m 0
 81 147 101 40 207 40 c 0
 310 40 400 142 431 232 c 0
 457 308 443 416 345 420 c 0
 238 424 144 324 111 230 c 0
EndSplineSet
EndChar

StartChar: f
Encoding: 102 102 42
Width: 265
VWidth: 0
Flags: HMW
LayerCount: 2
Fore
SplineSet
143 460 m 1
 349 460 l 1
 331 411 l 1
 126 411 l 1
 143 460 l 1
443 704 m 1
 432 720 420 736 398 737 c 0
 344 738 313 674 296 632 c 2
 79 0 l 1
 27 0 l 1
 245 639 l 2
 271 709 326 792 412 788 c 0
 445 787 464 768 483 744 c 1
 443 704 l 1
EndSplineSet
EndChar

StartChar: s
Encoding: 115 115 43
Width: 379
VWidth: 0
Flags: HMW
LayerCount: 2
Fore
SplineSet
80 155 m 1
 87 102 105 42 171 40 c 0
 219 39 274 73 288 120 c 0
 304 174 256 200 215 219 c 0
 157 246 107 282 128 354 c 0
 148 425 219 468 296 468 c 0
 360 468 396 430 415 374 c 1
 369 350 l 1
 355 389 334 419 288 420 c 0
 245 421 192 395 178 352 c 0
 160 297 218 276 258 258 c 0
 314 232 358 187 341 121 c 0
 321 43 248 -11 162 -10 c 0
 77 -9 45 60 35 133 c 1
 80 155 l 1
EndSplineSet
EndChar

StartChar: y
Encoding: 121 121 44
Width: 407
VWidth: 0
Flags: HMW
LayerCount: 2
Fore
SplineSet
511 459 m 1
 -6 -219 l 1
 -65 -219 l 1
 141 50 l 1
 107 460 l 1
 159 460 l 1
 189 68 l 1
 165 71 l 1
 452 459 l 1
 511 459 l 1
EndSplineSet
EndChar

StartChar: w
Encoding: 119 119 45
Width: 616
VWidth: 0
Flags: HMW
LayerCount: 2
Fore
SplineSet
113 460 m 1
 166 460 l 1
 159 108 l 1
 417 490 l 1
 416 106 l 1
 656 459 l 1
 715 459 l 1
 376 -30 l 1
 374 354 l 1
 112 -30 l 1
 113 460 l 1
EndSplineSet
EndChar

StartChar: v
Encoding: 118 118 46
Width: 405
VWidth: 0
Flags: HMW
LayerCount: 2
Fore
SplineSet
112 460 m 1
 166 460 l 1
 194 89 l 1
 454 459 l 1
 514 459 l 1
 160 -29 l 1
 112 460 l 1
EndSplineSet
EndChar

StartChar: x
Encoding: 120 120 47
Width: 379
VWidth: 0
Flags: HMW
LayerCount: 2
Fore
SplineSet
416 459 m 1
 478 459 l 1
 258 232 l 1
 341 0 l 1
 288 0 l 1
 218 198 l 1
 28 0 l 1
 -34 0 l 1
 203 243 l 1
 121 460 l 1
 175 460 l 1
 242 277 l 1
 416 459 l 1
EndSplineSet
EndChar

StartChar: z
Encoding: 122 122 48
Width: 420
VWidth: 0
Flags: HMW
LayerCount: 2
Fore
SplineSet
395 411 m 1
 125 411 l 1
 142 460 l 1
 508 460 l 1
 71 49 l 1
 358 49 l 1
 341 0 l 1
 -42 0 l 1
 395 411 l 1
EndSplineSet
EndChar

StartChar: j
Encoding: 106 106 49
Width: 208
VWidth: 0
Flags: HMW
LayerCount: 2
Fore
SplineSet
237 668 m 0
 237 688 253 704 273 704 c 0
 293 704 310 688 310 668 c 0
 310 648 293 632 273 632 c 0
 253 632 237 648 237 668 c 0
-149 -135 m 1
 -140 -150 -123 -167 -105 -168 c 0
 -51 -170 -17 -102 -2 -63 c 2
 178 460 l 1
 229 460 l 1
 49 -69 l 2
 23 -139 -25 -221 -111 -219 c 0
 -144 -218 -169 -199 -189 -175 c 1
 -149 -135 l 1
EndSplineSet
EndChar

StartChar: P
Encoding: 80 80 50
Width: 489
VWidth: 0
Flags: HMW
LayerCount: 2
Fore
SplineSet
262 699 m 1
 318 700 l 1
 77 0 l 1
 25 0 l 1
 262 699 l 1
273 648 m 1
 292 700 l 1
 414 700 l 2
 532 700 602 608 564 492 c 0
 525 370 405 286 280 286 c 2
 150 286 l 1
 168 338 l 1
 291 338 l 1
 388 340 477 400 510 493 c 0
 541 581 494 646 404 647 c 2
 273 648 l 1
EndSplineSet
EndChar

StartChar: U
Encoding: 85 85 51
Width: 569
VWidth: 0
Flags: HMW
LayerCount: 2
Fore
SplineSet
259 700 m 1
 313 700 l 1
 149 226 l 2
 123 143 135 43 242 43 c 0
 362 43 432 132 465 226 c 2
 629 700 l 1
 683 700 l 1
 521 226 l 2
 478 103 390 -9 233 -9 c 0
 97 -9 60 114 97 226 c 2
 259 700 l 1
EndSplineSet
EndChar

StartChar: S
Encoding: 83 83 52
Width: 492
VWidth: 0
Flags: HMW
LayerCount: 2
Fore
SplineSet
100 214 m 1
 104 137 123 45 219 44 c 0
 302 43 377 103 404 180 c 0
 433 263 377 312 309 346 c 0
 230 385 171 443 201 539 c 0
 232 636 334 708 436 708 c 0
 530 708 569 638 580 555 c 1
 529 528 l 1
 521 592 496 654 421 655 c 0
 351 656 279 603 256 537 c 0
 228 456 300 416 361 385 c 0
 442 344 490 276 461 183 c 0
 428 75 321 -9 206 -8 c 0
 92 -7 54 90 47 188 c 1
 100 214 l 1
EndSplineSet
EndChar

StartChar: at
Encoding: 64 64 53
Width: 724
VWidth: 0
Flags: HMW
LayerCount: 2
Fore
SplineSet
286 320 m 0
 270 272 275 213 336 209 c 0
 419 204 497 299 520 370 c 0
 535 416 530 478 470 482 c 0
 386 487 309 391 286 320 c 0
237 319 m 0
 266 415 368 534 479 528 c 0
 564 524 564 430 544 368 c 0
 514 275 426 160 317 162 c 0
 231 164 216 251 237 319 c 0
86 320 m 0
 153 522 352 711 574 709 c 0
 751 707 824 545 772 390 c 0
 739 293 643 140 523 151 c 0
 450 157 468 230 485 279 c 1
 480 279 l 1
 598 519 l 1
 649 519 l 1
 528 289 l 2
 524 279 518 269 515 259 c 0
 508 233 504 203 537 196 c 0
 623 177 703 327 726 390 c 0
 774 521 721 662 567 665 c 0
 369 668 194 497 132 320 c 0
 84 181 128 39 293 35 c 0
 372 33 447 58 518 88 c 1
 530 48 l 1
 453 14 371 -9 286 -8 c 0
 95 -5 31 154 86 320 c 0
EndSplineSet
EndChar

StartChar: period
Encoding: 46 46 54
Width: 266
VWidth: 0
Flags: HMW
LayerCount: 2
Fore
SplineSet
50 24 m 0
 50 44 67 61 87 61 c 0
 107 61 124 44 124 24 c 0
 124 4 107 -12 87 -12 c 0
 67 -12 50 4 50 24 c 0
EndSplineSet
EndChar

StartChar: comma
Encoding: 44 44 55
Width: 277
VWidth: 0
Flags: HMW
LayerCount: 2
Fore
SplineSet
129 102 m 1
 176 80 l 1
 -14 -164 l 1
 -49 -151 l 1
 129 102 l 1
EndSplineSet
EndChar

StartChar: colon
Encoding: 58 58 56
Width: 282
VWidth: 0
Flags: HMW
LayerCount: 2
Fore
SplineSet
50 24 m 0
 50 44 67 61 87 61 c 0
 107 61 124 44 124 24 c 0
 124 4 107 -12 87 -12 c 0
 67 -12 50 4 50 24 c 0
176 392 m 0
 176 412 193 428 213 428 c 0
 233 428 250 412 250 392 c 0
 250 372 233 355 213 355 c 0
 193 355 176 372 176 392 c 0
EndSplineSet
EndChar

StartChar: semicolon
Encoding: 59 59 57
Width: 289
VWidth: 0
Flags: HMW
LayerCount: 2
Fore
SplineSet
205 392 m 0
 205 412 221 428 241 428 c 0
 261 428 278 412 278 392 c 0
 278 372 261 355 241 355 c 0
 221 355 205 372 205 392 c 0
129 102 m 1
 176 80 l 1
 -14 -164 l 1
 -49 -151 l 1
 129 102 l 1
EndSplineSet
EndChar

StartChar: quotedbl
Encoding: 34 34 58
Width: 413
VWidth: 0
Flags: HMW
LayerCount: 2
Fore
SplineSet
306 699 m 1
 370 699 l 1
 205 410 l 1
 169 409 l 1
 306 699 l 1
476 699 m 1
 539 699 l 1
 374 410 l 1
 338 409 l 1
 476 699 l 1
EndSplineSet
EndChar

StartChar: exclam
Encoding: 33 33 59
Width: 267
VWidth: 0
Flags: HMW
LayerCount: 2
Fore
SplineSet
286 700 m 1
 352 700 l 1
 168 201 l 1
 130 201 l 1
 286 700 l 1
50 24 m 0
 50 45 68 62 88 62 c 0
 108 62 125 45 125 24 c 0
 125 3 108 -13 88 -13 c 0
 68 -13 50 3 50 24 c 0
EndSplineSet
EndChar

StartChar: quotesingle
Encoding: 39 39 60
Width: 244
VWidth: 0
Flags: HMW
LayerCount: 2
Fore
SplineSet
306 699 m 1
 370 699 l 1
 205 410 l 1
 169 409 l 1
 306 699 l 1
EndSplineSet
EndChar

StartChar: numbersign
Encoding: 35 35 61
Width: 556
VWidth: 0
Flags: HMW
LayerCount: 2
Fore
SplineSet
168 446 m 1
 182 488 l 1
 637 488 l 1
 622 446 l 1
 502 446 l 1
 493 446 l 1
 306 446 l 1
 297 446 l 1
 168 446 l 1
52 217 m 1
 66 259 l 1
 183 259 l 1
 194 259 l 1
 383 259 l 1
 397 259 l 1
 520 259 l 1
 507 217 l 1
 52 217 l 1
617 699 m 1
 668 699 l 1
 266 0 l 1
 216 0 l 1
 351 234 l 1
 358 246 l 1
 480 460 l 1
 486 472 l 1
 617 699 l 1
419 699 m 1
 470 699 l 1
 340 474 l 1
 334 463 l 1
 209 244 l 1
 203 233 l 1
 69 0 l 1
 21 0 l 1
 419 699 l 1
EndSplineSet
EndChar

StartChar: hyphen
Encoding: 45 45 62
Width: 197
VWidth: 0
Flags: HMW
LayerCount: 2
Fore
SplineSet
28 227 m 1
 44 275 l 1
 235 275 l 1
 218 227 l 1
 28 227 l 1
EndSplineSet
EndChar

StartChar: dollar
Encoding: 36 36 63
Width: 545
VWidth: 0
Flags: HMW
LayerCount: 2
Fore
SplineSet
457 817 m 1
 504 817 l 1
 460 682 l 1
 414 682 l 1
 457 817 l 1
215 27 m 1
 261 27 l 1
 217 -111 l 1
 170 -111 l 1
 215 27 l 1
540 528 m 1
 531 592 506 653 432 655 c 0
 362 657 289 608 267 540 c 0
 240 457 314 417 376 385 c 0
 457 344 509 277 483 183 c 0
 453 74 350 -9 235 -8 c 0
 121 -7 79 90 69 188 c 1
 121 214 l 1
 128 135 151 45 247 44 c 0
 329 43 402 103 426 180 c 0
 452 264 394 312 326 346 c 0
 246 386 185 450 213 545 c 0
 241 639 344 709 441 708 c 0
 534 707 578 638 590 555 c 1
 540 528 l 1
EndSplineSet
EndChar

StartChar: bar
Encoding: 124 124 64
Width: 233
VWidth: 0
Flags: HMW
LayerCount: 2
Fore
SplineSet
301 784 m 1
 348 784 l 1
 40 -214 l 1
 -7 -214 l 1
 301 784 l 1
EndSplineSet
EndChar

StartChar: zero
Encoding: 48 48 65
Width: 545
VWidth: 0
Flags: HMW
LayerCount: 2
Fore
SplineSet
162 350 m 0
 132 264 79 46 229 43 c 0
 379 40 474 231 515 350 c 0
 545 436 597 654 447 657 c 0
 297 660 203 469 162 350 c 0
107 350 m 0
 156 498 276 710 457 709 c 0
 642 708 608 467 569 350 c 0
 520 202 400 -10 219 -9 c 0
 34 -8 68 233 107 350 c 0
EndSplineSet
Substitution2: "Tabular Numbers lookup" uniFF10
EndChar

StartChar: one
Encoding: 49 49 66
Width: 407
VWidth: 0
Flags: HMW
LayerCount: 2
Fore
SplineSet
229 599 m 1
 250 658 l 1
 474 709 l 1
 229 0 l 1
 176 0 l 1
 396 639 l 1
 229 599 l 1
EndSplineSet
Substitution2: "Tabular Numbers lookup" uniFF11
EndChar

StartChar: two
Encoding: 50 50 67
Width: 514
VWidth: 0
Flags: HMW
LayerCount: 2
Fore
SplineSet
-14 0 m 1
 397 345 l 2
 450 390 507 442 528 511 c 0
 551 584 516 656 434 658 c 0
 322 661 252 552 214 461 c 1
 161 461 l 1
 207 582 299 711 443 710 c 0
 552 709 612 615 583 513 c 0
 560 433 497 368 435 315 c 2
 114 53 l 1
 454 52 l 1
 438 0 l 1
 -14 0 l 1
EndSplineSet
Substitution2: "Tabular Numbers lookup" uniFF12
EndChar

StartChar: four
Encoding: 52 52 68
Width: 536
VWidth: 0
Flags: HMW
LayerCount: 2
Fore
SplineSet
15 142 m 1
 567 698 l 1
 590 699 l 1
 349 0 l 1
 296 0 l 1
 352 162 l 1
 355 171 l 1
 492 565 l 1
 120 190 l 1
 379 189 l 1
 390 189 l 1
 519 189 l 1
 503 140 l 1
 15 142 l 1
EndSplineSet
Substitution2: "Tabular Numbers lookup" uniFF14
EndChar

StartChar: slash
Encoding: 47 47 69
Width: 468
VWidth: 0
Flags: HMW
LayerCount: 2
Fore
SplineSet
588 699 m 5
 644 699 l 5
 -41 -149 l 5
 -92 -148 l 5
 588 699 l 5
EndSplineSet
EndChar

StartChar: backslash
Encoding: 92 92 70
Width: 454
VWidth: 0
Flags: HMW
LayerCount: 2
Fore
SplineSet
198 701 m 1
 251 700 l 1
 385 0 l 1
 336 0 l 1
 198 701 l 1
EndSplineSet
EndChar

StartChar: eight
Encoding: 56 56 71
Width: 501
VWidth: 0
Flags: HMW
LayerCount: 2
Fore
SplineSet
205 536 m 0
 235 629 335 710 435 709 c 0
 531 708 583 622 555 534 c 0
 525 439 425 361 324 361 c 0
 226 361 176 446 205 536 c 0
253 529 m 0
 233 470 258 399 328 397 c 0
 401 395 478 463 502 529 c 0
 524 590 499 658 427 660 c 0
 353 662 277 597 253 529 c 0
64 189 m 0
 99 295 211 383 324 382 c 0
 433 382 490 288 458 187 c 0
 424 79 311 -10 197 -9 c 0
 87 -8 32 89 64 189 c 0
117 194 m 0
 90 120 120 42 206 40 c 0
 294 38 382 113 410 194 c 0
 434 264 401 344 319 346 c 0
 234 348 145 271 117 194 c 0
EndSplineSet
Substitution2: "Tabular Numbers lookup" uniFF18
EndChar

StartChar: nine
Encoding: 57 57 72
Width: 526
VWidth: 0
Flags: HMW
LayerCount: 2
Fore
SplineSet
542 474 m 0
 570 559 538 658 436 659 c 0
 332 660 238 569 208 474 c 0
 182 392 213 295 311 293 c 0
 415 291 511 380 542 474 c 0
184 0 m 1
 113 0 l 1
 426 311 l 1
 432 306 l 1
 389 276 342 251 288 252 c 0
 169 255 129 373 158 474 c 0
 193 598 310 709 444 709 c 0
 576 709 627 588 593 474 c 0
 576 418 542 366 502 323 c 2
 184 0 l 1
EndSplineSet
Substitution2: "Tabular Numbers lookup" uniFF19
EndChar

StartChar: three
Encoding: 51 51 73
Width: 515
VWidth: 0
Flags: HMW
LayerCount: 2
Fore
SplineSet
310 353 m 1
 320 388 l 1
 404 400 493 439 522 526 c 0
 544 591 515 657 441 659 c 0
 357 661 300 594 265 527 c 1
 213 528 l 1
 254 625 335 710 449 709 c 0
 550 708 604 621 576 527 c 0
 541 411 421 362 310 353 c 1
230 -9 m 0
 112 -9 61 76 80 185 c 1
 133 184 l 1
 121 104 150 44 239 43 c 0
 325 42 411 105 436 187 c 0
 466 284 389 328 305 339 c 1
 316 374 l 1
 426 365 525 305 489 180 c 0
 457 70 344 -9 230 -9 c 0
EndSplineSet
Substitution2: "Tabular Numbers lookup" uniFF13
EndChar

StartChar: five
Encoding: 53 53 74
Width: 527
VWidth: 0
Flags: HMW
LayerCount: 2
Fore
SplineSet
517 230 m 0
 480 101 362 -9 223 -9 c 0
 126 -9 70 50 45 138 c 1
 97 168 l 1
 115 98 153 44 232 43 c 0
 340 42 432 131 463 230 c 0
 489 313 458 403 361 407 c 0
 285 410 216 369 155 329 c 1
 355 700 l 1
 668 700 l 1
 652 651 l 1
 384 651 l 1
 247 408 l 1
 290 435 338 458 390 457 c 0
 514 455 547 332 517 230 c 0
EndSplineSet
Substitution2: "Tabular Numbers lookup" uniFF15
EndChar

StartChar: six
Encoding: 54 54 75
Width: 526
VWidth: 0
Flags: HMW
LayerCount: 2
Fore
SplineSet
132 226 m 0
 104 141 136 42 238 41 c 0
 342 40 436 131 466 226 c 0
 492 308 461 405 363 407 c 0
 259 409 163 320 132 226 c 0
490 699 m 1
 561 699 l 1
 248 389 l 1
 242 394 l 1
 285 424 332 449 386 448 c 0
 505 445 545 327 516 226 c 0
 481 102 364 -9 230 -9 c 0
 98 -9 47 112 81 226 c 0
 98 282 132 334 172 377 c 2
 490 699 l 1
EndSplineSet
Substitution2: "Tabular Numbers lookup" uniFF16
EndChar

StartChar: seven
Encoding: 55 55 76
Width: 489
VWidth: 0
Flags: HMW
LayerCount: 2
Fore
SplineSet
194 648 m 1
 210 700 l 1
 668 699 l 1
 122 0 l 1
 63 0 l 1
 569 647 l 1
 194 648 l 1
EndSplineSet
Substitution2: "Tabular Numbers lookup" uniFF17
EndChar

StartChar: plus
Encoding: 43 43 77
Width: 553
VWidth: 0
Flags: HMW
LayerCount: 2
Fore
SplineSet
85 230 m 1
 102 281 l 1
 533 281 l 1
 515 229 l 1
 85 230 l 1
362 491 m 1
 417 492 l 1
 252 18 l 1
 201 19 l 1
 362 491 l 1
EndSplineSet
EndChar

StartChar: equal
Encoding: 61 61 78
Width: 578
VWidth: 0
Flags: HMW
LayerCount: 2
Fore
SplineSet
62 159 m 1
 77 207 l 1
 536 207 l 1
 519 158 l 1
 62 159 l 1
109 299 m 1
 125 347 l 1
 584 347 l 1
 567 298 l 1
 109 299 l 1
EndSplineSet
EndChar

StartChar: percent
Encoding: 37 37 79
Width: 687
VWidth: 0
Flags: HMW
LayerCount: 2
Fore
SplineSet
167 555 m 0
 193 636 274 709 362 709 c 0
 449 709 483 629 459 553 c 0
 433 472 351 399 263 399 c 0
 176 399 143 479 167 555 c 0
211 554 m 0
 193 504 210 444 271 442 c 0
 333 440 394 498 414 554 c 0
 432 604 416 664 355 666 c 0
 293 668 231 610 211 554 c 0
360 147 m 0
 386 228 467 301 555 301 c 0
 642 301 676 221 652 145 c 0
 626 64 544 -9 456 -9 c 0
 369 -9 336 71 360 147 c 0
404 146 m 0
 386 96 402 36 463 34 c 0
 525 32 587 90 607 146 c 0
 625 196 608 256 547 258 c 0
 485 260 424 202 404 146 c 0
716 699 m 1
 769 699 l 1
 102 0 l 1
 52 0 l 1
 716 699 l 1
EndSplineSet
EndChar

StartChar: ampersand
Encoding: 38 38 80
Width: 635
VWidth: 0
Flags: HMW
LayerCount: 2
Fore
SplineSet
285 401 m 2
 258 453 231 505 248 565 c 0
 272 648 358 712 445 710 c 0
 527 709 573 639 550 561 c 0
 525 474 433 422 359 382 c 0
 268 333 146 291 112 182 c 0
 87 101 137 41 219 39 c 0
 386 34 520 209 628 314 c 1
 662 288 l 1
 540 169 396 -12 208 -9 c 0
 102 -7 27 72 57 179 c 0
 93 306 222 358 328 413 c 0
 391 446 476 489 499 562 c 0
 515 612 493 661 437 663 c 0
 378 665 318 618 300 564 c 0
 284 516 308 471 329 429 c 2
 550 0 l 1
 494 0 l 1
 285 401 l 2
EndSplineSet
EndChar

StartChar: question
Encoding: 63 63 81
Width: 518
VWidth: 0
Flags: HMW
LayerCount: 2
Fore
SplineSet
524 508 m 0
 553 587 514 659 426 660 c 0
 352 661 292 614 240 567 c 1
 205 596 l 1
 270 657 347 711 441 709 c 0
 554 707 609 610 575 507 c 0
 536 390 419 327 304 309 c 1
 250 171 l 1
 212 171 l 1
 257 345 l 1
 271 345 l 0
 373 353 487 406 524 508 c 0
143 24 m 0
 143 44 159 61 180 61 c 0
 202 61 217 42 217 24 c 0
 217 4 200 -12 180 -12 c 0
 158 -12 143 4 143 24 c 0
EndSplineSet
EndChar

StartChar: parenleft
Encoding: 40 40 82
Width: 264
VWidth: 0
Flags: HMW
LayerCount: 2
Fore
SplineSet
398 778 m 1
 444 778 l 1
 335 630 250 466 195 290 c 0
 146 131 123 -35 142 -201 c 1
 98 -201 l 1
 71 -36 90 131 138 290 c 0
 192 468 281 634 398 778 c 1
EndSplineSet
EndChar

StartChar: parenright
Encoding: 41 41 83
Width: 264
VWidth: 0
Flags: HMW
LayerCount: 2
Fore
SplineSet
-22 -198 m 1
 -68 -198 l 1
 41 -50 125 114 180 290 c 0
 229 449 252 615 233 781 c 1
 277 781 l 1
 304 616 285 449 237 290 c 0
 183 112 95 -54 -22 -198 c 1
EndSplineSet
EndChar

StartChar: asterisk
Encoding: 42 42 84
Width: 557
VWidth: 0
Flags: HMW
LayerCount: 2
Fore
SplineSet
587 592 m 1
 586 547 l 1
 399 498 l 1
 399 530 l 1
 587 592 l 1
474 374 m 1
 430 348 l 1
 383 504 l 1
 412 523 l 1
 474 374 l 1
259 350 m 1
 229 379 l 1
 388 522 l 1
 409 500 l 1
 259 350 l 1
236 550 m 1
 264 592 l 1
 411 528 l 1
 392 499 l 1
 236 550 l 1
442 699 m 1
 487 699 l 1
 415 514 l 1
 383 514 l 1
 442 699 l 1
EndSplineSet
EndChar

StartChar: less
Encoding: 60 60 85
Width: 602
VWidth: 0
Flags: HMW
LayerCount: 2
Fore
SplineSet
177 255 m 1
 515 74 l 1
 498 29 l 1
 89 243 l 1
 99 272 l 1
 656 489 l 1
 637 433 l 1
 177 255 l 1
EndSplineSet
EndChar

StartChar: greater
Encoding: 62 62 86
Width: 602
VWidth: 0
Flags: HMW
LayerCount: 2
Fore
SplineSet
492 259 m 1
 155 441 l 1
 172 486 l 1
 580 272 l 1
 571 243 l 1
 14 26 l 1
 32 82 l 1
 492 259 l 1
EndSplineSet
EndChar

StartChar: bracketleft
Encoding: 91 91 87
Width: 266
VWidth: 0
Flags: HMW
LayerCount: 2
Fore
SplineSet
336 731 m 1
 57 -171 l 1
 163 -171 l 1
 147 -220 l 1
 -10 -220 l 1
 299 780 l 1
 456 780 l 1
 441 731 l 1
 336 731 l 1
EndSplineSet
EndChar

StartChar: bracketright
Encoding: 93 93 88
Width: 266
VWidth: 0
Flags: HMW
LayerCount: 2
Fore
SplineSet
36 -171 m 1
 314 731 l 1
 208 731 l 1
 224 780 l 1
 380 780 l 1
 71 -220 l 1
 -85 -220 l 1
 -70 -171 l 1
 36 -171 l 1
EndSplineSet
EndChar

StartChar: asciicircum
Encoding: 94 94 89
Width: 479
VWidth: 0
Flags: HMW
LayerCount: 2
Fore
SplineSet
411 648 m 1
 217 461 l 1
 160 461 l 1
 414 709 l 1
 437 709 l 1
 522 459 l 1
 474 459 l 1
 411 648 l 1
EndSplineSet
EndChar

StartChar: underscore
Encoding: 95 95 90
Width: 470
VWidth: 0
Flags: HMW
LayerCount: 2
Fore
SplineSet
-97 -123 m 1
 -85 -87 l 1
 387 -87 l 1
 375 -123 l 1
 -97 -123 l 1
EndSplineSet
EndChar

StartChar: grave
Encoding: 96 96 91
Width: 344
VWidth: 0
Flags: HMW
LayerCount: 2
Fore
SplineSet
252 674 m 1
 304 700 l 1
 407 539 l 1
 376 521 l 1
 252 674 l 1
EndSplineSet
EndChar

StartChar: braceleft
Encoding: 123 123 92
Width: 280
VWidth: 0
Flags: HMW
LayerCount: 2
Fore
SplineSet
324 652 m 2
 267 466 l 2
 241 384 208 309 119 284 c 1
 123 297 l 1
 203 264 178 182 158 114 c 2
 99 -73 l 2
 88 -111 85 -152 132 -153 c 2
 161 -153 l 1
 148 -200 l 1
 107 -200 l 2
 32 -201 37 -115 54 -60 c 2
 119 150 l 2
 132 196 139 233 106 270 c 1
 118 310 l 1
 164 339 187 379 204 430 c 2
 268 641 l 2
 290 706 330 779 404 779 c 2
 448 779 l 1
 435 734 l 1
 408 734 l 2
 359 734 338 696 324 652 c 2
EndSplineSet
EndChar

StartChar: braceright
Encoding: 125 125 93
Width: 280
VWidth: 0
Flags: HMW
LayerCount: 2
Fore
SplineSet
73 -72 m 2
 129 114 l 2
 155 196 188 271 277 296 c 1
 273 283 l 1
 193 316 219 398 239 466 c 2
 297 653 l 2
 308 691 311 732 264 733 c 2
 236 734 l 1
 249 780 l 1
 289 780 l 2
 364 780 359 695 342 640 c 2
 277 430 l 2
 264 384 258 347 291 310 c 1
 279 270 l 1
 233 241 210 201 193 150 c 2
 129 -61 l 2
 107 -126 66 -199 -8 -199 c 2
 -52 -199 l 1
 -38 -154 l 1
 -12 -154 l 2
 37 -154 59 -116 73 -72 c 2
EndSplineSet
EndChar

StartChar: asciitilde
Encoding: 126 126 94
Width: 541
VWidth: 0
Flags: HMW
LayerCount: 2
Fore
SplineSet
134 177 m 1
 89 181 l 1
 90 189 90 198 92 206 c 0
 101 233 119 261 139 281 c 0
 166 307 204 326 242 326 c 0
 285 326 312 297 338 267 c 0
 353 247 373 222 402 222 c 0
 440 222 472 260 484 293 c 0
 488 302 488 313 488 322 c 1
 537 318 l 1
 536 309 535 298 532 289 c 0
 524 262 509 234 489 214 c 0
 466 191 430 172 397 173 c 0
 357 174 331 202 307 229 c 0
 288 252 268 278 234 278 c 0
 187 278 152 238 138 199 c 0
 135 192 135 184 134 177 c 1
EndSplineSet
EndChar

StartChar: exclamdown
Encoding: 161 161 95
Width: 282
VWidth: 0
Flags: HMW
LayerCount: 2
Fore
SplineSet
43 -245 m 1
 -23 -245 l 1
 162 254 l 1
 200 254 l 1
 43 -245 l 1
277 429 m 0
 273 413 247 392 230 394 c 0
 212 396 201 414 205 432 c 0
 209 448 235 469 252 467 c 0
 270 465 281 447 277 429 c 0
EndSplineSet
EndChar

StartChar: cent
Encoding: 162 162 96
Width: 545
VWidth: 0
Flags: HMW
LayerCount: 2
Fore
SplineSet
230 20 m 1
 269 20 l 1
 224 -111 l 1
 182 -111 l 1
 230 20 l 1
152 230 m 0
 121 144 152 42 256 40 c 0
 323 39 382 73 433 112 c 1
 413 48 l 1
 363 15 307 -9 246 -9 c 0
 113 -8 64 116 101 230 c 0
 142 356 266 468 403 469 c 0
 456 469 499 450 535 411 c 1
 515 347 l 1
 491 396 450 421 394 420 c 0
 286 419 187 328 152 230 c 0
418 577 m 1
 461 577 l 1
 411 443 l 1
 372 443 l 1
 418 577 l 1
EndSplineSet
EndChar

StartChar: sterling
Encoding: 163 163 97
Width: 545
VWidth: 0
Flags: HMW
LayerCount: 2
Fore
SplineSet
133 344 m 1
 455 344 l 1
 437 295 l 1
 115 295 l 1
 133 344 l 1
547 487 m 1
 562 556 566 652 472 655 c 0
 396 658 321 596 295 527 c 0
 262 438 334 353 306 263 c 0
 273 157 173 85 82 32 c 1
 88 52 l 1
 444 52 l 1
 425 0 l 1
 17 0 l 1
 100 75 215 143 252 255 c 0
 282 347 211 434 240 527 c 0
 272 627 375 711 482 709 c 0
 598 707 614 595 597 504 c 1
 547 487 l 1
EndSplineSet
EndChar

StartChar: currency
Encoding: 164 164 98
Width: 537
VWidth: 0
Flags: HMW
LayerCount: 2
Fore
SplineSet
161 513 m 1
 204 544 l 1
 255 461 l 1
 214 431 l 1
 161 513 l 1
40 56 m 1
 17 92 l 1
 122 169 l 1
 145 134 l 1
 40 56 l 1
517 431 m 1
 493 466 l 1
 598 544 l 1
 620 508 l 1
 517 431 l 1
382 139 m 1
 424 169 l 1
 476 87 l 1
 435 56 l 1
 382 139 l 1
95 300 m 0
 135 423 260 539 395 539 c 0
 527 539 576 413 539 300 c 0
 499 177 374 61 239 61 c 0
 107 61 58 187 95 300 c 0
147 300 m 0
 117 215 143 111 248 110 c 0
 355 109 454 204 488 300 c 0
 518 385 491 489 386 490 c 0
 279 491 181 396 147 300 c 0
EndSplineSet
EndChar

StartChar: yen
Encoding: 165 165 99
Width: 539
VWidth: 0
Flags: HMW
LayerCount: 2
Fore
SplineSet
79 283 m 1
 95 331 l 1
 550 331 l 1
 534 282 l 1
 79 283 l 1
31 143 m 1
 47 191 l 1
 503 191 l 1
 487 142 l 1
 31 143 l 1
635 699 m 1
 698 699 l 1
 335 286 l 1
 236 0 l 1
 180 0 l 1
 283 293 l 1
 206 700 l 1
 262 700 l 1
 322 340 l 1
 635 699 l 1
EndSplineSet
EndChar

StartChar: brokenbar
Encoding: 166 166 100
Width: 233
VWidth: 0
Flags: HMW
LayerCount: 2
Fore
SplineSet
277 694 m 1
 324 694 l 1
 241 456 l 1
 194 456 l 1
 277 694 l 1
170 244 m 1
 87 6 l 1
 40 6 l 1
 123 244 l 1
 170 244 l 1
EndSplineSet
EndChar

StartChar: section
Encoding: 167 167 101
Width: 379
VWidth: 0
Flags: HMW
LayerCount: 2
Fore
SplineSet
461 594 m 1
 444 635 416 659 369 659 c 0
 327 659 267 636 253 592 c 0
 236 539 303 516 339 497 c 0
 390 470 442 430 424 365 c 0
 398 273 305 248 223 242 c 1
 230 261 l 1
 284 279 354 301 371 362 c 0
 386 416 335 442 295 462 c 0
 242 489 181 524 203 594 c 0
 225 665 307 708 378 709 c 0
 442 710 487 679 506 619 c 1
 461 594 l 1
63 147 m 1
 66 87 93 41 158 40 c 0
 207 39 268 64 286 114 c 0
 307 172 252 199 210 222 c 0
 157 251 101 292 122 360 c 0
 149 450 243 471 323 478 c 1
 318 463 l 1
 264 443 193 425 174 365 c 0
 155 306 211 279 254 256 c 0
 308 227 359 185 339 117 c 0
 316 36 225 -11 145 -9 c 0
 63 -7 18 46 15 124 c 1
 63 147 l 1
EndSplineSet
EndChar

StartChar: dieresis
Encoding: 168 168 102
Width: 424
VWidth: 0
Flags: HMW
LayerCount: 2
Fore
SplineSet
443 673 m 0
 446 689 472 710 489 708 c 0
 507 706 518 688 515 670 c 0
 512 654 485 633 468 635 c 0
 450 637 440 655 443 673 c 0
255 673 m 0
 258 689 284 710 301 708 c 0
 319 706 330 688 327 670 c 0
 324 654 297 633 280 635 c 0
 262 637 252 655 255 673 c 0
EndSplineSet
EndChar

StartChar: copyright
Encoding: 169 169 103
Width: 752
VWidth: 0
Flags: HMW
LayerCount: 2
Fore
SplineSet
283 350 m 0
 256 268 284 171 384 169 c 0
 439 167 488 194 532 223 c 1
 519 180 l 1
 476 154 431 134 380 135 c 0
 263 136 218 249 248 350 c 0
 280 461 386 563 506 565 c 0
 553 566 589 549 623 519 c 1
 610 475 l 1
 582 511 550 531 503 531 c 0
 401 531 313 442 283 350 c 0
147 350 m 0
 98 196 167 26 346 25 c 0
 531 24 699 180 753 350 c 0
 802 504 733 674 554 675 c 0
 369 676 201 520 147 350 c 0
110 350 m 0
 167 541 352 711 557 710 c 0
 755 709 842 525 790 350 c 0
 733 159 548 -11 343 -10 c 0
 145 -9 58 175 110 350 c 0
EndSplineSet
EndChar

StartChar: registered
Encoding: 174 174 104
Width: 752
VWidth: 0
Flags: HMW
LayerCount: 2
Fore
SplineSet
406 351 m 1
 441 351 l 1
 518 149 l 1
 479 149 l 1
 406 351 l 1
409 569 m 1
 442 569 l 1
 311 151 l 1
 279 151 l 1
 409 569 l 1
415 540 m 1
 424 569 l 1
 497 570 l 1
 566 566 618 520 597 447 c 0
 576 372 499 331 426 327 c 1
 349 327 l 1
 358 355 l 1
 431 355 l 1
 487 359 547 390 564 448 c 0
 581 503 544 534 492 539 c 1
 415 540 l 1
147 350 m 0
 98 196 167 26 346 25 c 0
 531 24 699 180 753 350 c 0
 802 504 733 674 554 675 c 0
 369 676 201 520 147 350 c 0
110 350 m 0
 167 540 352 711 557 710 c 0
 755 709 842 525 790 350 c 0
 733 160 548 -11 343 -10 c 0
 145 -9 58 175 110 350 c 0
EndSplineSet
EndChar

StartChar: ordfeminine
Encoding: 170 170 105
Width: 223
VWidth: 0
Flags: HMW
LayerCount: 2
Fore
SplineSet
172 530 m 0
 165 504 181 482 207 480 c 0
 250 477 279 515 302 545 c 1
 303 529 l 1
 279 492 247 454 198 456 c 0
 157 458 134 493 147 532 c 0
 162 576 217 607 261 607 c 0
 287 607 304 595 324 580 c 1
 319 564 l 1
 300 576 283 588 260 588 c 0
 228 588 181 563 172 530 c 0
222 653 m 1
 215 674 l 1
 241 687 272 705 303 703 c 0
 345 700 364 670 356 630 c 1
 297 461 l 1
 271 461 l 1
 331 631 l 1
 331 655 329 675 300 678 c 0
 273 681 244 665 222 653 c 1
EndSplineSet
EndChar

StartChar: ordmasculine
Encoding: 186 186 106
Width: 261
VWidth: 0
Flags: HMW
LayerCount: 2
Fore
SplineSet
161 581 m 0
 180 642 247 700 313 699 c 0
 379 698 406 637 388 579 c 0
 369 518 302 460 236 461 c 0
 170 462 143 523 161 581 c 0
188 580 m 0
 173 539 189 489 239 488 c 0
 290 487 344 534 361 580 c 0
 376 621 360 671 310 672 c 0
 259 673 205 626 188 580 c 0
EndSplineSet
EndChar

StartChar: guillemotleft
Encoding: 171 171 107
Width: 469
VWidth: 0
Flags: HMW
LayerCount: 2
Fore
SplineSet
276 257 m 1
 368 49 l 1
 329 20 l 1
 221 259 l 1
 485 489 l 1
 509 458 l 1
 276 257 l 1
125 257 m 1
 218 49 l 1
 178 20 l 1
 70 259 l 1
 334 489 l 1
 359 458 l 1
 125 257 l 1
EndSplineSet
EndChar

StartChar: guillemotright
Encoding: 187 187 108
Width: 469
VWidth: 0
Flags: HMW
LayerCount: 2
Fore
SplineSet
260 253 m 1
 168 461 l 1
 207 490 l 1
 316 251 l 1
 51 21 l 1
 27 52 l 1
 260 253 l 1
411 253 m 1
 319 461 l 1
 358 490 l 1
 466 251 l 1
 201 21 l 1
 178 52 l 1
 411 253 l 1
EndSplineSet
EndChar

StartChar: uni00AD
Encoding: 173 173 109
Width: 197
VWidth: 0
Flags: HMW
LayerCount: 2
Fore
SplineSet
28 227 m 1
 44 275 l 1
 235 275 l 1
 218 227 l 1
 28 227 l 1
EndSplineSet
EndChar

StartChar: logicalnot
Encoding: 172 172 110
Width: 583
VWidth: 0
Flags: HMW
LayerCount: 2
Fore
SplineSet
117 326 m 1
 134 375 l 1
 598 375 l 1
 527 176 l 1
 479 176 l 1
 533 326 l 1
 117 326 l 1
EndSplineSet
EndChar

StartChar: macron
Encoding: 175 175 111
Width: 479
VWidth: 0
Flags: HMW
LayerCount: 2
Fore
SplineSet
234 626 m 1
 249 675 l 1
 580 675 l 1
 565 626 l 1
 234 626 l 1
EndSplineSet
EndChar

StartChar: degree
Encoding: 176 176 112
Width: 261
VWidth: 0
Flags: HMW
LayerCount: 2
Fore
SplineSet
168 601 m 0
 187 662 254 720 320 719 c 0
 386 718 413 657 395 599 c 0
 376 538 309 480 243 481 c 0
 177 482 150 543 168 601 c 0
195 600 m 0
 180 559 196 509 246 508 c 0
 297 507 350 554 367 600 c 0
 382 641 366 691 316 692 c 0
 265 693 212 646 195 600 c 0
EndSplineSet
EndChar

StartChar: plusminus
Encoding: 177 177 113
Width: 576
VWidth: 0
Flags: HMW
LayerCount: 2
Fore
SplineSet
28 0 m 1
 43 52 l 1
 499 52 l 1
 483 0 l 1
 28 0 l 1
138 359 m 1
 154 411 l 1
 610 411 l 1
 594 359 l 1
 138 359 l 1
418 620 m 1
 473 620 l 1
 326 150 l 1
 274 151 l 1
 418 620 l 1
EndSplineSet
EndChar

StartChar: uni00B2
Encoding: 178 178 114
Width: 319
VWidth: 0
Flags: HMW
LayerCount: 2
Fore
SplineSet
67 284 m 1
 319 490 l 2
 351 516 389 548 403 589 c 0
 417 630 401 674 353 677 c 0
 285 682 240 612 213 560 c 1
 180 560 l 1
 213 630 269 710 357 708 c 0
 425 707 453 646 434 586 c 0
 419 539 381 502 344 471 c 2
 146 314 l 1
 348 313 l 1
 337 283 l 1
 67 284 l 1
EndSplineSet
EndChar

StartChar: uni00B3
Encoding: 179 179 115
Width: 291
VWidth: 0
Flags: HMW
LayerCount: 2
Fore
SplineSet
245 493 m 1
 252 513 l 1
 302 523 358 543 377 596 c 0
 391 634 374 672 332 675 c 0
 282 678 247 635 222 598 c 1
 190 599 l 1
 220 654 267 707 336 705 c 0
 396 703 428 650 409 595 c 0
 386 525 311 502 245 493 c 1
192 275 m 0
 118 275 96 326 104 391 c 1
 136 391 l 1
 132 345 141 308 196 306 c 0
 247 304 303 345 318 393 c 0
 337 452 291 473 242 483 c 1
 249 504 l 1
 315 495 374 465 350 388 c 0
 330 323 259 275 192 275 c 0
EndSplineSet
EndChar

StartChar: acute
Encoding: 180 180 116
Width: 344
VWidth: 0
Flags: HMW
LayerCount: 2
Fore
SplineSet
439 670 m 1
 225 522 l 1
 201 543 l 1
 398 699 l 1
 439 670 l 1
EndSplineSet
EndChar

StartChar: mu
Encoding: 181 181 117
Width: 474
VWidth: 0
Flags: HMW
LayerCount: 2
Fore
SplineSet
295 0 m 1
 454 460 l 1
 506 460 l 1
 347 0 l 1
 295 0 l 1
126 168 m 2
 109 113 105 42 180 40 c 0
 263 37 323 112 359 178 c 1
 383 178 l 1
 343 90 267 -10 159 -9 c 0
 58 -9 51 85 74 162 c 1
 178 460 l 1
 226 459 l 1
 126 168 l 2
176 459 m 1
 229 460 l 1
 -41 -320 l 1
 -89 -319 l 1
 176 459 l 1
EndSplineSet
EndChar

StartChar: paragraph
Encoding: 182 182 118
Width: 494
VWidth: 0
Flags: HMW
LayerCount: 2
Fore
SplineSet
441 658 m 1
 454 699 l 1
 606 699 l 1
 593 658 l 1
 441 658 l 1
579 699 m 1
 624 699 l 1
 310 -219 l 1
 265 -219 l 1
 579 699 l 1
454 699 m 1
 500 699 l 1
 185 -219 l 1
 141 -219 l 1
 454 699 l 1
311 271 m 1
 191 284 127 367 166 486 c 0
 208 615 323 699 454 699 c 1
 311 271 l 1
EndSplineSet
EndChar

StartChar: periodcentered
Encoding: 183 183 119
Width: 260
VWidth: 0
Flags: HMW
LayerCount: 2
Fore
SplineSet
119 234 m 0
 123 250 149 271 166 269 c 0
 184 267 196 249 192 231 c 0
 188 215 161 194 144 196 c 0
 126 198 115 216 119 234 c 0
EndSplineSet
EndChar

StartChar: uni00B9
Encoding: 185 185 120
Width: 442
VWidth: 0
Flags: HMW
LayerCount: 2
Fore
SplineSet
302 635 m 1
 312 668 l 1
 449 699 l 1
 301 275 l 1
 269 275 l 1
 399 657 l 1
 302 635 l 1
EndSplineSet
EndChar

StartChar: cedilla
Encoding: 184 184 121
Width: 329
VWidth: 0
Flags: HMW
LayerCount: 2
Fore
SplineSet
134 35 m 1
 175 35 l 1
 83 -61 l 1
 93 -57 104 -51 115 -52 c 0
 154 -58 172 -90 163 -128 c 0
 150 -181 83 -220 31 -219 c 0
 -2 -219 -21 -202 -43 -180 c 1
 -15 -156 l 1
 0 -170 15 -183 38 -183 c 0
 70 -183 117 -157 126 -125 c 0
 133 -100 116 -81 92 -79 c 0
 68 -76 41 -89 19 -98 c 1
 134 35 l 1
EndSplineSet
EndChar

StartChar: questiondown
Encoding: 191 191 122
Width: 518
VWidth: 0
Flags: HMW
LayerCount: 2
Fore
SplineSet
125 192 m 0
 94 113 135 41 222 40 c 0
 296 39 357 86 409 133 c 1
 444 104 l 1
 379 43 302 -11 208 -9 c 0
 95 -7 40 90 74 193 c 0
 113 310 230 373 345 391 c 1
 399 529 l 1
 437 530 l 1
 393 355 l 1
 379 355 l 1
 247 343 156 273 125 192 c 0
505 674 m 0
 501 658 474 637 457 639 c 0
 439 641 429 659 433 677 c 0
 437 693 463 714 480 712 c 0
 498 710 509 692 505 674 c 0
EndSplineSet
EndChar

StartChar: multiply
Encoding: 215 215 123
Width: 553
VWidth: 0
Flags: HMW
LayerCount: 2
Fore
SplineSet
60 32 m 1
 35 72 l 1
 280 257 l 1
 163 445 l 1
 207 478 l 1
 318 289 l 1
 560 477 l 1
 584 437 l 1
 340 252 l 1
 456 65 l 1
 412 32 l 1
 301 220 l 1
 60 32 l 1
EndSplineSet
EndChar

StartChar: Oslash
Encoding: 216 216 124
Width: 743
VWidth: 0
Flags: HMW
LayerCount: 2
Fore
SplineSet
163 350 m 0
 115 213 157 49 326 47 c 0
 499 45 651 196 705 350 c 0
 753 487 711 651 542 653 c 0
 369 655 217 504 163 350 c 0
105 350 m 0
 166 536 348 710 552 709 c 0
 751 708 818 517 763 350 c 0
 702 164 520 -10 316 -9 c 0
 117 -8 50 183 105 350 c 0
853 742 m 1
 886 714 l 1
 17 -42 l 1
 -15 -14 l 1
 853 742 l 1
EndSplineSet
EndChar

StartChar: Thorn
Encoding: 222 222 125
Width: 505
VWidth: 0
Flags: HMW
LayerCount: 2
Fore
SplineSet
259 699 m 1
 314 700 l 1
 72 0 l 1
 21 0 l 1
 259 699 l 1
220 508 m 1
 239 560 l 1
 376 560 l 0
 495 555 572 468 533 349 c 0
 493 224 367 145 240 140 c 0
 95 140 l 1
 114 192 l 1
 250 192 l 0
 348 197 446 255 480 350 c 0
 512 441 456 502 365 507 c 1
 220 508 l 1
EndSplineSet
EndChar

StartChar: divide
Encoding: 247 247 126
Width: 586
VWidth: 0
Flags: HMW
LayerCount: 2
Fore
SplineSet
355 452 m 0
 359 468 385 489 402 487 c 0
 420 485 431 467 427 449 c 0
 423 433 397 412 380 414 c 0
 362 416 351 434 355 452 c 0
220 56 m 0
 224 72 250 93 267 91 c 0
 285 89 296 71 292 53 c 0
 288 37 262 16 245 18 c 0
 227 20 216 38 220 56 c 0
81 230 m 1
 98 281 l 1
 570 281 l 1
 553 229 l 1
 81 230 l 1
EndSplineSet
EndChar

StartChar: oslash
Encoding: 248 248 127
Width: 513
VWidth: 0
Flags: HMW
LayerCount: 2
Fore
SplineSet
59 230 m 0
 99 354 225 469 361 469 c 0
 494 469 544 344 507 230 c 0
 467 106 341 -9 205 -9 c 0
 72 -9 22 116 59 230 c 0
111 230 m 0
 80 144 109 41 214 40 c 0
 322 39 421 133 455 230 c 0
 486 316 457 419 352 420 c 0
 244 421 145 327 111 230 c 0
534 496 m 1
 562 480 l 1
 16 -40 l 1
 -11 -24 l 1
 534 496 l 1
EndSplineSet
EndChar

StartChar: circumflex
Encoding: 710 710 128
Width: 451
VWidth: 0
Flags: HMW
LayerCount: 2
Fore
SplineSet
405 673 m 1
 246 565 l 1
 221 593 l 1
 418 730 l 1
 525 589 l 1
 487 564 l 1
 405 673 l 1
EndSplineSet
EndChar

StartChar: ogonek
Encoding: 731 731 129
Width: 240
VWidth: 0
Flags: HMW
LayerCount: 2
Fore
SplineSet
108 -148 m 1
 121 -182 l 1
 91 -201 61 -219 24 -219 c 0
 -31 -220 -75 -185 -60 -127 c 0
 -40 -52 54 -12 117 18 c 1
 140 0 l 1
 92 -26 7 -55 -7 -116 c 0
 -14 -147 5 -170 36 -173 c 0
 61 -175 87 -160 108 -148 c 1
EndSplineSet
EndChar

StartChar: tilde
Encoding: 732 732 130
Width: 498
VWidth: 0
Flags: HMW
LayerCount: 2
Fore
SplineSet
269 637 m 1
 293 670 327 708 372 706 c 0
 411 705 435 658 475 661 c 0
 503 663 524 689 543 707 c 1
 568 679 l 1
 542 651 507 615 465 617 c 0
 427 619 404 663 365 662 c 0
 334 661 315 636 299 613 c 1
 269 637 l 1
EndSplineSet
EndChar

StartChar: ring
Encoding: 730 730 131
Width: 261
VWidth: 0
Flags: HMW
LayerCount: 2
Fore
SplineSet
247 787 m 0
 263 837 322 885 376 884 c 0
 430 883 457 832 442 783 c 0
 426 733 367 685 313 686 c 0
 259 687 232 738 247 787 c 0
280 784 m 0
 271 755 286 721 319 718 c 0
 353 715 399 755 409 786 c 0
 418 815 403 849 370 852 c 0
 336 855 290 815 280 784 c 0
EndSplineSet
EndChar

StartChar: dotaccent
Encoding: 729 729 132
Width: 260
VWidth: 0
Flags: HMW
LayerCount: 2
Fore
SplineSet
304 776 m 0
 308 792 334 813 351 811 c 0
 369 809 380 791 376 773 c 0
 372 757 346 736 329 738 c 0
 311 740 300 758 304 776 c 0
EndSplineSet
EndChar

StartChar: uni2010
Encoding: 8208 8208 133
Width: 197
VWidth: 0
Flags: HMW
LayerCount: 2
Fore
SplineSet
28 227 m 1
 44 275 l 1
 235 275 l 1
 218 227 l 1
 28 227 l 1
EndSplineSet
EndChar

StartChar: endash
Encoding: 8211 8211 134
Width: 696
VWidth: 0
Flags: HMW
LayerCount: 2
Fore
SplineSet
89 227 m 1
 105 275 l 1
 672 275 l 1
 656 226 l 1
 89 227 l 1
EndSplineSet
EndChar

StartChar: figuredash
Encoding: 8210 8210 135
Width: 555
VWidth: 0
Flags: HMW
LayerCount: 2
Fore
SplineSet
89 227 m 1
 105 275 l 1
 531 275 l 1
 515 226 l 1
 89 227 l 1
EndSplineSet
EndChar

StartChar: emdash
Encoding: 8212 8212 136
Width: 837
VWidth: 0
Flags: HMW
LayerCount: 2
Fore
SplineSet
89 227 m 1
 105 275 l 1
 813 275 l 1
 797 226 l 1
 89 227 l 1
EndSplineSet
EndChar

StartChar: minus
Encoding: 8722 8722 137
Width: 555
VWidth: 0
Flags: HMW
LayerCount: 2
Fore
SplineSet
89 227 m 1
 105 275 l 1
 531 275 l 1
 515 226 l 1
 89 227 l 1
EndSplineSet
EndChar

StartChar: quoteright
Encoding: 8217 8217 138
Width: 246
VWidth: 0
Flags: HMW
LayerCount: 2
Fore
SplineSet
311 699 m 1
 374 699 l 1
 200 472 l 1
 163 472 l 1
 311 699 l 1
EndSplineSet
EndChar

StartChar: quoteleft
Encoding: 8216 8216 139
Width: 239
VWidth: 0
Flags: HMW
LayerCount: 2
Fore
SplineSet
228 471 m 1
 164 471 l 1
 338 698 l 1
 376 698 l 1
 228 471 l 1
EndSplineSet
EndChar

StartChar: quotesinglbase
Encoding: 8218 8218 140
Width: 246
VWidth: 0
Flags: HMW
LayerCount: 2
Fore
SplineSet
97 79 m 1
 161 79 l 1
 -13 -148 l 1
 -50 -148 l 1
 97 79 l 1
EndSplineSet
EndChar

StartChar: quotedblleft
Encoding: 8220 8220 141
Width: 412
VWidth: 0
Flags: HMW
LayerCount: 2
Fore
SplineSet
235 471 m 1
 171 471 l 1
 346 698 l 1
 383 698 l 1
 235 471 l 1
401 471 m 1
 337 471 l 1
 511 698 l 1
 549 698 l 1
 401 471 l 1
EndSplineSet
EndChar

StartChar: quotedblright
Encoding: 8221 8221 142
Width: 412
VWidth: 0
Flags: HMW
LayerCount: 2
Fore
SplineSet
303 699 m 1
 367 699 l 1
 193 472 l 1
 155 472 l 1
 303 699 l 1
469 699 m 1
 533 699 l 1
 358 472 l 1
 321 472 l 1
 469 699 l 1
EndSplineSet
EndChar

StartChar: perthousand
Encoding: 8240 8240 143
Width: 1041
VWidth: 0
Flags: HMW
LayerCount: 2
Fore
SplineSet
713 147 m 0
 739 228 821 301 909 301 c 0
 996 301 1030 221 1006 145 c 0
 980 64 898 -9 810 -9 c 0
 723 -9 689 71 713 147 c 0
758 146 m 0
 740 96 756 36 817 34 c 0
 879 32 940 90 960 146 c 0
 978 196 962 256 901 258 c 0
 839 260 778 202 758 146 c 0
167 555 m 0
 193 636 274 709 362 709 c 0
 449 709 483 629 459 553 c 0
 433 472 351 399 263 399 c 0
 176 399 143 479 167 555 c 0
211 554 m 0
 193 504 210 444 271 442 c 0
 333 440 394 498 414 554 c 0
 432 604 416 664 355 666 c 0
 293 668 231 610 211 554 c 0
360 147 m 0
 386 228 467 301 555 301 c 0
 642 301 676 221 652 145 c 0
 626 64 544 -9 456 -9 c 0
 369 -9 336 71 360 147 c 0
404 146 m 0
 386 96 402 36 463 34 c 0
 525 32 587 90 607 146 c 0
 625 196 608 256 547 258 c 0
 485 260 424 202 404 146 c 0
716 699 m 1
 769 699 l 1
 102 0 l 1
 52 0 l 1
 716 699 l 1
EndSplineSet
EndChar

StartChar: guilsinglleft
Encoding: 8249 8249 144
Width: 319
VWidth: 0
Flags: HMW
LayerCount: 2
Fore
SplineSet
125 257 m 1
 218 49 l 1
 178 20 l 1
 70 259 l 1
 334 489 l 1
 359 458 l 1
 125 257 l 1
EndSplineSet
EndChar

StartChar: guilsinglright
Encoding: 8250 8250 145
Width: 329
VWidth: 0
Flags: HMW
LayerCount: 2
Fore
SplineSet
269 253 m 1
 177 461 l 1
 216 490 l 1
 325 251 l 1
 61 21 l 1
 36 52 l 1
 269 253 l 1
EndSplineSet
EndChar

StartChar: uni2031
Encoding: 8241 8241 146
Width: 1394
VWidth: 0
Flags: HMW
LayerCount: 2
Fore
SplineSet
1067 147 m 0
 1093 228 1175 301 1263 301 c 0
 1350 301 1384 221 1360 145 c 0
 1334 64 1252 -9 1164 -9 c 0
 1077 -9 1043 71 1067 147 c 0
1112 146 m 0
 1094 96 1110 36 1171 34 c 0
 1233 32 1295 90 1315 146 c 0
 1333 196 1316 256 1255 258 c 0
 1193 260 1132 202 1112 146 c 0
713 147 m 0
 739 228 821 301 909 301 c 0
 996 301 1030 221 1006 145 c 0
 980 64 898 -9 810 -9 c 0
 723 -9 689 71 713 147 c 0
758 146 m 0
 740 96 756 36 817 34 c 0
 879 32 940 90 960 146 c 0
 978 196 962 256 901 258 c 0
 839 260 778 202 758 146 c 0
167 555 m 0
 193 636 274 709 362 709 c 0
 449 709 483 629 459 553 c 0
 433 472 351 399 263 399 c 0
 176 399 143 479 167 555 c 0
211 554 m 0
 193 504 210 444 271 442 c 0
 333 440 394 498 414 554 c 0
 432 604 416 664 355 666 c 0
 293 668 231 610 211 554 c 0
360 147 m 0
 386 228 467 301 555 301 c 0
 642 301 676 221 652 145 c 0
 626 64 544 -9 456 -9 c 0
 369 -9 336 71 360 147 c 0
404 146 m 0
 386 96 402 36 463 34 c 0
 525 32 587 90 607 146 c 0
 625 196 608 256 547 258 c 0
 485 260 424 202 404 146 c 0
716 699 m 1
 769 699 l 1
 102 0 l 1
 52 0 l 1
 716 699 l 1
EndSplineSet
EndChar

StartChar: uni203D
Encoding: 8253 8253 147
Width: 524
VWidth: 0
Flags: HMW
LayerCount: 2
Fore
SplineSet
524 508 m 0
 553 587 514 659 426 660 c 0
 352 661 292 614 240 567 c 1
 205 596 l 1
 270 657 347 711 441 709 c 0
 554 707 609 610 575 507 c 0
 536 391 422 324 306 309 c 1
 284 347 l 1
 384 358 487 408 524 508 c 0
325 510 m 1
 390 509 l 1
 259 171 l 1
 222 171 l 1
 325 510 l 1
155 26 m 0
 159 42 185 63 202 61 c 0
 220 59 231 41 227 23 c 0
 223 7 197 -14 180 -12 c 0
 162 -10 151 8 155 26 c 0
EndSplineSet
EndChar

StartChar: Euro
Encoding: 8364 8364 148
Width: 590
VWidth: 0
Flags: HMW
LayerCount: 2
Fore
SplineSet
126 423 m 1
 137 454 l 1
 609 454 l 1
 599 423 l 1
 126 423 l 1
85 303 m 1
 96 334 l 1
 544 334 l 1
 533 303 l 1
 85 303 l 1
214 350 m 0
 175 238 163 45 327 43 c 0
 386 42 440 68 491 96 c 1
 470 31 l 1
 422 9 370 -9 317 -9 c 0
 122 -8 113 209 160 350 c 0
 215 517 361 710 555 709 c 0
 604 709 646 693 687 669 c 1
 666 603 l 1
 632 637 595 658 545 658 c 0
 381 659 262 489 214 350 c 0
EndSplineSet
EndChar

StartChar: fraction
Encoding: 8260 8260 149
Width: 663
VWidth: 0
Flags: HMW
LayerCount: 2
Fore
SplineSet
748 698 m 1
 792 697 l 1
 45 0 l 1
 1 0 l 1
 748 698 l 1
EndSplineSet
EndChar

StartChar: onequarter
Encoding: 188 188 150
Width: 709
VWidth: 0
Flags: HMW
LayerCount: 2
Fore
SplineSet
784 698 m 1
 828 697 l 1
 81 0 l 1
 37 0 l 1
 784 698 l 1
187 635 m 1
 197 668 l 1
 334 699 l 1
 187 275 l 1
 154 275 l 1
 284 657 l 1
 187 635 l 1
350 85 m 1
 383 112 l 1
 568 113 l 1
 575 113 l 1
 652 113 l 1
 643 85 l 1
 350 85 l 1
385 86 m 1
 349 87 l 1
 681 418 l 1
 695 419 l 1
 552 0 l 1
 519 0 l 1
 553 98 l 1
 554 102 l 1
 636 336 l 1
 385 86 l 1
EndSplineSet
EndChar

StartChar: onehalf
Encoding: 189 189 151
Width: 770
VWidth: 0
Flags: HMW
LayerCount: 2
Fore
SplineSet
784 698 m 1
 828 697 l 1
 81 0 l 1
 37 0 l 1
 784 698 l 1
187 635 m 1
 197 668 l 1
 334 699 l 1
 187 275 l 1
 154 275 l 1
 284 657 l 1
 187 635 l 1
411 4 m 1
 663 209 l 2
 695 235 733 268 747 309 c 0
 761 350 745 392 697 396 c 0
 629 401 584 332 557 280 c 1
 524 280 l 1
 557 350 613 430 701 428 c 0
 769 426 798 366 779 306 c 0
 764 259 725 222 688 191 c 2
 491 34 l 1
 692 33 l 1
 682 3 l 1
 411 4 l 1
EndSplineSet
EndChar

StartChar: threequarters
Encoding: 190 190 152
Width: 771
VWidth: 0
Flags: HMW
LayerCount: 2
Fore
SplineSet
847 698 m 1
 891 697 l 1
 144 0 l 1
 100 0 l 1
 847 698 l 1
250 493 m 1
 257 513 l 1
 307 523 363 543 382 596 c 0
 396 634 379 672 337 675 c 0
 287 678 251 635 226 598 c 1
 195 599 l 1
 225 654 272 707 341 705 c 0
 401 703 433 650 414 595 c 0
 391 525 316 502 250 493 c 1
197 275 m 0
 123 275 100 326 108 391 c 1
 140 391 l 1
 136 345 145 308 200 306 c 0
 251 304 308 345 323 393 c 0
 342 452 296 473 247 483 c 1
 254 504 l 1
 320 495 379 465 355 388 c 0
 335 323 264 275 197 275 c 0
413 85 m 1
 446 112 l 1
 631 113 l 1
 638 113 l 1
 715 113 l 1
 706 85 l 1
 413 85 l 1
448 86 m 1
 412 87 l 1
 744 418 l 1
 758 419 l 1
 615 0 l 1
 582 0 l 1
 616 98 l 1
 617 102 l 1
 699 336 l 1
 448 86 l 1
EndSplineSet
EndChar

StartChar: uni2150
Encoding: 8528 8528 153
Width: 792
VWidth: 0
Flags: HMW
LayerCount: 2
Fore
SplineSet
737 698 m 1
 781 697 l 1
 34 0 l 1
 -10 0 l 1
 737 698 l 1
187 635 m 1
 197 668 l 1
 334 699 l 1
 187 275 l 1
 154 275 l 1
 284 657 l 1
 187 635 l 1
568 389 m 1
 577 419 l 1
 854 419 l 1
 512 0 l 1
 476 0 l 1
 791 388 l 1
 568 389 l 1
EndSplineSet
EndChar

StartChar: uni2151
Encoding: 8529 8529 154
Width: 737
VWidth: 0
Flags: HMW
LayerCount: 2
Fore
SplineSet
737 698 m 1
 781 697 l 1
 34 0 l 1
 -10 0 l 1
 737 698 l 1
187 635 m 1
 197 668 l 1
 334 699 l 1
 187 275 l 1
 154 275 l 1
 284 657 l 1
 187 635 l 1
721 286 m 0
 738 336 723 395 662 397 c 0
 600 399 539 341 520 286 c 0
 504 238 520 181 578 178 c 0
 639 175 702 231 721 286 c 0
497 4 m 1
 455 5 l 1
 648 187 l 1
 652 183 l 1
 625 168 596 152 564 153 c 0
 493 155 472 228 490 287 c 0
 513 360 588 428 666 427 c 0
 745 426 775 355 752 286 c 0
 741 252 718 222 694 196 c 1
 497 4 l 1
EndSplineSet
EndChar

StartChar: uni2152
Encoding: 8530 8530 155
Width: 1016
VWidth: 0
Flags: HMW
LayerCount: 2
Fore
SplineSet
737 698 m 1
 781 697 l 1
 34 0 l 1
 -10 0 l 1
 737 698 l 1
187 635 m 1
 197 668 l 1
 334 699 l 1
 187 275 l 1
 154 275 l 1
 284 657 l 1
 187 635 l 1
508 362 m 1
 518 395 l 1
 654 426 l 1
 507 2 l 1
 474 2 l 1
 605 384 l 1
 508 362 l 1
746 210 m 0
 728 158 696 29 785 26 c 0
 874 23 932 140 957 210 c 0
 975 262 1008 391 919 394 c 0
 830 397 771 280 746 210 c 0
712 210 m 0
 741 297 815 426 922 425 c 0
 1032 424 1014 281 991 210 c 0
 962 123 888 -6 781 -5 c 0
 671 -4 689 139 712 210 c 0
EndSplineSet
EndChar

StartChar: onethird
Encoding: 8531 8531 156
Width: 710
VWidth: 0
Flags: HMW
LayerCount: 2
Fore
SplineSet
737 698 m 1
 781 697 l 1
 34 0 l 1
 -10 0 l 1
 737 698 l 1
187 635 m 1
 197 668 l 1
 334 699 l 1
 187 275 l 1
 154 275 l 1
 284 657 l 1
 187 635 l 1
561 213 m 1
 569 233 l 1
 619 243 675 263 694 316 c 0
 708 354 691 392 649 395 c 0
 599 398 563 355 538 318 c 1
 507 319 l 1
 537 374 583 427 652 425 c 0
 712 423 745 370 726 315 c 0
 703 245 627 222 561 213 c 1
508 -5 m 0
 434 -5 412 46 420 111 c 1
 452 111 l 1
 448 65 457 28 512 26 c 0
 563 24 620 65 635 113 c 0
 654 172 607 193 558 203 c 1
 566 224 l 1
 632 215 690 185 666 108 c 0
 646 43 575 -5 508 -5 c 0
EndSplineSet
EndChar

StartChar: twothirds
Encoding: 8532 8532 157
Width: 829
VWidth: 0
Flags: HMW
LayerCount: 2
Fore
SplineSet
857 698 m 1
 901 697 l 1
 153 0 l 1
 109 0 l 1
 857 698 l 1
71 284 m 1
 323 490 l 2
 355 516 393 548 407 589 c 0
 421 630 405 673 357 676 c 0
 289 681 244 612 217 560 c 1
 184 560 l 1
 217 630 273 710 361 708 c 0
 429 707 458 646 439 586 c 0
 424 539 384 502 347 471 c 2
 151 314 l 1
 352 313 l 1
 342 283 l 1
 71 284 l 1
681 213 m 1
 688 233 l 1
 738 243 794 263 813 316 c 0
 827 354 810 392 768 395 c 0
 718 398 683 355 658 318 c 1
 626 319 l 1
 656 374 703 427 772 425 c 0
 832 423 864 370 845 315 c 0
 822 245 747 222 681 213 c 1
628 -5 m 0
 554 -5 532 46 540 111 c 1
 572 111 l 1
 568 65 577 28 632 26 c 0
 683 24 739 65 754 113 c 0
 773 172 727 193 678 203 c 1
 685 224 l 1
 751 215 810 185 786 108 c 0
 766 43 695 -5 628 -5 c 0
EndSplineSet
EndChar

StartChar: uni2155
Encoding: 8533 8533 158
Width: 700
VWidth: 0
Flags: HMW
LayerCount: 2
Fore
SplineSet
737 698 m 1
 781 697 l 1
 34 0 l 1
 -10 0 l 1
 737 698 l 1
187 635 m 1
 197 668 l 1
 334 699 l 1
 187 275 l 1
 154 275 l 1
 284 657 l 1
 187 635 l 1
654 135 m 0
 630 59 555 -7 473 -7 c 0
 414 -7 384 29 367 81 c 1
 398 99 l 1
 410 58 429 25 476 24 c 0
 540 23 601 78 620 136 c 0
 637 185 621 237 564 242 c 0
 518 246 474 219 437 197 c 1
 467 225 l 1
 496 251 540 273 580 272 c 0
 655 270 674 196 654 135 c 0
584 388 m 1
 490 233 l 1
 430 190 l 1
 566 417 l 1
 753 417 l 1
 744 389 l 1
 584 388 l 1
EndSplineSet
EndChar

StartChar: uni2156
Encoding: 8534 8534 159
Width: 819
VWidth: 0
Flags: HMW
LayerCount: 2
Fore
SplineSet
857 698 m 1
 901 697 l 1
 153 0 l 1
 109 0 l 1
 857 698 l 1
71 284 m 1
 323 490 l 2
 355 516 393 548 407 589 c 0
 421 630 405 673 357 676 c 0
 289 681 244 612 217 560 c 1
 184 560 l 1
 217 630 273 710 361 708 c 0
 429 707 458 646 439 586 c 0
 424 539 384 502 347 471 c 2
 151 314 l 1
 352 313 l 1
 342 283 l 1
 71 284 l 1
773 135 m 0
 749 59 674 -7 592 -7 c 0
 533 -7 504 29 487 81 c 1
 518 99 l 1
 530 58 549 25 596 24 c 0
 660 23 720 78 739 136 c 0
 756 185 741 237 684 242 c 0
 638 246 594 219 557 197 c 1
 586 225 l 1
 615 251 660 273 700 272 c 0
 775 270 793 196 773 135 c 0
703 388 m 1
 610 233 l 1
 549 190 l 1
 685 417 l 1
 872 417 l 1
 863 389 l 1
 703 388 l 1
EndSplineSet
EndChar

StartChar: uni2157
Encoding: 8535 8535 160
Width: 781
VWidth: 0
Flags: HMW
LayerCount: 2
Fore
SplineSet
819 698 m 1
 863 697 l 1
 116 0 l 1
 72 0 l 1
 819 698 l 1
250 493 m 1
 257 513 l 1
 307 523 363 543 382 596 c 0
 396 634 379 672 337 675 c 0
 287 678 251 635 226 598 c 1
 195 599 l 1
 225 654 272 707 341 705 c 0
 401 703 433 650 414 595 c 0
 391 525 316 502 250 493 c 1
197 275 m 0
 123 275 100 326 108 391 c 1
 140 391 l 1
 136 345 145 308 200 306 c 0
 251 304 308 345 323 393 c 0
 342 452 296 473 247 483 c 1
 254 504 l 1
 320 495 379 465 355 388 c 0
 335 323 264 275 197 275 c 0
736 135 m 0
 712 59 637 -7 555 -7 c 0
 496 -7 466 29 449 81 c 1
 480 99 l 1
 492 58 511 25 558 24 c 0
 622 23 683 78 702 136 c 0
 719 185 703 237 646 242 c 0
 600 246 556 219 519 197 c 1
 549 225 l 1
 578 251 622 273 662 272 c 0
 737 270 756 196 736 135 c 0
665 388 m 1
 572 233 l 1
 512 190 l 1
 647 417 l 1
 835 417 l 1
 825 389 l 1
 665 388 l 1
EndSplineSet
EndChar

StartChar: uni2158
Encoding: 8536 8536 161
Width: 814
VWidth: 0
Flags: HMW
LayerCount: 2
Fore
SplineSet
852 698 m 1
 896 697 l 1
 149 0 l 1
 105 0 l 1
 852 698 l 1
100 365 m 1
 133 392 l 1
 318 393 l 1
 325 393 l 1
 403 393 l 1
 393 365 l 1
 100 365 l 1
135 366 m 1
 99 367 l 1
 431 698 l 1
 446 699 l 1
 302 281 l 1
 269 281 l 1
 303 378 l 1
 304 382 l 1
 386 616 l 1
 135 366 l 1
769 135 m 0
 745 59 670 -7 588 -7 c 0
 529 -7 499 29 482 81 c 1
 513 99 l 1
 525 58 544 25 591 24 c 0
 655 23 716 78 735 136 c 0
 752 185 736 237 679 242 c 0
 633 246 589 219 552 197 c 1
 581 225 l 1
 610 251 655 273 695 272 c 0
 770 270 789 196 769 135 c 0
698 388 m 1
 605 233 l 1
 545 190 l 1
 680 417 l 1
 867 417 l 1
 858 389 l 1
 698 388 l 1
EndSplineSet
EndChar

StartChar: uni2159
Encoding: 8537 8537 162
Width: 690
VWidth: 0
Flags: HMW
LayerCount: 2
Fore
SplineSet
737 698 m 1
 781 697 l 1
 34 0 l 1
 -10 0 l 1
 737 698 l 1
187 635 m 1
 197 668 l 1
 334 699 l 1
 187 275 l 1
 154 275 l 1
 284 657 l 1
 187 635 l 1
421 134 m 0
 404 84 419 25 480 23 c 0
 542 21 603 79 622 134 c 0
 638 182 623 239 565 242 c 0
 504 245 440 189 421 134 c 0
645 416 m 1
 688 415 l 1
 495 233 l 1
 491 237 l 1
 518 252 546 268 578 267 c 0
 649 265 671 192 653 133 c 0
 630 60 556 -8 477 -7 c 0
 398 -6 367 65 390 134 c 0
 401 168 425 198 449 224 c 1
 645 416 l 1
EndSplineSet
EndChar

StartChar: uni215A
Encoding: 8538 8538 163
Width: 805
VWidth: 0
Flags: HMW
LayerCount: 2
Fore
SplineSet
852 698 m 1
 896 697 l 1
 149 0 l 1
 105 0 l 1
 852 698 l 1
384 415 m 0
 360 339 285 273 203 273 c 0
 144 273 115 309 98 361 c 1
 129 379 l 1
 141 338 160 305 207 304 c 0
 271 303 331 358 350 416 c 0
 367 465 352 517 295 522 c 0
 249 526 205 499 168 477 c 1
 197 505 l 1
 226 531 271 553 311 552 c 0
 386 550 404 476 384 415 c 0
314 668 m 1
 221 513 l 1
 160 470 l 1
 296 697 l 1
 483 697 l 1
 474 669 l 1
 314 668 l 1
536 134 m 0
 519 84 534 25 595 23 c 0
 657 21 718 79 737 134 c 0
 753 182 738 239 680 242 c 0
 619 245 555 189 536 134 c 0
760 416 m 1
 803 415 l 1
 610 233 l 1
 606 237 l 1
 633 252 661 268 693 267 c 0
 764 265 786 192 768 133 c 0
 745 60 671 -8 592 -7 c 0
 513 -6 482 65 505 134 c 0
 516 168 539 198 563 224 c 1
 760 416 l 1
EndSplineSet
EndChar

StartChar: oneeighth
Encoding: 8539 8539 164
Width: 715
VWidth: 0
Flags: HMW
LayerCount: 2
Fore
SplineSet
737 698 m 1
 781 697 l 1
 34 0 l 1
 -10 0 l 1
 737 698 l 1
187 635 m 1
 197 668 l 1
 334 699 l 1
 187 275 l 1
 154 275 l 1
 284 657 l 1
 187 635 l 1
510 322 m 0
 528 377 590 426 648 425 c 0
 705 424 737 373 721 320 c 0
 704 264 641 216 582 217 c 0
 524 218 493 268 510 322 c 0
539 318 m 0
 527 283 543 242 583 239 c 0
 624 236 676 280 689 318 c 0
 701 354 685 393 644 396 c 0
 602 399 552 357 539 318 c 0
425 114 m 0
 445 176 515 230 581 229 c 0
 646 229 681 173 663 112 c 0
 644 49 573 -6 506 -5 c 0
 440 -4 406 53 425 114 c 0
457 116 m 0
 441 73 459 26 510 24 c 0
 562 22 618 68 634 116 c 0
 648 158 628 205 580 207 c 0
 530 209 473 161 457 116 c 0
EndSplineSet
EndChar

StartChar: threeeighths
Encoding: 8540 8540 165
Width: 796
VWidth: 0
Flags: HMW
LayerCount: 2
Fore
SplineSet
819 698 m 1
 863 697 l 1
 116 0 l 1
 72 0 l 1
 819 698 l 1
250 493 m 1
 257 513 l 1
 307 523 363 543 382 596 c 0
 396 634 379 672 337 675 c 0
 287 678 251 635 226 598 c 1
 195 599 l 1
 225 654 272 707 341 705 c 0
 401 703 433 650 414 595 c 0
 391 525 316 502 250 493 c 1
197 275 m 0
 123 275 100 326 108 391 c 1
 140 391 l 1
 136 345 145 308 200 306 c 0
 251 304 308 345 323 393 c 0
 342 452 296 473 247 483 c 1
 254 504 l 1
 320 495 379 465 355 388 c 0
 335 323 264 275 197 275 c 0
591 322 m 0
 609 377 672 426 730 425 c 0
 787 424 819 373 803 320 c 0
 786 264 723 216 664 217 c 0
 606 218 574 268 591 322 c 0
621 318 m 0
 609 283 625 242 665 239 c 0
 706 236 758 280 771 318 c 0
 783 354 767 393 726 396 c 0
 684 399 634 357 621 318 c 0
507 114 m 0
 527 176 597 230 663 229 c 0
 728 229 763 173 745 112 c 0
 726 49 655 -6 588 -5 c 0
 522 -4 488 53 507 114 c 0
539 116 m 0
 523 73 541 26 592 24 c 0
 644 22 699 68 715 116 c 0
 729 158 710 205 662 207 c 0
 612 209 555 161 539 116 c 0
EndSplineSet
EndChar

StartChar: fiveeighths
Encoding: 8541 8541 166
Width: 829
VWidth: 0
Flags: HMW
LayerCount: 2
Fore
SplineSet
852 698 m 1
 896 697 l 1
 149 0 l 1
 105 0 l 1
 852 698 l 1
384 415 m 0
 360 339 285 273 203 273 c 0
 144 273 115 309 98 361 c 1
 129 379 l 1
 141 338 160 305 207 304 c 0
 271 303 331 358 350 416 c 0
 367 465 352 517 295 522 c 0
 249 526 205 499 168 477 c 1
 197 505 l 1
 226 531 271 553 311 552 c 0
 386 550 404 476 384 415 c 0
314 668 m 1
 221 513 l 1
 160 470 l 1
 296 697 l 1
 483 697 l 1
 474 669 l 1
 314 668 l 1
624 322 m 0
 642 377 705 426 763 425 c 0
 820 424 852 373 836 320 c 0
 819 264 756 216 697 217 c 0
 639 218 607 268 624 322 c 0
654 318 m 0
 642 283 658 242 698 239 c 0
 739 236 791 280 804 318 c 0
 816 354 800 393 759 396 c 0
 717 399 667 357 654 318 c 0
540 114 m 0
 560 176 629 230 695 229 c 0
 760 229 796 173 778 112 c 0
 759 49 688 -6 621 -5 c 0
 555 -4 521 53 540 114 c 0
572 116 m 0
 556 73 574 26 625 24 c 0
 677 22 732 68 748 116 c 0
 762 158 743 205 695 207 c 0
 645 209 588 161 572 116 c 0
EndSplineSet
EndChar

StartChar: seveneighths
Encoding: 8542 8542 167
Width: 726
VWidth: 0
Flags: HMW
LayerCount: 2
Fore
SplineSet
748 698 m 1
 792 697 l 1
 45 0 l 1
 1 0 l 1
 748 698 l 1
204 669 m 1
 213 699 l 1
 490 699 l 1
 148 282 l 1
 113 282 l 1
 427 668 l 1
 204 669 l 1
521 322 m 0
 539 377 602 426 660 425 c 0
 717 424 748 373 732 320 c 0
 715 264 653 216 594 217 c 0
 536 218 504 268 521 322 c 0
550 318 m 0
 538 283 555 242 595 239 c 0
 636 236 688 280 701 318 c 0
 713 354 696 393 655 396 c 0
 613 399 563 357 550 318 c 0
437 114 m 0
 457 176 526 230 592 229 c 0
 657 229 692 173 674 112 c 0
 655 49 585 -6 518 -5 c 0
 452 -4 418 53 437 114 c 0
468 116 m 0
 452 73 470 26 521 24 c 0
 573 22 629 68 645 116 c 0
 659 158 640 205 592 207 c 0
 542 209 484 161 468 116 c 0
EndSplineSet
EndChar

StartChar: uni2074
Encoding: 8308 8308 168
Width: 357
VWidth: 0
Flags: HMW
LayerCount: 2
Fore
SplineSet
100 365 m 1
 133 392 l 1
 318 393 l 1
 325 393 l 1
 403 393 l 1
 393 365 l 1
 100 365 l 1
135 366 m 1
 99 367 l 1
 431 698 l 1
 446 699 l 1
 302 281 l 1
 269 281 l 1
 303 378 l 1
 304 382 l 1
 386 616 l 1
 135 366 l 1
EndSplineSet
EndChar

StartChar: uni2075
Encoding: 8309 8309 169
Width: 328
VWidth: 0
Flags: HMW
LayerCount: 2
Fore
SplineSet
384 415 m 0
 360 339 285 273 203 273 c 0
 144 273 115 309 98 361 c 1
 129 379 l 1
 141 338 160 305 207 304 c 0
 271 303 331 358 350 416 c 0
 367 465 352 517 295 522 c 0
 249 526 205 499 168 477 c 1
 197 505 l 1
 226 531 271 553 311 552 c 0
 386 550 404 476 384 415 c 0
314 668 m 1
 221 513 l 1
 160 470 l 1
 296 697 l 1
 483 697 l 1
 474 669 l 1
 314 668 l 1
EndSplineSet
EndChar

StartChar: uni2076
Encoding: 8310 8310 170
Width: 319
VWidth: 0
Flags: HMW
LayerCount: 2
Fore
SplineSet
152 414 m 0
 135 364 150 305 211 303 c 0
 273 301 334 359 353 414 c 0
 369 462 354 519 296 522 c 0
 235 525 171 469 152 414 c 0
376 696 m 1
 418 695 l 1
 225 513 l 1
 221 517 l 1
 248 532 277 548 309 547 c 0
 380 545 401 472 383 413 c 0
 360 340 286 272 207 273 c 0
 128 274 98 345 121 414 c 0
 132 448 155 478 179 504 c 1
 376 696 l 1
EndSplineSet
EndChar

StartChar: uni2077
Encoding: 8311 8311 171
Width: 332
VWidth: 0
Flags: HMW
LayerCount: 2
Fore
SplineSet
204 669 m 1
 213 699 l 1
 490 699 l 1
 148 282 l 1
 113 282 l 1
 427 668 l 1
 204 669 l 1
EndSplineSet
EndChar

StartChar: uni2078
Encoding: 8312 8312 172
Width: 294
VWidth: 0
Flags: HMW
LayerCount: 2
Fore
SplineSet
193 602 m 0
 211 657 274 706 332 705 c 0
 389 704 420 653 404 600 c 0
 387 544 325 496 266 497 c 0
 208 498 176 548 193 602 c 0
222 598 m 0
 210 563 227 522 267 519 c 0
 308 516 360 560 373 598 c 0
 385 634 368 673 327 676 c 0
 285 679 235 637 222 598 c 0
109 394 m 0
 129 456 198 510 264 509 c 0
 329 509 365 453 347 392 c 0
 328 329 257 274 190 275 c 0
 124 276 90 333 109 394 c 0
141 396 m 0
 125 353 142 306 193 304 c 0
 245 302 301 348 317 396 c 0
 331 438 312 485 264 487 c 0
 214 489 157 441 141 396 c 0
EndSplineSet
EndChar

StartChar: uni2079
Encoding: 8313 8313 173
Width: 319
VWidth: 0
Flags: HMW
LayerCount: 2
Fore
SplineSet
405 566 m 0
 422 616 407 675 346 677 c 0
 284 679 223 621 204 566 c 0
 188 518 203 461 261 458 c 0
 322 455 386 511 405 566 c 0
181 284 m 1
 139 285 l 1
 331 467 l 1
 335 463 l 1
 308 448 280 432 248 433 c 0
 177 435 155 508 173 567 c 0
 196 640 271 708 349 707 c 0
 428 706 459 635 436 566 c 0
 425 532 401 502 377 476 c 1
 181 284 l 1
EndSplineSet
EndChar

StartChar: uni2070
Encoding: 8304 8304 174
Width: 331
VWidth: 0
Flags: HMW
LayerCount: 2
Fore
SplineSet
175 490 m 0
 157 438 125 309 214 306 c 0
 303 303 362 420 387 490 c 0
 405 542 437 671 348 674 c 0
 259 677 200 560 175 490 c 0
141 490 m 0
 170 577 244 706 351 705 c 0
 461 704 443 561 420 490 c 0
 391 403 318 274 211 275 c 0
 101 276 118 419 141 490 c 0
EndSplineSet
EndChar

StartChar: uni2080
Encoding: 8320 8320 175
Width: 335
VWidth: 0
Flags: HMW
LayerCount: 2
Fore
SplineSet
79 210 m 0
 61 158 29 29 118 26 c 0
 207 23 266 140 291 210 c 0
 309 262 342 391 253 394 c 0
 164 397 104 280 79 210 c 0
46 210 m 0
 75 297 148 426 255 425 c 0
 365 424 347 281 324 210 c 0
 295 123 222 -6 115 -5 c 0
 5 -4 23 139 46 210 c 0
EndSplineSet
EndChar

StartChar: uni2084
Encoding: 8324 8324 176
Width: 357
VWidth: 0
Flags: HMW
LayerCount: 2
Fore
SplineSet
4 85 m 1
 37 112 l 1
 223 113 l 1
 230 113 l 1
 307 113 l 1
 297 85 l 1
 4 85 l 1
39 86 m 1
 4 87 l 1
 336 418 l 1
 351 419 l 1
 206 0 l 1
 174 0 l 1
 207 98 l 1
 209 102 l 1
 291 336 l 1
 39 86 l 1
EndSplineSet
EndChar

StartChar: uni2085
Encoding: 8325 8325 177
Width: 328
VWidth: 0
Flags: HMW
LayerCount: 2
Fore
SplineSet
289 135 m 0
 265 59 190 -7 108 -7 c 0
 49 -7 19 29 2 81 c 1
 33 99 l 1
 45 58 64 25 111 24 c 0
 175 23 236 78 255 136 c 0
 272 185 256 237 199 242 c 0
 153 246 109 219 72 197 c 1
 102 225 l 1
 131 251 175 273 215 272 c 0
 290 270 309 196 289 135 c 0
218 388 m 1
 125 233 l 1
 65 190 l 1
 200 417 l 1
 388 417 l 1
 378 389 l 1
 218 388 l 1
EndSplineSet
EndChar

StartChar: uni2086
Encoding: 8326 8326 178
Width: 319
VWidth: 0
Flags: HMW
LayerCount: 2
Fore
SplineSet
56 134 m 0
 39 84 53 25 114 23 c 0
 176 21 237 79 256 134 c 0
 272 182 257 239 199 242 c 0
 138 245 75 189 56 134 c 0
280 416 m 1
 323 415 l 1
 129 233 l 1
 125 237 l 1
 152 252 180 268 212 267 c 0
 283 265 305 192 287 133 c 0
 264 60 190 -8 111 -7 c 0
 32 -6 2 65 25 134 c 0
 36 168 59 198 83 224 c 1
 280 416 l 1
EndSplineSet
EndChar

StartChar: uni2087
Encoding: 8327 8327 179
Width: 332
VWidth: 0
Flags: HMW
LayerCount: 2
Fore
SplineSet
108 389 m 1
 118 419 l 1
 395 419 l 1
 52 0 l 1
 17 0 l 1
 331 388 l 1
 108 389 l 1
EndSplineSet
EndChar

StartChar: uni2088
Encoding: 8328 8328 180
Width: 294
VWidth: 0
Flags: HMW
LayerCount: 2
Fore
SplineSet
97 322 m 0
 115 377 178 426 236 425 c 0
 293 424 325 373 309 320 c 0
 292 264 229 216 170 217 c 0
 112 218 80 268 97 322 c 0
127 318 m 0
 115 283 131 242 171 239 c 0
 212 236 264 280 277 318 c 0
 289 354 273 393 232 396 c 0
 190 399 140 357 127 318 c 0
13 114 m 0
 33 176 103 230 169 229 c 0
 234 229 269 173 251 112 c 0
 232 49 161 -6 94 -5 c 0
 28 -4 -6 53 13 114 c 0
45 116 m 0
 29 73 47 26 98 24 c 0
 150 22 206 68 222 116 c 0
 236 158 216 205 168 207 c 0
 118 209 61 161 45 116 c 0
EndSplineSet
EndChar

StartChar: uni2089
Encoding: 8329 8329 181
Width: 319
VWidth: 0
Flags: HMW
LayerCount: 2
Fore
SplineSet
299 286 m 0
 316 336 302 395 241 397 c 0
 179 399 117 341 98 286 c 0
 82 238 98 181 156 178 c 0
 217 175 280 231 299 286 c 0
76 4 m 1
 33 5 l 1
 226 187 l 1
 230 183 l 1
 203 168 175 152 143 153 c 0
 72 155 50 228 68 287 c 0
 91 360 166 428 244 427 c 0
 323 426 353 355 330 286 c 0
 319 252 297 222 273 196 c 1
 76 4 l 1
EndSplineSet
EndChar

StartChar: uni2081
Encoding: 8321 8321 182
Width: 285
VWidth: 0
Flags: HMW
LayerCount: 2
Fore
SplineSet
156 362 m 1
 166 395 l 1
 303 426 l 1
 155 2 l 1
 123 2 l 1
 253 384 l 1
 156 362 l 1
EndSplineSet
EndChar

StartChar: uni2082
Encoding: 8322 8322 183
Width: 319
VWidth: 0
Flags: HMW
LayerCount: 2
Fore
SplineSet
-28 4 m 1
 224 210 l 2
 256 236 294 268 308 309 c 0
 322 350 306 394 258 397 c 0
 190 402 145 332 118 280 c 1
 85 280 l 1
 118 350 173 430 261 428 c 0
 329 427 358 366 339 306 c 0
 324 259 285 222 248 191 c 2
 51 34 l 1
 252 33 l 1
 242 3 l 1
 -28 4 l 1
EndSplineSet
EndChar

StartChar: uni2083
Encoding: 8323 8323 184
Width: 295
VWidth: 0
Flags: HMW
LayerCount: 2
Fore
SplineSet
149 213 m 1
 156 233 l 1
 206 243 263 263 282 316 c 0
 296 354 279 392 237 395 c 0
 187 398 151 355 126 318 c 1
 95 319 l 1
 125 374 171 427 240 425 c 0
 300 423 333 370 314 315 c 0
 291 245 215 222 149 213 c 1
96 -5 m 0
 22 -5 0 46 8 111 c 1
 40 111 l 1
 36 65 45 28 100 26 c 0
 151 24 208 65 223 113 c 0
 242 172 195 193 146 203 c 1
 154 224 l 1
 220 215 278 185 254 108 c 0
 234 43 163 -5 96 -5 c 0
EndSplineSet
EndChar

StartChar: Agrave
Encoding: 192 192 185
Width: 597
VWidth: 0
Flags: HMW
LayerCount: 2
Fore
SplineSet
157 236 m 1
 190 286 l 1
 497 287 l 1
 497 235 l 1
 157 236 l 1
454 600 m 1
 211 269 l 1
 202 257 l 1
 13 0 l 1
 -50 0 l 1
 493 729 l 1
 535 0 l 1
 477 0 l 1
 467 253 l 1
 467 266 l 1
 454 600 l 1
440 941 m 1
 494 967 l 1
 591 806 l 1
 559 787 l 1
 440 941 l 1
EndSplineSet
EndChar

StartChar: Aacute
Encoding: 193 193 186
Width: 597
VWidth: 0
Flags: HMW
LayerCount: 2
Fore
SplineSet
157 236 m 1
 190 286 l 1
 497 287 l 1
 497 235 l 1
 157 236 l 1
454 600 m 1
 211 269 l 1
 202 257 l 1
 13 0 l 1
 -50 0 l 1
 493 729 l 1
 535 0 l 1
 477 0 l 1
 467 253 l 1
 467 266 l 1
 454 600 l 1
692 936 m 1
 473 789 l 1
 450 810 l 1
 652 966 l 1
 692 936 l 1
EndSplineSet
EndChar

StartChar: Acircumflex
Encoding: 194 194 187
Width: 597
VWidth: 0
Flags: HMW
LayerCount: 2
Fore
SplineSet
157 236 m 1
 190 286 l 1
 497 287 l 1
 497 235 l 1
 157 236 l 1
454 600 m 1
 211 269 l 1
 202 257 l 1
 13 0 l 1
 -50 0 l 1
 493 729 l 1
 535 0 l 1
 477 0 l 1
 467 253 l 1
 467 266 l 1
 454 600 l 1
547 873 m 1
 388 764 l 1
 362 792 l 1
 560 929 l 1
 666 789 l 1
 628 764 l 1
 547 873 l 1
EndSplineSet
EndChar

StartChar: Atilde
Encoding: 195 195 188
Width: 597
VWidth: 0
Flags: HMW
LayerCount: 2
Fore
SplineSet
157 236 m 1
 190 286 l 1
 497 287 l 1
 497 235 l 1
 157 236 l 1
454 600 m 1
 211 269 l 1
 202 257 l 1
 13 0 l 1
 -50 0 l 1
 493 729 l 1
 535 0 l 1
 477 0 l 1
 467 253 l 1
 467 266 l 1
 454 600 l 1
378 808 m 1
 403 840 437 879 483 877 c 0
 526 876 544 829 583 832 c 0
 611 834 635 860 654 878 c 1
 678 850 l 1
 652 823 615 786 573 788 c 0
 531 790 514 835 475 833 c 0
 444 831 424 806 407 784 c 1
 378 808 l 1
EndSplineSet
EndChar

StartChar: Adieresis
Encoding: 196 196 189
Width: 597
VWidth: 0
Flags: HMW
LayerCount: 2
Fore
SplineSet
157 236 m 1
 190 286 l 1
 497 287 l 1
 497 235 l 1
 157 236 l 1
454 600 m 1
 211 269 l 1
 202 257 l 1
 13 0 l 1
 -50 0 l 1
 493 729 l 1
 535 0 l 1
 477 0 l 1
 467 253 l 1
 467 266 l 1
 454 600 l 1
588 834 m 0
 592 850 618 871 635 869 c 0
 653 867 663 849 659 831 c 0
 655 815 629 794 612 796 c 0
 594 798 584 816 588 834 c 0
399 834 m 0
 403 850 429 871 446 869 c 0
 464 867 475 849 471 831 c 0
 467 815 441 794 424 796 c 0
 406 798 395 816 399 834 c 0
EndSplineSet
EndChar

StartChar: Aring
Encoding: 197 197 190
Width: 597
VWidth: 0
Flags: HMW
LayerCount: 2
Fore
SplineSet
157 236 m 1
 190 286 l 1
 497 287 l 1
 497 235 l 1
 157 236 l 1
454 600 m 1
 211 269 l 1
 202 257 l 1
 13 0 l 1
 -50 0 l 1
 493 729 l 1
 535 0 l 1
 477 0 l 1
 467 253 l 1
 467 266 l 1
 454 600 l 1
421 804 m 0
 437 854 497 902 551 901 c 0
 605 900 631 849 616 800 c 0
 600 750 541 702 487 703 c 0
 433 704 406 755 421 804 c 0
455 801 m 0
 446 772 460 738 493 735 c 0
 527 732 573 772 583 803 c 0
 592 832 577 866 544 869 c 0
 510 872 465 832 455 801 c 0
EndSplineSet
EndChar

StartChar: AE
Encoding: 198 198 191
Width: 879
VWidth: 0
Flags: HMW
LayerCount: 2
Fore
SplineSet
228 239 m 1
 245 290 l 1
 526 290 l 1
 508 238 l 1
 228 239 l 1
615 700 m 1
 650 672 l 1
 11 0 l 1
 -50 0 l 1
 615 700 l 1
436 0 m 1
 454 52 l 1
 775 52 l 1
 757 0 l 1
 436 0 l 1
667 648 m 1
 615 700 l 1
 996 700 l 1
 978 648 l 1
 667 648 l 1
558 358 m 1
 576 410 l 1
 878 410 l 1
 861 358 l 1
 558 358 l 1
645 699 m 1
 701 700 l 1
 459 0 l 1
 406 0 l 1
 645 699 l 1
EndSplineSet
EndChar

StartChar: Ccedilla
Encoding: 199 199 192
Width: 644
VWidth: 0
Flags: HMW
LayerCount: 2
Fore
SplineSet
163 350 m 0
 116 216 155 51 321 48 c 0
 413 46 496 90 569 141 c 1
 546 68 l 1
 474 22 396 -10 310 -9 c 0
 113 -7 50 185 105 350 c 0
 166 535 344 707 547 709 c 0
 623 710 684 685 737 631 c 1
 713 558 l 1
 672 622 612 653 536 653 c 0
 365 652 217 503 163 350 c 0
311 33 m 1
 353 33 l 1
 260 -62 l 1
 270 -58 282 -52 293 -53 c 0
 331 -59 350 -92 340 -129 c 0
 326 -181 262 -220 210 -220 c 0
 177 -220 157 -203 135 -181 c 1
 163 -157 l 1
 178 -171 193 -184 216 -184 c 0
 248 -184 294 -158 303 -126 c 0
 310 -101 294 -82 270 -80 c 0
 246 -77 219 -90 197 -99 c 1
 311 33 l 1
EndSplineSet
EndChar

StartChar: Egrave
Encoding: 200 200 193
Width: 501
VWidth: 0
Flags: HMW
LayerCount: 2
Fore
SplineSet
52 0 m 1
 69 52 l 1
 398 52 l 1
 381 0 l 1
 52 0 l 1
274 649 m 1
 291 700 l 1
 619 700 l 1
 602 648 l 1
 274 649 l 1
174 358 m 1
 192 410 l 1
 501 410 l 1
 484 358 l 1
 174 358 l 1
262 699 m 1
 318 700 l 1
 77 0 l 1
 25 0 l 1
 262 699 l 1
383 923 m 1
 436 949 l 1
 534 788 l 1
 503 770 l 1
 383 923 l 1
EndSplineSet
EndChar

StartChar: Eacute
Encoding: 201 201 194
Width: 501
VWidth: 0
Flags: HMW
LayerCount: 2
Fore
SplineSet
52 0 m 1
 69 52 l 1
 398 52 l 1
 381 0 l 1
 52 0 l 1
274 649 m 1
 291 700 l 1
 619 700 l 1
 602 648 l 1
 274 649 l 1
174 358 m 1
 192 410 l 1
 501 410 l 1
 484 358 l 1
 174 358 l 1
262 699 m 1
 318 700 l 1
 77 0 l 1
 25 0 l 1
 262 699 l 1
650 918 m 1
 431 771 l 1
 407 792 l 1
 611 948 l 1
 650 918 l 1
EndSplineSet
EndChar

StartChar: Ecircumflex
Encoding: 202 202 195
Width: 501
VWidth: 0
Flags: HMW
LayerCount: 2
Fore
SplineSet
52 0 m 1
 69 52 l 1
 398 52 l 1
 381 0 l 1
 52 0 l 1
274 649 m 1
 291 700 l 1
 619 700 l 1
 602 648 l 1
 274 649 l 1
174 358 m 1
 192 410 l 1
 501 410 l 1
 484 358 l 1
 174 358 l 1
262 699 m 1
 318 700 l 1
 77 0 l 1
 25 0 l 1
 262 699 l 1
511 879 m 1
 352 771 l 1
 327 799 l 1
 524 936 l 1
 631 795 l 1
 593 770 l 1
 511 879 l 1
EndSplineSet
EndChar

StartChar: Edieresis
Encoding: 203 203 196
Width: 501
VWidth: 0
Flags: HMW
LayerCount: 2
Fore
SplineSet
52 0 m 1
 69 52 l 1
 398 52 l 1
 381 0 l 1
 52 0 l 1
274 649 m 1
 291 700 l 1
 619 700 l 1
 602 648 l 1
 274 649 l 1
174 358 m 1
 192 410 l 1
 501 410 l 1
 484 358 l 1
 174 358 l 1
262 699 m 1
 318 700 l 1
 77 0 l 1
 25 0 l 1
 262 699 l 1
548 828 m 0
 552 844 578 865 595 863 c 0
 613 861 624 843 620 825 c 0
 616 809 590 788 573 790 c 0
 555 792 544 810 548 828 c 0
359 828 m 0
 363 844 389 865 406 863 c 0
 424 861 436 843 432 825 c 0
 428 809 402 788 385 790 c 0
 367 792 355 810 359 828 c 0
EndSplineSet
EndChar

StartChar: Igrave
Encoding: 204 204 197
Width: 205
VWidth: 0
Flags: HMW
LayerCount: 2
Fore
SplineSet
261 699 m 1
 316 700 l 1
 74 0 l 1
 23 0 l 1
 261 699 l 1
230 923 m 1
 284 949 l 1
 381 788 l 1
 349 770 l 1
 230 923 l 1
EndSplineSet
EndChar

StartChar: Iacute
Encoding: 205 205 198
Width: 205
VWidth: 0
Flags: HMW
LayerCount: 2
Fore
SplineSet
261 699 m 1
 316 700 l 1
 74 0 l 1
 23 0 l 1
 261 699 l 1
496 918 m 1
 278 771 l 1
 255 792 l 1
 458 948 l 1
 496 918 l 1
EndSplineSet
EndChar

StartChar: Icircumflex
Encoding: 206 206 199
Width: 205
VWidth: 0
Flags: HMW
LayerCount: 2
Fore
SplineSet
261 699 m 1
 316 700 l 1
 74 0 l 1
 23 0 l 1
 261 699 l 1
353 879 m 1
 193 771 l 1
 168 799 l 1
 365 936 l 1
 472 795 l 1
 434 770 l 1
 353 879 l 1
EndSplineSet
EndChar

StartChar: Idieresis
Encoding: 207 207 200
Width: 205
VWidth: 0
Flags: HMW
LayerCount: 2
Fore
SplineSet
261 699 m 1
 316 700 l 1
 74 0 l 1
 23 0 l 1
 261 699 l 1
374 816 m 0
 378 831 404 853 421 851 c 0
 439 849 450 831 446 813 c 0
 442 797 415 776 398 778 c 0
 379 780 370 799 374 816 c 0
208 816 m 0
 212 831 238 853 255 851 c 0
 273 849 284 831 280 813 c 0
 276 797 250 776 233 778 c 0
 214 780 204 799 208 816 c 0
EndSplineSet
EndChar

StartChar: Ntilde
Encoding: 209 209 201
Width: 687
VWidth: 0
Flags: HMW
LayerCount: 2
Fore
SplineSet
749 700 m 1
 803 700 l 1
 553 -26 l 1
 264 584 l 1
 62 0 l 1
 7 0 l 1
 257 726 l 1
 547 114 l 1
 749 700 l 1
408 780 m 1
 433 812 467 851 513 849 c 0
 552 848 575 801 614 804 c 0
 642 806 665 832 684 850 c 1
 708 822 l 1
 682 795 645 758 603 760 c 0
 565 762 544 806 505 805 c 0
 474 804 454 778 437 756 c 1
 408 780 l 1
EndSplineSet
EndChar

StartChar: Eth
Encoding: 208 208 202
Width: 639
VWidth: 0
Flags: HMW
LayerCount: 2
Fore
SplineSet
61 325 m 1
 78 373 l 1
 362 373 l 1
 346 324 l 1
 61 325 l 1
262 699 m 1
 318 700 l 1
 77 0 l 1
 25 0 l 1
 262 699 l 1
208 0 m 0
 52 0 l 1
 71 55 l 1
 219 55 l 0
 392 61 538 190 594 350 c 0
 645 493 594 638 427 645 c 0
 272 645 l 1
 291 700 l 1
 438 700 l 0
 635 693 705 522 648 350 c 0
 586 161 412 6 208 0 c 0
EndSplineSet
EndChar

StartChar: Ograve
Encoding: 210 210 203
Width: 737
VWidth: 0
Flags: HMW
LayerCount: 2
Fore
SplineSet
163 350 m 0
 115 213 157 49 326 47 c 0
 499 45 651 196 705 350 c 0
 753 487 711 651 542 653 c 0
 369 655 217 504 163 350 c 0
105 350 m 0
 166 536 348 710 552 709 c 0
 751 708 818 517 763 350 c 0
 702 164 520 -10 316 -9 c 0
 117 -8 50 183 105 350 c 0
509 923 m 1
 563 949 l 1
 661 788 l 1
 628 770 l 1
 509 923 l 1
EndSplineSet
EndChar

StartChar: Oacute
Encoding: 211 211 204
Width: 737
VWidth: 0
Flags: HMW
LayerCount: 2
Fore
SplineSet
163 350 m 0
 115 213 157 49 326 47 c 0
 499 45 651 196 705 350 c 0
 753 487 711 651 542 653 c 0
 369 655 217 504 163 350 c 0
105 350 m 0
 166 536 348 710 552 709 c 0
 751 708 818 517 763 350 c 0
 702 164 520 -10 316 -9 c 0
 117 -8 50 183 105 350 c 0
749 918 m 1
 532 771 l 1
 507 792 l 1
 709 948 l 1
 749 918 l 1
EndSplineSet
EndChar

StartChar: Ocircumflex
Encoding: 212 212 205
Width: 737
VWidth: 0
Flags: HMW
LayerCount: 2
Fore
SplineSet
163 350 m 0
 115 213 157 49 326 47 c 0
 499 45 651 196 705 350 c 0
 753 487 711 651 542 653 c 0
 369 655 217 504 163 350 c 0
105 350 m 0
 166 536 348 710 552 709 c 0
 751 708 818 517 763 350 c 0
 702 164 520 -10 316 -9 c 0
 117 -8 50 183 105 350 c 0
618 879 m 1
 459 771 l 1
 434 799 l 1
 632 936 l 1
 738 795 l 1
 700 770 l 1
 618 879 l 1
EndSplineSet
EndChar

StartChar: Otilde
Encoding: 213 213 206
Width: 737
VWidth: 0
Flags: HMW
LayerCount: 2
Fore
SplineSet
163 350 m 0
 115 213 157 49 326 47 c 0
 499 45 651 196 705 350 c 0
 753 487 711 651 542 653 c 0
 369 655 217 504 163 350 c 0
105 350 m 0
 166 536 348 710 552 709 c 0
 751 708 818 517 763 350 c 0
 702 164 520 -10 316 -9 c 0
 117 -8 50 183 105 350 c 0
446 802 m 1
 448 836 518 872 550 871 c 0
 589 870 611 823 651 826 c 0
 679 828 703 854 722 872 c 1
 745 844 l 1
 719 817 683 780 641 782 c 0
 603 784 582 828 543 827 c 0
 511 826 491 800 474 778 c 1
 446 802 l 1
EndSplineSet
EndChar

StartChar: Odieresis
Encoding: 214 214 207
Width: 737
VWidth: 0
Flags: HMW
LayerCount: 2
Fore
SplineSet
163 350 m 0
 115 213 157 49 326 47 c 0
 499 45 651 196 705 350 c 0
 753 487 711 651 542 653 c 0
 369 655 217 504 163 350 c 0
105 350 m 0
 166 536 348 710 552 709 c 0
 751 708 818 517 763 350 c 0
 702 164 520 -10 316 -9 c 0
 117 -8 50 183 105 350 c 0
656 820 m 0
 660 836 686 857 703 855 c 0
 721 853 732 835 728 817 c 0
 724 801 698 780 681 782 c 0
 663 784 652 802 656 820 c 0
460 820 m 0
 464 836 490 857 507 855 c 0
 525 853 536 835 532 817 c 0
 528 801 502 780 485 782 c 0
 467 784 456 802 460 820 c 0
EndSplineSet
EndChar

StartChar: Ugrave
Encoding: 217 217 208
Width: 569
VWidth: 0
Flags: HMW
LayerCount: 2
Fore
SplineSet
259 700 m 1
 313 700 l 1
 149 226 l 2
 123 143 135 45 242 43 c 0
 350 41 429 133 465 226 c 1
 629 700 l 1
 683 700 l 1
 521 226 l 2
 477 104 371 -9 232 -9 c 0
 96 -9 63 113 97 226 c 1
 259 700 l 1
420 923 m 1
 473 949 l 1
 571 788 l 1
 539 770 l 1
 420 923 l 1
EndSplineSet
EndChar

StartChar: Uacute
Encoding: 218 218 209
Width: 569
VWidth: 0
Flags: HMW
LayerCount: 2
Fore
SplineSet
259 700 m 1
 313 700 l 1
 149 226 l 2
 123 143 135 45 242 43 c 0
 350 41 429 133 465 226 c 1
 629 700 l 1
 683 700 l 1
 521 226 l 2
 477 104 371 -9 232 -9 c 0
 96 -9 63 113 97 226 c 1
 259 700 l 1
672 918 m 1
 453 771 l 1
 429 792 l 1
 632 948 l 1
 672 918 l 1
EndSplineSet
EndChar

StartChar: Ucircumflex
Encoding: 219 219 210
Width: 569
VWidth: 0
Flags: HMW
LayerCount: 2
Fore
SplineSet
259 700 m 1
 313 700 l 1
 149 226 l 2
 123 143 135 45 242 43 c 0
 350 41 429 133 465 226 c 1
 629 700 l 1
 683 700 l 1
 521 226 l 2
 477 104 371 -9 232 -9 c 0
 96 -9 63 113 97 226 c 1
 259 700 l 1
535 879 m 1
 375 771 l 1
 351 799 l 1
 548 936 l 1
 655 795 l 1
 616 770 l 1
 535 879 l 1
EndSplineSet
EndChar

StartChar: Udieresis
Encoding: 220 220 211
Width: 569
VWidth: 0
Flags: HMW
LayerCount: 2
Fore
SplineSet
259 700 m 1
 313 700 l 1
 149 226 l 2
 123 143 135 45 242 43 c 0
 350 41 429 133 465 226 c 1
 629 700 l 1
 683 700 l 1
 521 226 l 2
 477 104 371 -9 232 -9 c 0
 96 -9 63 113 97 226 c 1
 259 700 l 1
561 808 m 0
 565 824 591 845 608 843 c 0
 626 841 637 823 633 805 c 0
 629 789 603 768 586 770 c 0
 568 772 557 790 561 808 c 0
380 808 m 0
 384 824 410 845 427 843 c 0
 445 841 456 823 452 805 c 0
 448 789 422 768 405 770 c 0
 387 772 376 790 380 808 c 0
EndSplineSet
EndChar

StartChar: Yacute
Encoding: 221 221 212
Width: 507
VWidth: 0
Flags: HMW
LayerCount: 2
Fore
SplineSet
647 918 m 1
 429 771 l 1
 406 792 l 1
 608 948 l 1
 647 918 l 1
623 699 m 1
 687 699 l 1
 322 285 l 1
 224 0 l 1
 169 0 l 1
 271 291 l 1
 194 700 l 1
 251 700 l 1
 311 340 l 1
 623 699 l 1
EndSplineSet
EndChar

StartChar: agrave
Encoding: 224 224 213
Width: 437
VWidth: 0
Flags: HMW
LayerCount: 2
Fore
SplineSet
73 135 m 0
 53 78 88 39 145 38 c 0
 233 36 294 100 334 171 c 1
 335 140 l 1
 294 58 222 -10 125 -9 c 0
 44 -8 -4 52 21 130 c 0
 51 225 154 284 250 283 c 0
 301 283 340 265 374 228 c 1
 363 198 l 1
 329 227 291 243 245 242 c 0
 176 241 97 204 73 135 c 0
167 370 m 1
 154 412 l 1
 208 443 267 470 330 469 c 0
 415 467 457 407 435 326 c 1
 323 0 l 1
 271 0 l 1
 386 326 l 1
 394 378 382 420 321 422 c 0
 266 424 213 396 167 370 c 1
267 692 m 1
 320 718 l 1
 418 557 l 1
 385 538 l 1
 267 692 l 1
EndSplineSet
Substitution2: "alt a" agrave.alt
EndChar

StartChar: aacute
Encoding: 225 225 214
Width: 437
VWidth: 0
Flags: HMW
LayerCount: 2
Fore
SplineSet
73 135 m 0
 53 78 88 39 145 38 c 0
 233 36 294 100 334 171 c 1
 335 140 l 1
 294 58 222 -10 125 -9 c 0
 44 -8 -4 52 21 130 c 0
 51 225 154 284 250 283 c 0
 301 283 340 265 374 228 c 1
 363 198 l 1
 329 227 291 243 245 242 c 0
 176 241 97 204 73 135 c 0
167 370 m 1
 154 412 l 1
 208 443 267 470 330 469 c 0
 415 467 457 407 435 326 c 1
 323 0 l 1
 271 0 l 1
 386 326 l 1
 394 378 382 420 321 422 c 0
 266 424 213 396 167 370 c 1
544 687 m 1
 327 540 l 1
 302 561 l 1
 505 717 l 1
 544 687 l 1
EndSplineSet
Substitution2: "alt a" aacute.alt
EndChar

StartChar: acircumflex
Encoding: 226 226 215
Width: 437
VWidth: 0
Flags: HMW
LayerCount: 2
Fore
SplineSet
73 135 m 0
 53 78 88 39 145 38 c 0
 233 36 294 100 334 171 c 1
 335 140 l 1
 294 58 222 -10 125 -9 c 0
 44 -8 -4 52 21 130 c 0
 51 225 154 284 250 283 c 0
 301 283 340 265 374 228 c 1
 363 198 l 1
 329 227 291 243 245 242 c 0
 176 241 97 204 73 135 c 0
167 370 m 1
 154 412 l 1
 208 443 267 470 330 469 c 0
 415 467 457 407 435 326 c 1
 323 0 l 1
 271 0 l 1
 386 326 l 1
 394 378 382 420 321 422 c 0
 266 424 213 396 167 370 c 1
398 644 m 1
 238 535 l 1
 213 563 l 1
 410 700 l 1
 517 560 l 1
 479 535 l 1
 398 644 l 1
EndSplineSet
Substitution2: "alt a" acircumflex.alt
EndChar

StartChar: atilde
Encoding: 227 227 216
Width: 437
VWidth: 0
Flags: HMW
LayerCount: 2
Fore
SplineSet
73 135 m 0
 53 78 88 39 145 38 c 0
 233 36 294 100 334 171 c 1
 335 140 l 1
 294 58 222 -10 125 -9 c 0
 44 -8 -4 52 21 130 c 0
 51 225 154 284 250 283 c 0
 301 283 340 265 374 228 c 1
 363 198 l 1
 329 227 291 243 245 242 c 0
 176 241 97 204 73 135 c 0
167 370 m 1
 154 412 l 1
 208 443 267 470 330 469 c 0
 415 467 457 407 435 326 c 1
 323 0 l 1
 271 0 l 1
 386 326 l 1
 394 378 382 420 321 422 c 0
 266 424 213 396 167 370 c 1
224 575 m 1
 249 607 282 646 328 644 c 0
 367 643 390 596 429 599 c 0
 457 601 481 627 500 645 c 1
 523 617 l 1
 497 590 460 553 418 555 c 0
 380 557 360 601 321 600 c 0
 289 599 269 573 252 551 c 1
 224 575 l 1
EndSplineSet
Substitution2: "alt a" atilde.alt
EndChar

StartChar: adieresis
Encoding: 228 228 217
Width: 437
VWidth: 0
Flags: HMW
LayerCount: 2
Fore
SplineSet
73 135 m 0
 53 78 88 39 145 38 c 0
 233 36 294 100 334 171 c 1
 335 140 l 1
 294 58 222 -10 125 -9 c 0
 44 -8 -4 52 21 130 c 0
 51 225 154 284 250 283 c 0
 301 283 340 265 374 228 c 1
 363 198 l 1
 329 227 291 243 245 242 c 0
 176 241 97 204 73 135 c 0
167 370 m 1
 154 412 l 1
 208 443 267 470 330 469 c 0
 415 467 457 407 435 326 c 1
 323 0 l 1
 271 0 l 1
 386 326 l 1
 394 378 382 420 321 422 c 0
 266 424 213 396 167 370 c 1
417 577 m 0
 421 593 447 614 464 612 c 0
 482 610 493 592 489 574 c 0
 485 558 458 537 441 539 c 0
 423 541 413 559 417 577 c 0
244 577 m 0
 248 593 274 614 291 612 c 0
 309 610 319 592 315 574 c 0
 311 558 285 537 268 539 c 0
 250 541 240 559 244 577 c 0
EndSplineSet
Substitution2: "alt a" adieresis.alt
EndChar

StartChar: aring
Encoding: 229 229 218
Width: 437
VWidth: 0
Flags: HMW
LayerCount: 2
Fore
SplineSet
73 135 m 0
 53 78 88 39 145 38 c 0
 233 36 294 100 334 171 c 1
 335 140 l 1
 294 58 222 -10 125 -9 c 0
 44 -8 -4 52 21 130 c 0
 51 225 154 284 250 283 c 0
 301 283 340 265 374 228 c 1
 363 198 l 1
 329 227 291 243 245 242 c 0
 176 241 97 204 73 135 c 0
167 370 m 1
 154 412 l 1
 208 443 267 470 330 469 c 0
 415 467 457 407 435 326 c 1
 323 0 l 1
 271 0 l 1
 386 326 l 1
 394 378 382 420 321 422 c 0
 266 424 213 396 167 370 c 1
291 632 m 0
 307 682 366 730 420 729 c 0
 474 728 501 677 486 628 c 0
 470 578 411 530 357 531 c 0
 303 532 276 583 291 632 c 0
325 629 m 0
 316 600 329 566 362 563 c 0
 396 560 443 600 453 631 c 0
 462 660 447 694 414 697 c 0
 380 700 335 660 325 629 c 0
EndSplineSet
Substitution2: "alt a" aring.alt
EndChar

StartChar: germandbls
Encoding: 223 223 219
Width: 520
VWidth: 0
Flags: HMW
LayerCount: 2
Fore
SplineSet
206 39 m 1
 316 55 416 123 454 231 c 0
 492 340 421 406 319 420 c 1
 330 454 l 1
 458 443 547 358 503 224 c 0
 458 87 329 4 190 -9 c 1
 206 39 l 1
323 434 m 1
 334 469 l 1
 422 478 509 511 542 600 c 0
 569 673 539 739 456 740 c 0
 375 741 304 678 278 606 c 2
 70 0 l 1
 19 0 l 1
 226 607 l 2
 262 706 349 789 464 789 c 0
 573 789 628 707 595 605 c 0
 554 483 441 441 323 434 c 1
EndSplineSet
EndChar

StartChar: ae
Encoding: 230 230 220
Width: 776
VWidth: 0
Flags: HMW
LayerCount: 2
Fore
SplineSet
72 134 m 0
 52 77 88 39 145 38 c 0
 233 36 300 102 333 173 c 1
 354 142 l 1
 317 59 236 -9 137 -9 c 0
 56 -9 -6 45 20 129 c 0
 50 225 154 284 251 283 c 0
 301 283 341 265 374 228 c 1
 363 198 l 1
 329 227 293 243 247 242 c 0
 177 241 96 204 72 134 c 0
168 370 m 1
 154 412 l 1
 207 443 268 471 332 469 c 0
 415 466 445 406 424 330 c 1
 362 144 l 1
 324 145 l 1
 385 320 l 1
 399 371 382 419 323 422 c 0
 268 426 214 396 168 370 c 1
385 218 m 1
 399 261 l 1
 762 262 l 1
 761 217 l 1
 385 218 l 1
720 250 m 2
 746 326 733 420 636 423 c 0
 531 426 451 337 411 250 c 1
 404 232 l 1
 378 151 382 43 490 40 c 0
 566 38 630 85 684 133 c 1
 719 104 l 1
 652 41 571 -12 476 -9 c 0
 350 -5 316 128 357 230 c 0
 364 247 374 263 383 279 c 0
 440 375 529 471 651 469 c 0
 775 467 801 341 771 242 c 0
 769 234 766 226 763 218 c 1
 713 231 l 1
 720 250 l 2
EndSplineSet
EndChar

StartChar: ccedilla
Encoding: 231 231 221
Width: 453
VWidth: 0
Flags: HMW
LayerCount: 2
Fore
SplineSet
106 230 m 0
 75 144 105 42 210 40 c 0
 276 39 336 73 387 112 c 1
 367 48 l 1
 317 15 261 -9 200 -9 c 0
 67 -8 18 116 55 230 c 0
 95 356 220 469 357 469 c 0
 410 469 453 450 489 411 c 1
 469 347 l 1
 445 396 404 421 348 420 c 0
 240 419 141 328 106 230 c 0
202 33 m 1
 243 33 l 1
 151 -63 l 1
 161 -59 173 -53 184 -54 c 0
 222 -60 241 -92 231 -129 c 0
 217 -181 152 -221 100 -221 c 0
 67 -221 47 -204 25 -182 c 1
 54 -158 l 1
 69 -172 84 -185 107 -185 c 0
 139 -185 185 -159 194 -127 c 0
 201 -102 184 -83 160 -81 c 0
 136 -78 110 -91 88 -100 c 1
 202 33 l 1
EndSplineSet
EndChar

StartChar: egrave
Encoding: 232 232 222
Width: 479
VWidth: 0
Flags: HMW
LayerCount: 2
Fore
SplineSet
93 218 m 1
 107 261 l 1
 428 262 l 1
 448 332 435 421 341 423 c 0
 238 425 158 335 123 250 c 1
 116 231 l 1
 91 149 101 43 206 40 c 0
 278 38 340 86 391 133 c 1
 426 104 l 1
 361 42 284 -10 191 -9 c 0
 61 -7 34 126 65 231 c 0
 71 252 80 272 90 291 c 0
 139 384 237 470 348 469 c 0
 476 468 507 346 477 242 c 0
 475 234 472 226 469 218 c 1
 93 218 l 1
273 689 m 1
 326 715 l 1
 426 554 l 1
 395 536 l 1
 273 689 l 1
EndSplineSet
EndChar

StartChar: eacute
Encoding: 233 233 223
Width: 479
VWidth: 0
Flags: HMW
LayerCount: 2
Fore
SplineSet
93 218 m 1
 107 261 l 1
 428 262 l 1
 448 332 435 421 341 423 c 0
 238 425 158 335 123 250 c 1
 116 231 l 1
 91 149 101 43 206 40 c 0
 278 38 340 86 391 133 c 1
 426 104 l 1
 361 42 284 -10 191 -9 c 0
 61 -7 34 126 65 231 c 0
 71 252 80 272 90 291 c 0
 139 384 237 470 348 469 c 0
 476 468 507 346 477 242 c 0
 475 234 472 226 469 218 c 1
 93 218 l 1
578 684 m 1
 362 537 l 1
 338 557 l 1
 538 713 l 1
 578 684 l 1
EndSplineSet
EndChar

StartChar: ecircumflex
Encoding: 234 234 224
Width: 479
VWidth: 0
Flags: HMW
LayerCount: 2
Fore
SplineSet
93 218 m 1
 107 261 l 1
 428 262 l 1
 448 332 435 421 341 423 c 0
 238 425 158 335 123 250 c 1
 116 231 l 1
 91 149 101 43 206 40 c 0
 278 38 340 86 391 133 c 1
 426 104 l 1
 361 42 284 -10 191 -9 c 0
 61 -7 34 126 65 231 c 0
 71 252 80 272 90 291 c 0
 139 384 237 470 348 469 c 0
 476 468 507 346 477 242 c 0
 475 234 472 226 469 218 c 1
 93 218 l 1
409 640 m 1
 250 531 l 1
 225 559 l 1
 422 696 l 1
 529 555 l 1
 491 530 l 1
 409 640 l 1
EndSplineSet
EndChar

StartChar: edieresis
Encoding: 235 235 225
Width: 479
VWidth: 0
Flags: HMW
LayerCount: 2
Fore
SplineSet
93 218 m 1
 107 261 l 1
 428 262 l 1
 448 332 435 421 341 423 c 0
 238 425 158 335 123 250 c 1
 116 231 l 1
 91 149 101 43 206 40 c 0
 278 38 340 86 391 133 c 1
 426 104 l 1
 361 42 284 -10 191 -9 c 0
 61 -7 34 126 65 231 c 0
 71 252 80 272 90 291 c 0
 139 384 237 470 348 469 c 0
 476 468 507 346 477 242 c 0
 475 234 472 226 469 218 c 1
 93 218 l 1
438 568 m 0
 442 584 468 606 485 604 c 0
 503 602 514 584 510 566 c 0
 506 550 480 528 463 530 c 0
 445 532 434 550 438 568 c 0
250 568 m 0
 254 584 280 606 297 604 c 0
 315 602 326 584 322 566 c 0
 318 550 292 528 275 530 c 0
 257 532 246 550 250 568 c 0
EndSplineSet
EndChar

StartChar: igrave
Encoding: 236 236 226
Width: 217
VWidth: 0
Flags: HMW
LayerCount: 2
Fore
SplineSet
186 459 m 1
 239 460 l 1
 79 0 l 1
 30 0 l 1
 186 459 l 1
142 696 m 1
 196 722 l 1
 293 561 l 1
 261 542 l 1
 142 696 l 1
EndSplineSet
EndChar

StartChar: dotlessi
Encoding: 305 305 227
Width: 217
VWidth: 0
Flags: HMW
LayerCount: 2
Fore
SplineSet
186 459 m 1
 239 460 l 1
 79 0 l 1
 30 0 l 1
 186 459 l 1
EndSplineSet
EndChar

StartChar: kgreenlandic
Encoding: 312 312 228
Width: 387
VWidth: 0
Flags: HMW
LayerCount: 2
Fore
SplineSet
171 459 m 1
 224 460 l 1
 64 0 l 1
 15 0 l 1
 171 459 l 1
404 459 m 1
 473 459 l 1
 200 268 l 1
 329 0 l 1
 270 0 l 1
 139 273 l 1
 404 459 l 1
EndSplineSet
EndChar

StartChar: iacute
Encoding: 237 237 229
Width: 217
VWidth: 0
Flags: HMW
LayerCount: 2
Fore
SplineSet
186 459 m 1
 239 460 l 1
 79 0 l 1
 30 0 l 1
 186 459 l 1
442 691 m 1
 225 544 l 1
 200 565 l 1
 403 721 l 1
 442 691 l 1
EndSplineSet
EndChar

StartChar: icircumflex
Encoding: 238 238 230
Width: 217
VWidth: 0
Flags: HMW
LayerCount: 2
Fore
SplineSet
186 459 m 1
 239 460 l 1
 79 0 l 1
 30 0 l 1
 186 459 l 1
279 646 m 1
 120 537 l 1
 95 565 l 1
 292 702 l 1
 399 562 l 1
 361 537 l 1
 279 646 l 1
EndSplineSet
EndChar

StartChar: idieresis
Encoding: 239 239 231
Width: 217
VWidth: 0
Flags: HMW
LayerCount: 2
Fore
SplineSet
186 459 m 1
 239 460 l 1
 79 0 l 1
 30 0 l 1
 186 459 l 1
305 587 m 0
 309 603 335 624 352 622 c 0
 370 620 381 602 377 584 c 0
 373 568 347 547 330 549 c 0
 312 551 301 569 305 587 c 0
132 587 m 0
 136 603 162 624 179 622 c 0
 197 620 208 602 204 584 c 0
 200 568 174 547 157 549 c 0
 139 551 128 569 132 587 c 0
EndSplineSet
EndChar

StartChar: ntilde
Encoding: 241 241 232
Width: 474
VWidth: 0
Flags: HMW
LayerCount: 2
Fore
SplineSet
228 460 m 1
 69 0 l 1
 17 0 l 1
 177 460 l 1
 228 460 l 1
399 296 m 2
 416 351 417 417 344 420 c 0
 261 423 200 347 164 282 c 1
 141 282 l 1
 181 370 256 469 364 469 c 0
 463 469 474 379 451 302 c 1
 346 0 l 1
 297 0 l 1
 399 296 l 2
233 563 m 1
 258 595 292 634 338 632 c 0
 377 631 400 584 439 587 c 0
 467 589 490 615 509 633 c 1
 533 605 l 1
 507 578 470 541 428 543 c 0
 390 545 369 589 330 588 c 0
 299 587 279 561 262 539 c 1
 233 563 l 1
EndSplineSet
EndChar

StartChar: ograve
Encoding: 242 242 233
Width: 517
VWidth: 0
Flags: HMW
LayerCount: 2
Fore
SplineSet
59 230 m 0
 99 354 225 469 361 469 c 0
 494 469 544 344 507 230 c 0
 467 106 341 -9 205 -9 c 0
 72 -9 22 116 59 230 c 0
111 230 m 0
 80 144 109 41 214 40 c 0
 322 39 421 133 455 230 c 0
 486 316 457 419 352 420 c 0
 244 421 145 327 111 230 c 0
299 696 m 1
 352 722 l 1
 450 561 l 1
 418 542 l 1
 299 696 l 1
EndSplineSet
EndChar

StartChar: oacute
Encoding: 243 243 234
Width: 517
VWidth: 0
Flags: HMW
LayerCount: 2
Fore
SplineSet
59 230 m 0
 99 354 225 469 361 469 c 0
 494 469 544 344 507 230 c 0
 467 106 341 -9 205 -9 c 0
 72 -9 22 116 59 230 c 0
111 230 m 0
 80 144 109 41 214 40 c 0
 322 39 421 133 455 230 c 0
 486 316 457 419 352 420 c 0
 244 421 145 327 111 230 c 0
584 691 m 1
 366 544 l 1
 342 565 l 1
 545 721 l 1
 584 691 l 1
EndSplineSet
EndChar

StartChar: ocircumflex
Encoding: 244 244 235
Width: 517
VWidth: 0
Flags: HMW
LayerCount: 2
Fore
SplineSet
59 230 m 0
 99 354 225 469 361 469 c 0
 494 469 544 344 507 230 c 0
 467 106 341 -9 205 -9 c 0
 72 -9 22 116 59 230 c 0
111 230 m 0
 80 144 109 41 214 40 c 0
 322 39 421 133 455 230 c 0
 486 316 457 419 352 420 c 0
 244 421 145 327 111 230 c 0
434 660 m 1
 274 551 l 1
 250 579 l 1
 447 716 l 1
 553 576 l 1
 515 551 l 1
 434 660 l 1
EndSplineSet
EndChar

StartChar: otilde
Encoding: 245 245 236
Width: 517
VWidth: 0
Flags: HMW
LayerCount: 2
Fore
SplineSet
59 230 m 0
 99 354 225 469 361 469 c 0
 494 469 544 344 507 230 c 0
 467 106 341 -9 205 -9 c 0
 72 -9 22 116 59 230 c 0
111 230 m 0
 80 144 109 41 214 40 c 0
 322 39 421 133 455 230 c 0
 486 316 457 419 352 420 c 0
 244 421 145 327 111 230 c 0
253 563 m 1
 242 597 335 633 358 632 c 0
 397 631 419 584 459 587 c 0
 487 589 511 615 530 633 c 1
 554 605 l 1
 528 578 491 541 449 543 c 0
 411 545 390 590 351 588 c 0
 320 586 300 561 283 539 c 1
 253 563 l 1
EndSplineSet
EndChar

StartChar: odieresis
Encoding: 246 246 237
Width: 517
VWidth: 0
Flags: HMW
LayerCount: 2
Fore
SplineSet
59 230 m 0
 99 354 225 469 361 469 c 0
 494 469 544 344 507 230 c 0
 467 106 341 -9 205 -9 c 0
 72 -9 22 116 59 230 c 0
111 230 m 0
 80 144 109 41 214 40 c 0
 322 39 421 133 455 230 c 0
 486 316 457 419 352 420 c 0
 244 421 145 327 111 230 c 0
465 595 m 0
 469 611 495 632 512 630 c 0
 530 628 541 610 537 592 c 0
 533 576 507 555 490 557 c 0
 472 559 461 577 465 595 c 0
277 595 m 0
 281 611 307 632 324 630 c 0
 342 628 353 610 349 592 c 0
 345 576 319 555 302 557 c 0
 284 559 273 577 277 595 c 0
EndSplineSet
EndChar

StartChar: ugrave
Encoding: 249 249 238
Width: 474
VWidth: 0
Flags: HMW
LayerCount: 2
Fore
SplineSet
295 0 m 1
 454 460 l 1
 506 460 l 1
 347 0 l 1
 295 0 l 1
126 168 m 2
 109 113 105 42 180 40 c 0
 263 37 323 112 359 178 c 1
 383 178 l 1
 343 90 267 -10 159 -9 c 0
 58 -9 51 85 74 162 c 1
 178 460 l 1
 226 459 l 1
 126 168 l 2
294 700 m 1
 348 726 l 1
 445 565 l 1
 413 546 l 1
 294 700 l 1
EndSplineSet
EndChar

StartChar: uacute
Encoding: 250 250 239
Width: 474
VWidth: 0
Flags: HMW
LayerCount: 2
Fore
SplineSet
295 0 m 1
 454 460 l 1
 506 460 l 1
 347 0 l 1
 295 0 l 1
126 168 m 2
 109 113 105 42 180 40 c 0
 263 37 323 112 359 178 c 1
 383 178 l 1
 343 90 267 -10 159 -9 c 0
 58 -9 51 85 74 162 c 1
 178 460 l 1
 226 459 l 1
 126 168 l 2
549 695 m 1
 332 547 l 1
 308 569 l 1
 510 725 l 1
 549 695 l 1
EndSplineSet
EndChar

StartChar: ucircumflex
Encoding: 251 251 240
Width: 474
VWidth: 0
Flags: HMW
LayerCount: 2
Fore
SplineSet
295 0 m 1
 454 460 l 1
 506 460 l 1
 347 0 l 1
 295 0 l 1
126 168 m 2
 109 113 105 42 180 40 c 0
 263 37 323 112 359 178 c 1
 383 178 l 1
 343 90 267 -10 159 -9 c 0
 58 -9 51 85 74 162 c 1
 178 460 l 1
 226 459 l 1
 126 168 l 2
411 656 m 1
 252 547 l 1
 227 575 l 1
 424 712 l 1
 531 572 l 1
 492 547 l 1
 411 656 l 1
EndSplineSet
EndChar

StartChar: udieresis
Encoding: 252 252 241
Width: 474
VWidth: 0
Flags: HMW
LayerCount: 2
Fore
SplineSet
295 0 m 1
 454 460 l 1
 506 460 l 1
 347 0 l 1
 295 0 l 1
126 168 m 2
 109 113 105 42 180 40 c 0
 263 37 323 112 359 178 c 1
 383 178 l 1
 343 90 267 -10 159 -9 c 0
 58 -9 51 85 74 162 c 1
 178 460 l 1
 226 459 l 1
 126 168 l 2
435 589 m 0
 439 604 464 626 481 624 c 0
 499 622 511 604 507 586 c 0
 503 570 476 549 459 551 c 0
 440 553 431 572 435 589 c 0
261 589 m 0
 265 604 291 626 308 624 c 0
 326 622 337 604 333 586 c 0
 329 570 303 549 286 551 c 0
 267 553 257 572 261 589 c 0
EndSplineSet
EndChar

StartChar: yacute
Encoding: 253 253 242
Width: 407
VWidth: 0
Flags: HMW
LayerCount: 2
Fore
SplineSet
511 459 m 1
 -6 -219 l 1
 -65 -219 l 1
 141 50 l 1
 107 460 l 1
 165 460 l 1
 188 68 l 1
 165 71 l 1
 452 459 l 1
 511 459 l 1
520 691 m 1
 302 544 l 1
 278 565 l 1
 481 721 l 1
 520 691 l 1
EndSplineSet
EndChar

StartChar: thorn
Encoding: 254 254 243
Width: 525
VWidth: 0
Flags: HMW
LayerCount: 2
Fore
SplineSet
-9 -219 m 1
 -62 -220 l 1
 282 780 l 1
 331 779 l 1
 -9 -219 l 1
514 230 m 0
 475 110 360 -12 226 -10 c 0
 96 -8 88 134 120 230 c 0
 156 342 253 468 382 469 c 0
 516 470 549 337 514 230 c 0
463 230 m 0
 492 313 472 421 366 420 c 0
 264 419 175 319 143 230 c 0
 117 154 129 44 228 40 c 0
 335 36 430 136 463 230 c 0
EndSplineSet
EndChar

StartChar: ydieresis
Encoding: 255 255 244
Width: 407
VWidth: 0
Flags: HMW
LayerCount: 2
Fore
SplineSet
511 459 m 1
 -6 -219 l 1
 -65 -219 l 1
 141 50 l 1
 107 460 l 1
 165 460 l 1
 188 68 l 1
 165 71 l 1
 452 459 l 1
 511 459 l 1
397 577 m 0
 401 593 427 614 444 612 c 0
 462 610 473 592 469 574 c 0
 465 558 439 537 422 539 c 0
 404 541 393 559 397 577 c 0
224 577 m 0
 228 593 254 614 271 612 c 0
 289 610 300 592 296 574 c 0
 292 558 265 537 248 539 c 0
 230 541 220 559 224 577 c 0
EndSplineSet
EndChar

StartChar: Amacron
Encoding: 256 256 245
Width: 597
VWidth: 0
Flags: HMW
LayerCount: 2
Fore
SplineSet
157 236 m 1
 190 286 l 1
 497 287 l 1
 497 235 l 1
 157 236 l 1
454 600 m 1
 211 269 l 1
 202 257 l 1
 13 0 l 1
 -50 0 l 1
 493 729 l 1
 535 0 l 1
 477 0 l 1
 467 253 l 1
 467 266 l 1
 454 600 l 1
352 796 m 1
 368 844 l 1
 700 844 l 1
 683 795 l 1
 352 796 l 1
EndSplineSet
EndChar

StartChar: amacron
Encoding: 257 257 246
Width: 437
VWidth: 0
Flags: HMW
LayerCount: 2
Fore
SplineSet
73 135 m 0
 53 78 88 39 145 38 c 0
 233 36 294 100 334 171 c 1
 335 140 l 1
 294 58 222 -10 125 -9 c 0
 44 -8 -4 52 21 130 c 0
 51 225 154 284 250 283 c 0
 301 283 340 265 374 228 c 1
 363 198 l 1
 329 227 291 243 245 242 c 0
 176 241 97 204 73 135 c 0
167 370 m 1
 154 412 l 1
 208 443 267 470 330 469 c 0
 415 467 457 407 435 326 c 1
 323 0 l 1
 271 0 l 1
 386 326 l 1
 394 378 382 420 321 422 c 0
 266 424 213 396 167 370 c 1
197 551 m 1
 213 599 l 1
 544 599 l 1
 528 550 l 1
 197 551 l 1
EndSplineSet
Substitution2: "alt a" amacron.alt
EndChar

StartChar: breve
Encoding: 728 728 247
Width: 513
VWidth: 0
Flags: HMW
LayerCount: 2
Fore
SplineSet
335 850 m 1
 379 850 l 1
 374 798 391 755 451 754 c 0
 515 753 558 798 588 849 c 1
 634 848 l 1
 598 772 533 711 444 711 c 0
 358 711 325 772 335 850 c 1
EndSplineSet
EndChar

StartChar: Abreve
Encoding: 258 258 248
Width: 597
VWidth: 0
Flags: HMW
LayerCount: 2
Fore
SplineSet
157 236 m 1
 190 286 l 1
 497 287 l 1
 497 235 l 1
 157 236 l 1
454 600 m 1
 211 269 l 1
 202 257 l 1
 13 0 l 1
 -50 0 l 1
 493 729 l 1
 535 0 l 1
 477 0 l 1
 467 253 l 1
 467 266 l 1
 454 600 l 1
413 931 m 1
 457 930 l 1
 450 878 466 836 526 835 c 0
 590 834 635 880 667 930 c 1
 713 929 l 1
 674 853 608 792 519 792 c 0
 432 792 401 853 413 931 c 1
EndSplineSet
EndChar

StartChar: abreve
Encoding: 259 259 249
Width: 437
VWidth: 0
Flags: HMW
LayerCount: 2
Fore
SplineSet
73 135 m 0
 53 78 88 39 145 38 c 0
 233 36 294 100 334 171 c 1
 335 140 l 1
 294 58 222 -10 125 -9 c 0
 44 -8 -4 52 21 130 c 0
 51 225 154 284 250 283 c 0
 301 283 340 265 374 228 c 1
 363 198 l 1
 329 227 291 243 245 242 c 0
 176 241 97 204 73 135 c 0
167 370 m 1
 154 412 l 1
 208 443 267 470 330 469 c 0
 415 467 457 407 435 326 c 1
 323 0 l 1
 271 0 l 1
 386 326 l 1
 394 378 382 420 321 422 c 0
 266 424 213 396 167 370 c 1
250 674 m 1
 294 673 l 1
 287 621 302 579 362 578 c 0
 426 577 471 623 503 673 c 1
 550 672 l 1
 511 597 444 535 355 535 c 0
 268 535 238 596 250 674 c 1
EndSplineSet
Substitution2: "alt a" abreve.alt
EndChar

StartChar: Aogonek
Encoding: 260 260 250
Width: 597
VWidth: 0
Flags: HMW
LayerCount: 2
Fore
SplineSet
158 236 m 1
 191 286 l 1
 497 287 l 1
 497 235 l 1
 158 236 l 1
454 600 m 1
 211 269 l 1
 202 257 l 1
 13 0 l 1
 -50 0 l 1
 493 729 l 1
 535 0 l 1
 477 0 l 1
 467 253 l 1
 467 266 l 1
 454 600 l 1
500 -148 m 1
 512 -183 l 1
 482 -202 451 -219 414 -219 c 0
 359 -220 317 -185 333 -127 c 0
 355 -51 449 -12 514 18 c 1
 537 0 l 1
 488 -26 403 -55 387 -116 c 0
 379 -147 396 -170 427 -173 c 0
 452 -175 479 -160 500 -148 c 1
EndSplineSet
EndChar

StartChar: aogonek
Encoding: 261 261 251
Width: 437
VWidth: 0
Flags: HMW
LayerCount: 2
Fore
SplineSet
73 135 m 0
 55 79 89 39 145 38 c 0
 232 36 294 100 334 171 c 1
 335 140 l 1
 294 58 222 -10 125 -9 c 0
 43 -8 -3 56 22 134 c 0
 52 228 155 284 250 283 c 0
 301 282 340 265 374 228 c 1
 363 198 l 1
 329 227 291 243 245 242 c 0
 176 241 96 205 73 135 c 0
167 370 m 1
 154 412 l 1
 208 443 267 470 330 469 c 0
 415 467 457 407 435 326 c 1
 323 0 l 1
 271 0 l 1
 386 326 l 1
 394 378 382 420 321 422 c 0
 266 424 213 396 167 370 c 1
287 -148 m 1
 299 -183 l 1
 269 -202 238 -219 201 -219 c 0
 146 -220 104 -185 120 -127 c 0
 142 -51 237 -12 302 18 c 1
 324 0 l 1
 275 -26 190 -55 174 -116 c 0
 166 -147 184 -170 215 -173 c 0
 240 -175 266 -160 287 -148 c 1
EndSplineSet
Substitution2: "alt a" aogonek.alt
EndChar

StartChar: Cacute
Encoding: 262 262 252
Width: 644
VWidth: 0
Flags: HMW
LayerCount: 2
Fore
SplineSet
163 350 m 0
 116 216 155 51 321 48 c 0
 413 46 496 90 569 141 c 1
 546 68 l 1
 474 22 396 -10 310 -9 c 0
 113 -7 50 185 105 350 c 0
 166 535 344 707 547 709 c 0
 623 710 684 685 737 631 c 1
 713 558 l 1
 672 622 612 653 536 653 c 0
 365 652 217 503 163 350 c 0
749 918 m 1
 531 771 l 1
 507 792 l 1
 710 948 l 1
 749 918 l 1
EndSplineSet
EndChar

StartChar: cacute
Encoding: 263 263 253
Width: 453
VWidth: 0
Flags: HMW
LayerCount: 2
Fore
SplineSet
106 230 m 0
 75 144 105 42 210 40 c 0
 276 39 336 73 387 112 c 1
 367 48 l 1
 317 15 261 -9 200 -9 c 0
 67 -8 18 116 55 230 c 0
 95 356 220 469 357 469 c 0
 410 469 453 450 489 411 c 1
 469 347 l 1
 445 396 404 421 348 420 c 0
 240 419 141 328 106 230 c 0
564 683 m 1
 346 536 l 1
 321 557 l 1
 524 713 l 1
 564 683 l 1
EndSplineSet
EndChar

StartChar: Ccircumflex
Encoding: 264 264 254
Width: 644
VWidth: 0
Flags: HMW
LayerCount: 2
Fore
SplineSet
163 350 m 0
 116 216 155 51 321 48 c 0
 413 46 496 90 569 141 c 1
 546 68 l 1
 474 22 396 -10 310 -9 c 0
 113 -7 50 185 105 350 c 0
 166 535 344 707 547 709 c 0
 623 710 684 685 737 631 c 1
 713 558 l 1
 672 622 612 653 536 653 c 0
 365 652 217 503 163 350 c 0
613 879 m 1
 454 771 l 1
 429 799 l 1
 626 936 l 1
 732 795 l 1
 695 770 l 1
 613 879 l 1
EndSplineSet
EndChar

StartChar: ccircumflex
Encoding: 265 265 255
Width: 453
VWidth: 0
Flags: HMW
LayerCount: 2
Fore
SplineSet
106 230 m 0
 75 144 105 42 210 40 c 0
 276 39 336 73 387 112 c 1
 367 48 l 1
 317 15 261 -9 200 -9 c 0
 67 -8 18 116 55 230 c 0
 95 356 220 469 357 469 c 0
 410 469 453 450 489 411 c 1
 469 347 l 1
 445 396 404 421 348 420 c 0
 240 419 141 328 106 230 c 0
423 640 m 1
 263 531 l 1
 238 559 l 1
 435 696 l 1
 542 556 l 1
 504 531 l 1
 423 640 l 1
EndSplineSet
EndChar

StartChar: Cdotaccent
Encoding: 266 266 256
Width: 644
VWidth: 0
Flags: HMW
LayerCount: 2
Fore
SplineSet
163 350 m 0
 116 216 155 51 321 48 c 0
 413 46 496 90 569 141 c 1
 546 68 l 1
 474 22 396 -10 310 -9 c 0
 113 -7 50 185 105 350 c 0
 166 535 344 707 547 709 c 0
 623 710 684 685 737 631 c 1
 713 558 l 1
 672 622 612 653 536 653 c 0
 365 652 217 503 163 350 c 0
550 812 m 0
 554 828 580 849 597 847 c 0
 615 845 625 827 621 809 c 0
 617 793 591 772 574 774 c 0
 556 776 546 794 550 812 c 0
EndSplineSet
EndChar

StartChar: cdotaccent
Encoding: 267 267 257
Width: 453
VWidth: 0
Flags: HMW
LayerCount: 2
Fore
SplineSet
106 230 m 0
 75 144 105 42 210 40 c 0
 276 39 336 73 387 112 c 1
 367 48 l 1
 317 15 261 -9 200 -9 c 0
 67 -8 18 116 55 230 c 0
 95 356 220 469 357 469 c 0
 410 469 453 450 489 411 c 1
 469 347 l 1
 445 396 404 421 348 420 c 0
 240 419 141 328 106 230 c 0
359 573 m 0
 363 589 389 610 406 608 c 0
 424 606 434 588 430 570 c 0
 426 554 400 533 383 535 c 0
 365 537 355 555 359 573 c 0
EndSplineSet
EndChar

StartChar: Ccaron
Encoding: 268 268 258
Width: 644
VWidth: 0
Flags: HMW
LayerCount: 2
Fore
SplineSet
163 350 m 0
 116 216 155 51 321 48 c 0
 413 46 496 90 569 141 c 1
 546 68 l 1
 474 22 396 -10 310 -9 c 0
 113 -7 50 185 105 350 c 0
 166 535 344 707 547 709 c 0
 623 710 684 685 737 631 c 1
 713 558 l 1
 672 622 612 653 536 653 c 0
 365 652 217 503 163 350 c 0
588 830 m 1
 747 939 l 1
 772 911 l 1
 575 774 l 1
 469 914 l 1
 507 940 l 1
 588 830 l 1
EndSplineSet
EndChar

StartChar: ccaron
Encoding: 269 269 259
Width: 453
VWidth: 0
Flags: HMW
LayerCount: 2
Fore
SplineSet
106 230 m 0
 75 144 105 42 210 40 c 0
 276 39 336 73 387 112 c 1
 367 48 l 1
 317 15 261 -9 200 -9 c 0
 67 -8 18 116 55 230 c 0
 95 356 220 469 357 469 c 0
 410 469 453 450 489 411 c 1
 469 347 l 1
 445 396 404 421 348 420 c 0
 240 419 141 328 106 230 c 0
399 595 m 1
 558 704 l 1
 583 675 l 1
 386 538 l 1
 279 679 l 1
 318 705 l 1
 399 595 l 1
EndSplineSet
EndChar

StartChar: Dcaron
Encoding: 270 270 260
Width: 622
VWidth: 0
Flags: HMW
LayerCount: 2
Fore
SplineSet
262 699 m 1
 318 700 l 1
 77 0 l 1
 25 0 l 1
 262 699 l 1
208 0 m 0
 52 0 l 1
 71 55 l 1
 219 55 l 0
 392 61 538 190 594 350 c 0
 645 494 594 638 427 645 c 0
 272 645 l 1
 291 700 l 1
 438 700 l 0
 635 693 705 522 648 350 c 0
 586 161 412 6 208 0 c 0
534 838 m 1
 692 947 l 1
 718 919 l 1
 521 782 l 1
 415 922 l 1
 452 948 l 1
 534 838 l 1
EndSplineSet
EndChar

StartChar: dcaron
Encoding: 271 271 261
Width: 536
VWidth: 0
Flags: HMW
LayerCount: 2
Fore
SplineSet
617 779 m 1
 670 780 l 1
 401 0 l 1
 352 0 l 1
 617 779 l 1
59 230 m 0
 98 350 214 472 348 470 c 0
 478 468 487 326 455 230 c 0
 419 118 321 -8 192 -9 c 0
 58 -10 24 123 59 230 c 0
111 230 m 0
 82 147 101 39 207 40 c 0
 309 41 399 141 431 230 c 0
 457 306 444 416 345 420 c 0
 238 424 144 324 111 230 c 0
804 772 m 1
 851 750 l 1
 660 506 l 1
 626 519 l 1
 804 772 l 1
EndSplineSet
EndChar

StartChar: Dcroat
Encoding: 272 272 262
Width: 639
VWidth: 0
Flags: HMW
LayerCount: 2
Fore
SplineSet
61 325 m 1
 78 373 l 1
 362 373 l 1
 346 324 l 1
 61 325 l 1
262 699 m 1
 318 700 l 1
 77 0 l 1
 25 0 l 1
 262 699 l 1
208 0 m 0
 52 0 l 1
 71 55 l 1
 219 55 l 0
 392 61 538 190 594 350 c 0
 645 493 594 638 427 645 c 0
 272 645 l 1
 291 700 l 1
 438 700 l 0
 635 693 705 522 648 350 c 0
 586 161 412 6 208 0 c 0
EndSplineSet
EndChar

StartChar: dcroat
Encoding: 273 273 263
Width: 525
VWidth: 0
Flags: HMW
LayerCount: 2
Fore
SplineSet
434 617 m 1
 450 665 l 1
 735 665 l 1
 718 616 l 1
 434 617 l 1
617 779 m 1
 670 780 l 1
 401 0 l 1
 352 0 l 1
 617 779 l 1
59 230 m 0
 98 350 214 472 348 470 c 0
 478 468 487 326 455 230 c 0
 419 118 321 -8 192 -9 c 0
 58 -10 23 122 59 230 c 0
111 230 m 0
 82 147 101 39 207 40 c 0
 309 41 399 141 431 230 c 0
 457 306 444 416 345 420 c 0
 238 424 144 323 111 230 c 0
EndSplineSet
EndChar

StartChar: Emacron
Encoding: 274 274 264
Width: 501
VWidth: 0
Flags: HMW
LayerCount: 2
Fore
SplineSet
52 0 m 1
 69 52 l 1
 398 52 l 1
 381 0 l 1
 52 0 l 1
274 649 m 1
 291 700 l 1
 619 700 l 1
 602 648 l 1
 274 649 l 1
174 358 m 1
 192 410 l 1
 501 410 l 1
 484 358 l 1
 174 358 l 1
262 699 m 1
 318 700 l 1
 77 0 l 1
 25 0 l 1
 262 699 l 1
316 797 m 1
 333 845 l 1
 664 845 l 1
 648 796 l 1
 316 797 l 1
EndSplineSet
EndChar

StartChar: emacron
Encoding: 275 275 265
Width: 479
VWidth: 0
Flags: HMW
LayerCount: 2
Fore
SplineSet
93 218 m 1
 107 261 l 1
 428 262 l 1
 448 332 435 421 341 423 c 0
 238 425 158 335 123 250 c 1
 116 231 l 1
 91 149 101 43 206 40 c 0
 278 38 340 86 391 133 c 1
 426 104 l 1
 361 42 284 -11 191 -9 c 0
 61 -7 34 126 65 231 c 0
 71 252 80 272 90 291 c 0
 139 384 237 470 348 469 c 0
 476 468 507 346 477 242 c 0
 475 234 472 226 469 218 c 1
 93 218 l 1
204 530 m 1
 220 579 l 1
 551 579 l 1
 534 530 l 1
 204 530 l 1
EndSplineSet
EndChar

StartChar: Ebreve
Encoding: 276 276 266
Width: 501
VWidth: 0
Flags: HMW
LayerCount: 2
Fore
SplineSet
52 0 m 1
 69 52 l 1
 398 52 l 1
 381 0 l 1
 52 0 l 1
274 649 m 1
 291 700 l 1
 619 700 l 1
 602 648 l 1
 274 649 l 1
174 358 m 1
 192 410 l 1
 501 410 l 1
 484 358 l 1
 174 358 l 1
262 699 m 1
 318 700 l 1
 77 0 l 1
 25 0 l 1
 262 699 l 1
366 909 m 1
 410 909 l 1
 403 857 418 814 478 813 c 0
 542 812 587 858 619 908 c 1
 666 907 l 1
 627 831 560 770 471 770 c 0
 384 770 354 831 366 909 c 1
EndSplineSet
EndChar

StartChar: ebreve
Encoding: 277 277 267
Width: 479
VWidth: 0
Flags: HMW
LayerCount: 2
Fore
SplineSet
93 218 m 1
 107 261 l 1
 428 262 l 1
 448 332 435 421 341 423 c 0
 238 425 158 335 123 250 c 1
 116 231 l 1
 91 149 101 43 206 40 c 0
 278 38 340 86 391 133 c 1
 426 104 l 1
 361 42 284 -10 191 -9 c 0
 61 -7 34 126 65 231 c 0
 71 252 80 272 90 291 c 0
 139 384 237 470 348 469 c 0
 476 468 507 346 477 242 c 0
 475 234 472 226 469 218 c 1
 93 218 l 1
257 669 m 1
 300 669 l 1
 295 617 311 574 371 573 c 0
 435 572 479 618 510 668 c 1
 556 667 l 1
 518 592 452 530 363 530 c 0
 276 530 246 591 257 669 c 1
EndSplineSet
EndChar

StartChar: Edotaccent
Encoding: 278 278 268
Width: 501
VWidth: 0
Flags: HMW
LayerCount: 2
Fore
SplineSet
52 0 m 1
 69 52 l 1
 398 52 l 1
 381 0 l 1
 52 0 l 1
274 649 m 1
 291 700 l 1
 619 700 l 1
 602 648 l 1
 274 649 l 1
174 358 m 1
 192 410 l 1
 501 410 l 1
 484 358 l 1
 174 358 l 1
262 699 m 1
 318 700 l 1
 77 0 l 1
 25 0 l 1
 262 699 l 1
441 808 m 0
 445 824 471 845 488 843 c 0
 506 841 517 823 513 805 c 0
 509 789 483 768 466 770 c 0
 448 772 437 790 441 808 c 0
EndSplineSet
EndChar

StartChar: edotaccent
Encoding: 279 279 269
Width: 479
VWidth: 0
Flags: HMW
LayerCount: 2
Fore
SplineSet
93 218 m 1
 107 261 l 1
 428 262 l 1
 448 332 435 421 341 423 c 0
 238 425 158 335 123 250 c 1
 116 231 l 1
 91 149 101 43 206 40 c 0
 278 38 340 86 391 133 c 1
 426 104 l 1
 361 42 284 -10 191 -9 c 0
 61 -7 34 126 65 231 c 0
 71 252 80 272 90 291 c 0
 139 384 237 470 348 469 c 0
 476 468 507 346 477 242 c 0
 475 234 472 226 469 218 c 1
 93 218 l 1
344 568 m 0
 348 584 374 606 391 604 c 0
 409 602 420 584 416 566 c 0
 412 550 386 528 369 530 c 0
 351 532 340 550 344 568 c 0
EndSplineSet
EndChar

StartChar: Eogonek
Encoding: 280 280 270
Width: 501
VWidth: 0
Flags: HMW
LayerCount: 2
Fore
SplineSet
52 0 m 1
 69 52 l 1
 398 52 l 1
 381 0 l 1
 52 0 l 1
274 649 m 1
 291 700 l 1
 619 700 l 1
 602 648 l 1
 274 649 l 1
174 358 m 1
 192 410 l 1
 501 410 l 1
 484 358 l 1
 174 358 l 1
262 699 m 1
 318 700 l 1
 77 0 l 1
 25 0 l 1
 262 699 l 1
275 -148 m 1
 287 -183 l 1
 257 -202 225 -219 188 -219 c 0
 133 -220 92 -185 108 -127 c 0
 130 -51 224 -12 289 18 c 1
 312 0 l 1
 263 -26 178 -55 162 -116 c 0
 154 -147 171 -170 202 -173 c 0
 227 -175 254 -160 275 -148 c 1
EndSplineSet
EndChar

StartChar: eogonek
Encoding: 281 281 271
Width: 479
VWidth: 0
Flags: HMW
LayerCount: 2
Fore
SplineSet
93 218 m 1
 107 261 l 1
 428 262 l 1
 448 332 435 421 341 423 c 0
 238 425 158 335 123 250 c 1
 116 231 l 1
 91 149 101 43 206 40 c 0
 278 38 340 86 391 133 c 1
 426 104 l 1
 361 42 284 -10 191 -9 c 0
 61 -7 34 126 65 231 c 0
 71 252 80 272 90 291 c 0
 139 384 237 470 348 469 c 0
 476 468 507 346 477 242 c 0
 475 234 472 226 469 218 c 1
 93 218 l 1
183 -151 m 1
 195 -186 l 1
 165 -205 135 -223 98 -223 c 0
 43 -224 0 -189 16 -131 c 0
 37 -56 130 -16 194 14 c 1
 218 -6 l 1
 168 -29 85 -60 69 -120 c 0
 61 -151 80 -174 111 -177 c 0
 136 -179 162 -163 183 -151 c 1
EndSplineSet
EndChar

StartChar: Ecaron
Encoding: 282 282 272
Width: 501
VWidth: 0
Flags: HMW
LayerCount: 2
Fore
SplineSet
52 0 m 1
 69 52 l 1
 398 52 l 1
 381 0 l 1
 52 0 l 1
274 649 m 1
 291 700 l 1
 619 700 l 1
 602 648 l 1
 274 649 l 1
174 358 m 1
 192 410 l 1
 501 410 l 1
 484 358 l 1
 174 358 l 1
262 699 m 1
 318 700 l 1
 77 0 l 1
 25 0 l 1
 262 699 l 1
480 826 m 1
 638 935 l 1
 664 907 l 1
 467 770 l 1
 360 910 l 1
 399 936 l 1
 480 826 l 1
EndSplineSet
EndChar

StartChar: ecaron
Encoding: 283 283 273
Width: 479
VWidth: 0
Flags: HMW
LayerCount: 2
Fore
SplineSet
93 218 m 1
 107 261 l 1
 428 262 l 1
 448 332 435 421 341 423 c 0
 238 425 158 335 123 250 c 1
 116 231 l 1
 91 149 101 43 206 40 c 0
 278 38 340 86 391 133 c 1
 426 104 l 1
 361 42 284 -10 191 -9 c 0
 61 -7 34 126 65 231 c 0
 71 252 80 272 90 291 c 0
 139 384 237 470 348 469 c 0
 476 468 507 346 477 242 c 0
 475 234 472 226 469 218 c 1
 93 218 l 1
374 586 m 1
 533 695 l 1
 558 667 l 1
 361 530 l 1
 254 670 l 1
 293 696 l 1
 374 586 l 1
EndSplineSet
EndChar

StartChar: Gcircumflex
Encoding: 284 284 274
Width: 725
VWidth: 0
Flags: HMW
LayerCount: 2
Fore
SplineSet
432 297 m 1
 451 349 l 1
 744 348 l 1
 676 170 522 -9 316 -9 c 0
 117 -9 50 183 105 350 c 0
 167 537 349 709 554 709 c 0
 660 710 737 655 776 558 c 1
 728 524 l 1
 699 608 633 654 543 653 c 0
 370 653 218 506 163 350 c 0
 115 213 158 48 327 47 c 0
 483 46 601 172 671 297 c 1
 432 297 l 1
620 879 m 1
 460 771 l 1
 435 799 l 1
 632 936 l 1
 739 795 l 1
 701 770 l 1
 620 879 l 1
EndSplineSet
EndChar

StartChar: gcircumflex
Encoding: 285 285 275
Width: 525
VWidth: 0
Flags: HMW
LayerCount: 2
Fore
SplineSet
-18 -30 m 1
 32 -31 l 1
 17 -108 38 -179 129 -180 c 0
 237 -182 318 -82 354 10 c 1
 509 460 l 1
 561 460 l 1
 407 10 l 2
 363 -111 258 -229 120 -229 c 0
 0 -229 -41 -136 -18 -30 c 1
59 230 m 0
 98 350 214 472 348 470 c 0
 478 468 487 326 455 230 c 0
 419 118 321 -8 192 -9 c 0
 58 -10 24 123 59 230 c 0
111 230 m 0
 81 147 101 40 207 40 c 0
 310 40 400 142 431 232 c 0
 457 308 443 416 345 420 c 0
 238 424 144 324 111 230 c 0
414 640 m 1
 254 531 l 1
 230 559 l 1
 427 696 l 1
 533 556 l 1
 495 531 l 1
 414 640 l 1
EndSplineSet
EndChar

StartChar: Gbreve
Encoding: 286 286 276
Width: 725
VWidth: 0
Flags: HMW
LayerCount: 2
Fore
SplineSet
432 297 m 1
 451 349 l 1
 744 348 l 1
 676 170 522 -9 316 -9 c 0
 117 -9 50 183 105 350 c 0
 167 537 349 709 554 709 c 0
 660 710 737 655 776 558 c 1
 728 524 l 1
 699 608 633 654 543 653 c 0
 370 653 218 506 163 350 c 0
 115 213 158 48 327 47 c 0
 483 46 601 172 671 297 c 1
 432 297 l 1
476 909 m 1
 521 909 l 1
 514 857 529 814 589 813 c 0
 653 812 698 858 730 908 c 1
 776 907 l 1
 737 831 670 770 581 770 c 0
 494 770 464 831 476 909 c 1
EndSplineSet
EndChar

StartChar: gbreve
Encoding: 287 287 277
Width: 525
VWidth: 0
Flags: HMW
LayerCount: 2
Fore
SplineSet
-18 -30 m 1
 32 -31 l 1
 17 -108 38 -179 129 -180 c 0
 237 -182 318 -82 354 10 c 1
 509 460 l 1
 561 460 l 1
 407 10 l 2
 363 -111 258 -229 120 -229 c 0
 0 -229 -41 -136 -18 -30 c 1
59 230 m 0
 98 350 214 472 348 470 c 0
 478 468 487 326 455 230 c 0
 419 118 321 -8 192 -9 c 0
 58 -10 24 123 59 230 c 0
111 230 m 0
 81 147 101 40 207 40 c 0
 310 40 400 142 431 232 c 0
 457 308 443 416 345 420 c 0
 238 424 144 324 111 230 c 0
271 670 m 1
 315 669 l 1
 308 617 323 575 383 574 c 0
 447 573 492 619 524 669 c 1
 570 668 l 1
 531 593 464 531 375 531 c 0
 288 531 259 592 271 670 c 1
EndSplineSet
EndChar

StartChar: Gdotaccent
Encoding: 288 288 278
Width: 725
VWidth: 0
Flags: HMW
LayerCount: 2
Fore
SplineSet
432 297 m 1
 451 349 l 1
 744 348 l 1
 676 170 522 -9 316 -9 c 0
 117 -9 50 183 105 350 c 0
 167 537 349 709 554 709 c 0
 660 710 737 655 776 558 c 1
 728 524 l 1
 699 608 633 654 543 653 c 0
 370 653 218 506 163 350 c 0
 115 213 158 48 327 47 c 0
 483 46 601 172 671 297 c 1
 432 297 l 1
555 808 m 0
 559 824 585 845 602 843 c 0
 620 841 631 823 627 805 c 0
 623 789 597 768 580 770 c 0
 562 772 551 790 555 808 c 0
EndSplineSet
EndChar

StartChar: gdotaccent
Encoding: 289 289 279
Width: 525
VWidth: 0
Flags: HMW
LayerCount: 2
Fore
SplineSet
-18 -30 m 1
 32 -31 l 1
 17 -108 38 -179 129 -180 c 0
 237 -182 318 -82 354 10 c 1
 509 460 l 1
 561 460 l 1
 407 10 l 2
 363 -111 258 -229 120 -229 c 0
 0 -229 -41 -136 -18 -30 c 1
59 230 m 0
 98 350 214 472 348 470 c 0
 478 468 487 326 455 230 c 0
 419 118 321 -8 192 -9 c 0
 58 -10 24 123 59 230 c 0
111 230 m 0
 81 147 101 40 207 40 c 0
 310 40 400 142 431 232 c 0
 457 308 443 416 345 420 c 0
 238 424 144 324 111 230 c 0
369 593 m 0
 373 609 399 630 416 628 c 0
 434 626 444 608 440 590 c 0
 436 574 410 553 393 555 c 0
 375 557 365 575 369 593 c 0
EndSplineSet
EndChar

StartChar: uni0122
Encoding: 290 290 280
Width: 725
VWidth: 0
Flags: HMW
LayerCount: 2
Fore
SplineSet
432 297 m 1
 451 349 l 1
 744 348 l 1
 676 170 522 -9 316 -9 c 0
 117 -9 50 183 105 350 c 0
 167 537 349 709 554 709 c 0
 660 710 737 655 776 558 c 1
 728 524 l 1
 699 608 633 654 543 653 c 0
 370 653 218 506 163 350 c 0
 115 213 158 48 327 47 c 0
 483 46 601 172 671 297 c 1
 432 297 l 1
310 -71 m 1
 358 -92 l 1
 166 -337 l 1
 133 -324 l 1
 310 -71 l 1
EndSplineSet
EndChar

StartChar: Hcircumflex
Encoding: 292 292 281
Width: 646
VWidth: 0
Flags: HMW
LayerCount: 2
Fore
SplineSet
174 355 m 1
 191 407 l 1
 637 407 l 1
 620 355 l 1
 174 355 l 1
699 699 m 1
 756 700 l 1
 513 0 l 1
 462 0 l 1
 699 699 l 1
262 699 m 1
 318 700 l 1
 77 0 l 1
 25 0 l 1
 262 699 l 1
574 879 m 1
 414 771 l 1
 389 799 l 1
 587 936 l 1
 693 795 l 1
 655 770 l 1
 574 879 l 1
EndSplineSet
EndChar

StartChar: hcircumflex
Encoding: 293 293 282
Width: 474
VWidth: 0
Flags: HMW
LayerCount: 2
Fore
SplineSet
338 780 m 1
 69 0 l 1
 18 0 l 1
 286 780 l 1
 338 780 l 1
399 296 m 2
 416 351 417 417 344 420 c 0
 261 423 200 347 164 282 c 1
 141 282 l 1
 181 370 256 469 364 469 c 0
 463 469 474 379 451 302 c 1
 346 0 l 1
 297 0 l 1
 399 296 l 2
380 950 m 1
 220 841 l 1
 195 869 l 1
 393 1006 l 1
 499 866 l 1
 461 841 l 1
 380 950 l 1
EndSplineSet
EndChar

StartChar: Itilde
Encoding: 296 296 283
Width: 205
VWidth: 0
Flags: HMW
LayerCount: 2
Fore
SplineSet
261 699 m 1
 316 700 l 1
 74 0 l 1
 23 0 l 1
 261 699 l 1
190 819 m 1
 215 851 248 890 294 888 c 0
 333 887 356 840 395 843 c 0
 423 845 447 871 466 889 c 1
 489 861 l 1
 463 834 427 797 385 799 c 0
 347 801 326 845 287 844 c 0
 256 843 235 817 218 795 c 1
 190 819 l 1
EndSplineSet
EndChar

StartChar: itilde
Encoding: 297 297 284
Width: 217
VWidth: 0
Flags: HMW
LayerCount: 2
Fore
SplineSet
186 459 m 1
 239 460 l 1
 79 0 l 1
 30 0 l 1
 186 459 l 1
115 579 m 1
 140 611 173 650 219 648 c 0
 258 647 281 600 320 603 c 0
 348 605 372 631 391 649 c 1
 414 621 l 1
 388 594 351 557 309 559 c 0
 271 561 251 605 212 604 c 0
 181 603 160 577 143 555 c 1
 115 579 l 1
EndSplineSet
EndChar

StartChar: Imacron
Encoding: 298 298 285
Width: 205
VWidth: 0
Flags: HMW
LayerCount: 2
Fore
SplineSet
261 699 m 1
 316 700 l 1
 74 0 l 1
 23 0 l 1
 261 699 l 1
169 797 m 1
 185 845 l 1
 517 845 l 1
 500 796 l 1
 169 797 l 1
EndSplineSet
EndChar

StartChar: imacron
Encoding: 299 299 286
Width: 217
VWidth: 0
Flags: HMW
LayerCount: 2
Fore
SplineSet
186 459 m 1
 239 460 l 1
 79 0 l 1
 30 0 l 1
 186 459 l 1
93 557 m 1
 110 605 l 1
 441 605 l 1
 425 556 l 1
 93 557 l 1
EndSplineSet
EndChar

StartChar: Ibreve
Encoding: 300 300 287
Width: 205
VWidth: 0
Flags: HMW
LayerCount: 2
Fore
SplineSet
261 699 m 1
 316 700 l 1
 74 0 l 1
 23 0 l 1
 261 699 l 1
210 910 m 1
 253 909 l 1
 246 857 262 815 322 814 c 0
 386 813 431 859 463 909 c 1
 509 908 l 1
 470 833 404 771 315 771 c 0
 228 771 198 832 210 910 c 1
EndSplineSet
EndChar

StartChar: ibreve
Encoding: 301 301 288
Width: 217
VWidth: 0
Flags: HMW
LayerCount: 2
Fore
SplineSet
186 459 m 1
 239 460 l 1
 79 0 l 1
 30 0 l 1
 186 459 l 1
134 670 m 1
 178 669 l 1
 171 617 186 575 246 574 c 0
 310 573 355 619 387 669 c 1
 433 668 l 1
 394 593 328 531 239 531 c 0
 152 531 122 592 134 670 c 1
EndSplineSet
EndChar

StartChar: Iogonek
Encoding: 302 302 289
Width: 205
VWidth: 0
Flags: HMW
LayerCount: 2
Fore
SplineSet
261 699 m 1
 316 700 l 1
 74 0 l 1
 23 0 l 1
 261 699 l 1
39 -148 m 1
 51 -183 l 1
 21 -202 -10 -219 -47 -219 c 0
 -102 -220 -144 -185 -128 -127 c 0
 -106 -51 -12 -12 53 18 c 1
 76 0 l 1
 27 -26 -59 -55 -75 -116 c 0
 -83 -147 -65 -170 -34 -173 c 0
 -9 -175 18 -160 39 -148 c 1
EndSplineSet
EndChar

StartChar: iogonek
Encoding: 303 303 290
Width: 217
VWidth: 0
Flags: HMW
LayerCount: 2
Fore
SplineSet
247 669 m 0
 251 685 277 706 294 704 c 0
 312 702 323 685 319 667 c 0
 315 651 289 630 272 632 c 0
 254 634 243 651 247 669 c 0
186 459 m 1
 239 460 l 1
 79 0 l 1
 30 0 l 1
 186 459 l 1
44 -148 m 1
 56 -183 l 1
 26 -202 -5 -219 -42 -219 c 0
 -97 -220 -140 -185 -124 -127 c 0
 -102 -51 -7 -12 58 18 c 1
 81 0 l 1
 32 -26 -54 -55 -70 -116 c 0
 -78 -147 -60 -170 -29 -173 c 0
 -4 -175 23 -160 44 -148 c 1
EndSplineSet
EndChar

StartChar: Idotaccent
Encoding: 304 304 291
Width: 205
VWidth: 0
Flags: HMW
LayerCount: 2
Fore
SplineSet
261 699 m 1
 316 700 l 1
 74 0 l 1
 23 0 l 1
 261 699 l 1
289 811 m 0
 293 827 319 848 336 846 c 0
 354 844 365 826 361 808 c 0
 357 792 331 771 314 773 c 0
 296 775 285 793 289 811 c 0
EndSplineSet
EndChar

StartChar: uni0136
Encoding: 310 310 292
Width: 489
VWidth: 0
Flags: HMW
LayerCount: 2
Fore
SplineSet
261 699 m 1
 316 700 l 1
 75 0 l 1
 23 0 l 1
 261 699 l 1
584 699 m 1
 656 699 l 1
 249 369 l 1
 426 0 l 1
 364 0 l 1
 186 374 l 1
 584 699 l 1
222 -62 m 1
 270 -83 l 1
 79 -328 l 1
 46 -315 l 1
 222 -62 l 1
EndSplineSet
EndChar

StartChar: uni0137
Encoding: 311 311 293
Width: 387
VWidth: 0
Flags: HMW
LayerCount: 2
Fore
SplineSet
280 779 m 1
 333 780 l 1
 64 0 l 1
 15 0 l 1
 280 779 l 1
404 459 m 1
 473 459 l 1
 200 268 l 1
 329 0 l 1
 270 0 l 1
 139 273 l 1
 404 459 l 1
171 -62 m 1
 218 -83 l 1
 27 -328 l 1
 -6 -315 l 1
 171 -62 l 1
EndSplineSet
EndChar

StartChar: Lacute
Encoding: 313 313 294
Width: 415
VWidth: 0
Flags: HMW
LayerCount: 2
Fore
SplineSet
263 700 m 1
 318 700 l 1
 95 52 l 1
 367 52 l 1
 349 0 l 1
 23 0 l 1
 263 700 l 1
642 918 m 1
 424 771 l 1
 400 792 l 1
 603 948 l 1
 642 918 l 1
EndSplineSet
EndChar

StartChar: lacute
Encoding: 314 314 295
Width: 197
VWidth: 0
Flags: HMW
LayerCount: 2
Fore
SplineSet
285 779 m 1
 338 780 l 1
 68 0 l 1
 20 0 l 1
 285 779 l 1
525 989 m 1
 306 842 l 1
 282 863 l 1
 485 1019 l 1
 525 989 l 1
EndSplineSet
EndChar

StartChar: uni013B
Encoding: 315 315 296
Width: 415
VWidth: 0
Flags: HMW
LayerCount: 2
Fore
SplineSet
263 700 m 1
 318 700 l 1
 95 52 l 1
 367 52 l 1
 349 0 l 1
 23 0 l 1
 263 700 l 1
169 -62 m 1
 216 -83 l 1
 26 -328 l 1
 -8 -315 l 1
 169 -62 l 1
EndSplineSet
EndChar

StartChar: uni013C
Encoding: 316 316 297
Width: 197
VWidth: 0
Flags: HMW
LayerCount: 2
Fore
SplineSet
285 779 m 1
 338 780 l 1
 68 0 l 1
 20 0 l 1
 285 779 l 1
35 -62 m 1
 82 -83 l 1
 -109 -328 l 1
 -142 -315 l 1
 35 -62 l 1
EndSplineSet
EndChar

StartChar: Lcaron
Encoding: 317 317 298
Width: 415
VWidth: 0
Flags: HMW
LayerCount: 2
Fore
SplineSet
263 700 m 1
 318 700 l 1
 95 52 l 1
 367 52 l 1
 349 0 l 1
 23 0 l 1
 263 700 l 1
501 707 m 1
 548 686 l 1
 358 441 l 1
 324 455 l 1
 501 707 l 1
EndSplineSet
EndChar

StartChar: lcaron
Encoding: 318 318 299
Width: 216
VWidth: 0
Flags: HMW
LayerCount: 2
Fore
SplineSet
285 779 m 1
 338 780 l 1
 68 0 l 1
 20 0 l 1
 285 779 l 1
494 772 m 1
 541 750 l 1
 351 506 l 1
 316 519 l 1
 494 772 l 1
EndSplineSet
EndChar

StartChar: Ldot
Encoding: 319 319 300
Width: 415
VWidth: 0
Flags: HMW
LayerCount: 2
Fore
SplineSet
263 700 m 1
 318 700 l 1
 95 52 l 1
 367 52 l 1
 349 0 l 1
 23 0 l 1
 263 700 l 1
332 416 m 0
 336 432 362 453 379 451 c 0
 397 449 408 431 404 413 c 0
 400 397 374 376 357 378 c 0
 339 380 328 398 332 416 c 0
EndSplineSet
EndChar

StartChar: ldot
Encoding: 320 320 301
Width: 348
VWidth: 0
Flags: HMW
LayerCount: 2
Fore
SplineSet
285 779 m 1
 338 780 l 1
 68 0 l 1
 20 0 l 1
 285 779 l 1
292 409 m 0
 296 425 322 446 339 444 c 0
 357 442 368 424 364 406 c 0
 360 390 334 369 317 371 c 0
 299 373 288 391 292 409 c 0
EndSplineSet
EndChar

StartChar: eth
Encoding: 240 240 302
Width: 526
VWidth: 0
Flags: HMW
LayerCount: 2
Fore
SplineSet
453 226 m 0
 483 311 449 407 348 407 c 0
 247 407 152 317 120 226 c 0
 90 142 116 42 219 41 c 0
 324 40 420 131 453 226 c 0
400 700 m 1
 508 377 l 2
 522 327 520 275 504 226 c 0
 464 103 345 -9 210 -9 c 0
 78 -9 31 114 68 227 c 0
 105 338 214 447 337 448 c 0
 386 448 419 427 448 389 c 1
 446 388 l 1
 338 700 l 1
 400 700 l 1
273 543 m 1
 286 584 l 1
 559 584 l 1
 545 543 l 1
 273 543 l 1
EndSplineSet
EndChar

StartChar: racute
Encoding: 341 341 303
Width: 302
VWidth: 0
Flags: HMW
LayerCount: 2
Fore
SplineSet
228 460 m 1
 69 0 l 1
 17 0 l 1
 177 460 l 1
 228 460 l 1
353 400 m 1
 338 410 323 420 304 421 c 0
 230 424 189 337 164 282 c 1
 140 282 l 1
 172 357 229 471 325 469 c 0
 352 469 371 456 392 440 c 1
 353 400 l 1
489 679 m 1
 270 531 l 1
 247 553 l 1
 450 709 l 1
 489 679 l 1
EndSplineSet
EndChar

StartChar: rcaron
Encoding: 345 345 304
Width: 302
VWidth: 0
Flags: HMW
LayerCount: 2
Fore
SplineSet
228 460 m 1
 69 0 l 1
 17 0 l 1
 177 460 l 1
 228 460 l 1
353 400 m 1
 338 410 323 420 304 421 c 0
 230 424 189 337 164 282 c 1
 140 282 l 1
 172 357 229 471 325 469 c 0
 352 469 371 456 392 440 c 1
 353 400 l 1
326 587 m 1
 485 696 l 1
 510 667 l 1
 313 530 l 1
 206 671 l 1
 245 697 l 1
 326 587 l 1
EndSplineSet
EndChar

StartChar: Rcaron
Encoding: 344 344 305
Width: 491
VWidth: 0
Flags: HMW
LayerCount: 2
Fore
SplineSet
250 334 m 1
 307 334 l 1
 418 0 l 1
 357 0 l 1
 250 334 l 1
262 699 m 1
 318 700 l 1
 77 0 l 1
 25 0 l 1
 262 699 l 1
272 651 m 1
 290 700 l 1
 411 700 l 0
 528 695 608 616 569 496 c 0
 529 372 405 299 279 294 c 0
 150 294 l 1
 168 343 l 1
 288 343 l 1
 386 348 482 402 516 497 c 0
 548 588 490 645 401 650 c 1
 272 651 l 1
453 826 m 1
 612 935 l 1
 638 907 l 1
 440 770 l 1
 334 910 l 1
 372 936 l 1
 453 826 l 1
EndSplineSet
EndChar

StartChar: uni0213
Encoding: 531 531 306
Width: 302
VWidth: 0
Flags: HMW
LayerCount: 2
Fore
SplineSet
228 460 m 1
 69 0 l 1
 17 0 l 1
 177 460 l 1
 228 460 l 1
353 400 m 1
 338 410 323 420 304 421 c 0
 230 424 189 337 164 282 c 1
 140 282 l 1
 172 357 229 471 325 469 c 0
 352 469 371 456 392 440 c 1
 353 400 l 1
163 538 m 1
 211 539 l 1
 242 590 286 634 350 634 c 0
 411 634 430 591 424 537 c 1
 460 538 l 1
 476 613 452 675 366 677 c 0
 274 679 205 613 163 538 c 1
EndSplineSet
EndChar

StartChar: uni0212
Encoding: 530 530 307
Width: 491
VWidth: 0
Flags: HMW
LayerCount: 2
Fore
SplineSet
250 334 m 1
 307 334 l 1
 418 0 l 1
 357 0 l 1
 250 334 l 1
262 699 m 1
 318 700 l 1
 77 0 l 1
 25 0 l 1
 262 699 l 1
272 651 m 1
 290 700 l 1
 411 700 l 0
 528 695 608 616 569 496 c 0
 529 372 405 299 279 294 c 0
 150 294 l 1
 168 343 l 1
 288 343 l 1
 386 348 482 402 516 497 c 0
 548 588 490 645 401 650 c 1
 272 651 l 1
310 770 m 1
 358 770 l 1
 389 821 433 865 497 865 c 0
 558 865 576 823 570 769 c 1
 607 769 l 1
 623 844 599 906 513 908 c 0
 421 910 352 845 310 770 c 1
EndSplineSet
EndChar

StartChar: OE
Encoding: 338 338 308
Width: 913
VWidth: 0
Flags: HMW
LayerCount: 2
Fore
SplineSet
580 359 m 1
 598 410 l 1
 912 410 l 1
 895 358 l 1
 580 359 l 1
661 679 m 1
 717 680 l 1
 488 20 l 1
 437 21 l 1
 661 679 l 1
808 51 m 1
 791 0 l 1
 317 0 l 0
 121 7 44 176 101 350 c 0
 164 541 343 694 547 700 c 0
 1030 700 l 1
 1011 648 l 1
 689 648 l 1
 673 648 l 1
 538 648 l 0
 364 642 211 511 155 350 c 0
 104 206 160 59 326 52 c 0
 458 52 l 1
 481 52 l 1
 808 51 l 1
EndSplineSet
EndChar

StartChar: oe
Encoding: 339 339 309
Width: 856
VWidth: 0
Flags: HMW
LayerCount: 2
Fore
SplineSet
799 250 m 1
 825 326 809 421 712 423 c 0
 608 425 528 336 487 250 c 1
 480 231 l 1
 452 147 462 43 572 40 c 0
 646 38 710 86 762 133 c 1
 796 104 l 1
 732 45 655 -10 564 -9 c 0
 432 -7 403 124 436 230 c 0
 441 247 448 263 456 279 c 0
 506 378 608 471 725 469 c 0
 850 467 880 343 849 242 c 0
 847 234 843 226 840 218 c 1
 791 231 l 1
 799 250 l 1
463 218 m 1
 477 261 l 1
 842 262 l 1
 840 217 l 1
 463 218 l 1
59 230 m 0
 98 349 213 470 346 469 c 0
 478 468 494 331 461 230 c 0
 423 115 321 -8 190 -9 c 0
 57 -10 24 123 59 230 c 0
111 230 m 0
 82 148 99 40 205 40 c 0
 307 40 393 141 425 230 c 0
 451 305 445 416 344 420 c 0
 237 424 144 323 111 230 c 0
EndSplineSet
EndChar

StartChar: a.alt
Encoding: 65536 -1 310
Width: 525
VWidth: 0
Flags: HMW
LayerCount: 2
Fore
SplineSet
511 459 m 1
 561 460 l 1
 401 0 l 1
 355 0 l 1
 511 459 l 1
59 230 m 0
 98 350 214 472 348 470 c 0
 478 468 487 326 455 230 c 0
 419 118 321 -8 192 -9 c 0
 58 -10 24 123 59 230 c 0
111 230 m 0
 82 147 101 39 207 40 c 0
 309 41 399 141 431 230 c 0
 457 306 444 416 345 420 c 0
 238 424 144 324 111 230 c 0
EndSplineSet
EndChar

StartChar: Jcircumflex
Encoding: 308 308 312
Width: 209
VWidth: 0
Flags: HMW
LayerCount: 2
Fore
SplineSet
-186 -127 m 1
 -167 -150 -148 -168 -115 -167 c 0
 -50 -166 -12 -104 9 -50 c 1
 266 700 l 1
 318 700 l 1
 58 -61 l 2
 28 -142 -33 -221 -128 -219 c 0
 -171 -218 -200 -198 -226 -167 c 1
 -186 -127 l 1
356 879 m 1
 196 771 l 1
 172 799 l 1
 369 936 l 1
 475 795 l 1
 437 770 l 1
 356 879 l 1
EndSplineSet
EndChar

StartChar: jcircumflex
Encoding: 309 309 313
Width: 208
VWidth: 0
Flags: HMW
LayerCount: 2
Fore
SplineSet
-149 -135 m 1
 -138 -151 -126 -167 -104 -168 c 0
 -50 -169 -19 -105 -2 -63 c 2
 178 460 l 1
 229 460 l 1
 49 -69 l 2
 23 -139 -32 -223 -118 -219 c 0
 -151 -218 -170 -199 -189 -175 c 1
 -149 -135 l 1
268 640 m 1
 109 531 l 1
 83 559 l 1
 281 696 l 1
 387 556 l 1
 350 531 l 1
 268 640 l 1
EndSplineSet
EndChar

StartChar: Nacute
Encoding: 323 323 314
Width: 687
VWidth: 0
Flags: HMW
LayerCount: 2
Fore
SplineSet
749 700 m 1
 803 700 l 1
 553 -26 l 1
 264 584 l 1
 62 0 l 1
 7 0 l 1
 257 726 l 1
 547 114 l 1
 749 700 l 1
752 904 m 1
 534 757 l 1
 510 778 l 1
 713 934 l 1
 752 904 l 1
EndSplineSet
EndChar

StartChar: nacute
Encoding: 324 324 315
Width: 474
VWidth: 0
Flags: HMW
LayerCount: 2
Fore
SplineSet
228 460 m 1
 69 0 l 1
 17 0 l 1
 177 460 l 1
 228 460 l 1
399 296 m 2
 416 351 417 417 344 420 c 0
 261 423 200 347 164 282 c 1
 146 282 l 1
 185 370 257 469 364 469 c 0
 463 469 474 379 451 302 c 1
 346 0 l 1
 297 0 l 1
 399 296 l 2
552 683 m 1
 335 535 l 1
 311 557 l 1
 514 713 l 1
 552 683 l 1
EndSplineSet
EndChar

StartChar: uni0145
Encoding: 325 325 316
Width: 687
VWidth: 0
Flags: HMW
LayerCount: 2
Fore
SplineSet
285 -41 m 1
 332 -62 l 1
 141 -307 l 1
 108 -294 l 1
 285 -41 l 1
749 700 m 1
 803 700 l 1
 553 -26 l 1
 264 584 l 1
 62 0 l 1
 7 0 l 1
 257 726 l 1
 547 114 l 1
 749 700 l 1
EndSplineSet
EndChar

StartChar: uni0146
Encoding: 326 326 317
Width: 474
VWidth: 0
Flags: HMW
LayerCount: 2
Fore
SplineSet
228 460 m 1
 69 0 l 1
 17 0 l 1
 177 460 l 1
 228 460 l 1
399 296 m 2
 416 351 417 417 344 420 c 0
 261 423 200 347 164 282 c 1
 141 282 l 1
 181 370 256 469 364 469 c 0
 463 469 474 379 451 302 c 1
 346 0 l 1
 297 0 l 1
 399 296 l 2
172 -54 m 1
 220 -75 l 1
 29 -320 l 1
 -5 -307 l 1
 172 -54 l 1
EndSplineSet
EndChar

StartChar: Ncaron
Encoding: 327 327 318
Width: 687
VWidth: 0
Flags: HMW
LayerCount: 2
Fore
SplineSet
582 840 m 1
 741 949 l 1
 766 920 l 1
 569 783 l 1
 463 924 l 1
 501 950 l 1
 582 840 l 1
749 700 m 1
 803 700 l 1
 553 -26 l 1
 264 584 l 1
 62 0 l 1
 7 0 l 1
 257 726 l 1
 547 114 l 1
 749 700 l 1
EndSplineSet
EndChar

StartChar: ncaron
Encoding: 328 328 319
Width: 474
VWidth: 0
Flags: HMW
LayerCount: 2
Fore
SplineSet
228 460 m 1
 69 0 l 1
 17 0 l 1
 177 460 l 1
 228 460 l 1
399 296 m 2
 416 351 417 417 344 420 c 0
 261 423 200 347 164 282 c 1
 141 282 l 1
 181 370 256 469 364 469 c 0
 463 469 474 379 451 302 c 1
 346 0 l 1
 297 0 l 1
 399 296 l 2
380 587 m 1
 539 696 l 1
 564 667 l 1
 367 530 l 1
 260 671 l 1
 298 697 l 1
 380 587 l 1
EndSplineSet
EndChar

StartChar: Omacron
Encoding: 332 332 320
Width: 737
VWidth: 0
Flags: HMW
LayerCount: 2
Fore
SplineSet
163 350 m 0
 115 213 157 49 326 47 c 0
 499 45 651 196 705 350 c 0
 753 487 711 651 542 653 c 0
 369 655 217 504 163 350 c 0
105 350 m 0
 166 536 348 710 552 709 c 0
 751 708 818 517 763 350 c 0
 702 164 520 -10 316 -9 c 0
 117 -8 50 183 105 350 c 0
415 778 m 1
 431 826 l 1
 763 826 l 1
 746 777 l 1
 415 778 l 1
EndSplineSet
EndChar

StartChar: omacron
Encoding: 333 333 321
Width: 517
VWidth: 0
Flags: HMW
LayerCount: 2
Fore
SplineSet
59 230 m 0
 99 354 225 469 361 469 c 0
 494 469 544 344 507 230 c 0
 467 106 341 -9 205 -9 c 0
 72 -9 22 116 59 230 c 0
111 230 m 0
 80 144 109 41 214 40 c 0
 322 39 421 133 455 230 c 0
 486 316 457 419 352 420 c 0
 244 421 145 327 111 230 c 0
224 539 m 1
 240 587 l 1
 571 587 l 1
 555 538 l 1
 224 539 l 1
EndSplineSet
EndChar

StartChar: Obreve
Encoding: 334 334 322
Width: 737
VWidth: 0
Flags: HMW
LayerCount: 2
Fore
SplineSet
163 350 m 0
 115 213 157 49 326 47 c 0
 499 45 651 196 705 350 c 0
 753 487 711 651 542 653 c 0
 369 655 217 504 163 350 c 0
105 350 m 0
 166 536 348 710 552 709 c 0
 751 708 818 517 763 350 c 0
 702 164 520 -10 316 -9 c 0
 117 -8 50 183 105 350 c 0
475 909 m 1
 519 909 l 1
 512 857 528 814 588 813 c 0
 652 812 697 858 729 908 c 1
 775 907 l 1
 736 832 669 770 580 770 c 0
 493 770 463 831 475 909 c 1
EndSplineSet
EndChar

StartChar: obreve
Encoding: 335 335 323
Width: 517
VWidth: 0
Flags: HMW
LayerCount: 2
Fore
SplineSet
59 230 m 0
 99 354 225 469 361 469 c 0
 494 469 544 344 507 230 c 0
 467 106 341 -9 205 -9 c 0
 72 -9 22 116 59 230 c 0
111 230 m 0
 80 144 109 41 214 40 c 0
 322 39 421 133 455 230 c 0
 486 316 457 419 352 420 c 0
 244 421 145 327 111 230 c 0
284 670 m 1
 328 669 l 1
 321 617 336 575 396 574 c 0
 460 573 505 619 537 669 c 1
 583 668 l 1
 544 593 478 531 389 531 c 0
 302 531 272 592 284 670 c 1
EndSplineSet
EndChar

StartChar: Racute
Encoding: 340 340 324
Width: 491
VWidth: 0
Flags: HMW
LayerCount: 2
Fore
SplineSet
250 334 m 1
 307 334 l 1
 418 0 l 1
 357 0 l 1
 250 334 l 1
262 699 m 1
 318 700 l 1
 77 0 l 1
 25 0 l 1
 262 699 l 1
272 651 m 1
 290 700 l 1
 411 700 l 0
 528 695 608 616 569 496 c 0
 529 372 405 299 279 294 c 0
 150 294 l 1
 168 343 l 1
 288 343 l 1
 386 348 482 402 516 497 c 0
 548 588 490 645 401 650 c 1
 272 651 l 1
627 918 m 1
 409 771 l 1
 384 792 l 1
 588 948 l 1
 627 918 l 1
EndSplineSet
EndChar

StartChar: uni0156
Encoding: 342 342 325
Width: 491
VWidth: 0
Flags: HMW
LayerCount: 2
Fore
SplineSet
250 334 m 1
 307 334 l 1
 418 0 l 1
 357 0 l 1
 250 334 l 1
262 699 m 1
 318 700 l 1
 77 0 l 1
 25 0 l 1
 262 699 l 1
272 651 m 1
 290 700 l 1
 411 700 l 0
 528 695 608 616 569 496 c 0
 529 372 405 299 279 294 c 0
 150 294 l 1
 168 343 l 1
 288 343 l 1
 386 348 482 402 516 497 c 0
 548 588 490 645 401 650 c 1
 272 651 l 1
200 -62 m 1
 248 -83 l 1
 58 -328 l 1
 24 -315 l 1
 200 -62 l 1
EndSplineSet
EndChar

StartChar: uni0157
Encoding: 343 343 326
Width: 302
VWidth: 0
Flags: HMW
LayerCount: 2
Fore
SplineSet
228 460 m 1
 69 0 l 1
 17 0 l 1
 177 460 l 1
 228 460 l 1
353 400 m 1
 338 410 323 420 304 421 c 0
 230 424 189 337 164 282 c 1
 140 282 l 1
 172 357 229 471 325 469 c 0
 352 469 371 456 392 440 c 1
 353 400 l 1
27 -62 m 1
 74 -83 l 1
 -116 -328 l 1
 -150 -315 l 1
 27 -62 l 1
EndSplineSet
EndChar

StartChar: Scedilla
Encoding: 350 350 327
Width: 492
VWidth: 0
Flags: HMW
LayerCount: 2
Fore
SplineSet
100 214 m 1
 104 137 123 45 219 44 c 0
 302 43 377 103 404 180 c 0
 433 263 377 312 309 346 c 0
 230 385 171 443 201 539 c 0
 232 636 334 708 436 708 c 0
 530 708 569 638 580 555 c 1
 529 528 l 1
 521 592 496 654 421 655 c 0
 351 656 279 603 256 537 c 0
 228 456 300 416 361 385 c 0
 442 344 490 276 461 183 c 0
 428 75 321 -9 206 -8 c 0
 92 -7 54 90 47 188 c 1
 100 214 l 1
219 33 m 1
 260 33 l 1
 168 -62 l 1
 178 -58 190 -52 201 -53 c 0
 239 -59 258 -92 248 -129 c 0
 234 -181 169 -220 117 -220 c 0
 84 -220 64 -203 42 -181 c 1
 71 -157 l 1
 86 -171 101 -184 124 -184 c 0
 156 -184 202 -158 211 -126 c 0
 218 -101 202 -82 178 -80 c 0
 154 -77 126 -90 104 -99 c 1
 219 33 l 1
EndSplineSet
EndChar

StartChar: scedilla
Encoding: 351 351 328
Width: 379
VWidth: 0
Flags: HMW
LayerCount: 2
Fore
SplineSet
66 156 m 1
 71 103 87 42 152 40 c 0
 200 38 256 74 272 121 c 0
 290 174 244 201 203 220 c 0
 146 248 97 281 120 352 c 0
 143 422 219 469 291 469 c 0
 355 469 390 432 408 375 c 1
 361 351 l 1
 348 389 327 420 282 421 c 0
 239 422 185 396 170 353 c 0
 150 298 207 277 247 259 c 0
 303 233 344 190 325 125 c 0
 302 47 223 -9 143 -8 c 0
 57 -7 26 60 19 133 c 1
 66 156 l 1
155 33 m 1
 197 33 l 1
 104 -62 l 1
 113 -58 125 -53 136 -54 c 0
 175 -60 193 -91 184 -129 c 0
 171 -182 105 -221 53 -220 c 0
 20 -219 1 -203 -21 -181 c 1
 7 -157 l 1
 22 -171 37 -184 60 -184 c 0
 92 -184 138 -159 147 -127 c 0
 154 -102 137 -82 113 -80 c 0
 89 -77 63 -91 41 -100 c 1
 155 33 l 1
EndSplineSet
EndChar

StartChar: Zcaron
Encoding: 381 381 329
Width: 508
VWidth: 0
Flags: HMW
LayerCount: 2
Fore
SplineSet
200 648 m 1
 219 700 l 1
 680 699 l 1
 71 53 l 1
 443 52 l 1
 424 0 l 1
 -42 0 l 1
 568 647 l 1
 200 648 l 1
487 826 m 1
 646 935 l 1
 672 907 l 1
 474 770 l 1
 368 910 l 1
 406 936 l 1
 487 826 l 1
EndSplineSet
EndChar

StartChar: zcaron
Encoding: 382 382 330
Width: 420
VWidth: 0
Flags: HMW
LayerCount: 2
Fore
SplineSet
363 587 m 1
 523 696 l 1
 547 667 l 1
 350 530 l 1
 244 671 l 1
 282 697 l 1
 363 587 l 1
395 410 m 1
 125 411 l 1
 142 460 l 1
 508 459 l 1
 70 50 l 1
 358 49 l 1
 341 0 l 1
 -42 0 l 1
 395 410 l 1
EndSplineSet
EndChar

StartChar: Ydieresis
Encoding: 376 376 331
Width: 507
VWidth: 0
Flags: HMW
LayerCount: 2
Fore
SplineSet
349 808 m 0
 353 824 378 845 395 843 c 0
 413 841 425 823 421 805 c 0
 417 789 390 768 373 770 c 0
 354 772 345 791 349 808 c 0
529 808 m 0
 533 824 559 845 576 843 c 0
 594 841 606 823 602 805 c 0
 598 789 571 768 554 770 c 0
 535 772 525 791 529 808 c 0
623 699 m 1
 687 699 l 1
 322 285 l 1
 224 0 l 1
 169 0 l 1
 271 291 l 1
 194 700 l 1
 251 700 l 1
 311 340 l 1
 623 699 l 1
EndSplineSet
EndChar

StartChar: Scaron
Encoding: 352 352 332
Width: 492
VWidth: 0
Flags: HMW
LayerCount: 2
Fore
SplineSet
100 214 m 1
 104 137 123 45 219 44 c 0
 302 43 377 103 404 180 c 0
 433 263 377 311 309 346 c 0
 231 386 171 449 201 542 c 0
 232 638 336 709 436 708 c 0
 529 707 571 638 580 555 c 1
 529 528 l 1
 522 591 501 653 427 655 c 0
 356 656 279 604 256 537 c 0
 228 457 300 416 361 385 c 0
 442 344 489 276 460 183 c 0
 427 74 322 -9 206 -8 c 0
 92 -7 54 90 47 188 c 1
 100 214 l 1
477 830 m 1
 636 939 l 1
 662 911 l 1
 464 774 l 1
 358 914 l 1
 396 940 l 1
 477 830 l 1
EndSplineSet
EndChar

StartChar: scaron
Encoding: 353 353 333
Width: 379
VWidth: 0
Flags: HMW
LayerCount: 2
Fore
SplineSet
68 155 m 1
 67 98 81 41 149 40 c 0
 199 39 256 73 272 121 c 0
 291 175 244 201 203 221 c 0
 148 248 98 285 121 354 c 0
 143 423 221 468 291 468 c 0
 355 468 393 433 408 374 c 1
 361 350 l 1
 347 387 327 419 282 419 c 0
 239 419 183 392 169 349 c 0
 151 296 207 274 246 256 c 0
 299 230 343 188 325 124 c 0
 303 44 218 -11 137 -9 c 0
 51 -8 19 56 19 132 c 1
 68 155 l 1
331 587 m 1
 490 696 l 1
 516 667 l 1
 318 530 l 1
 211 671 l 1
 250 697 l 1
 331 587 l 1
EndSplineSet
EndChar

StartChar: Lslash
Encoding: 321 321 334
Width: 394
VWidth: 0
Flags: HMW
LayerCount: 2
Fore
SplineSet
68 360 m 1
 66 397 l 1
 378 564 l 1
 381 527 l 1
 68 360 l 1
260 700 m 1
 315 700 l 1
 92 52 l 1
 351 52 l 1
 332 0 l 1
 19 0 l 1
 260 700 l 1
EndSplineSet
EndChar

StartChar: lslash
Encoding: 322 322 335
Width: 189
VWidth: 0
Flags: HMW
LayerCount: 2
Fore
SplineSet
69 360 m 1
 66 397 l 1
 326 544 l 1
 329 507 l 1
 69 360 l 1
282 779 m 1
 334 780 l 1
 65 0 l 1
 16 0 l 1
 282 779 l 1
EndSplineSet
EndChar

StartChar: uni0218
Encoding: 536 536 336
Width: 492
VWidth: 0
Flags: HMW
LayerCount: 2
Fore
SplineSet
100 214 m 1
 104 137 123 45 219 44 c 0
 302 43 377 103 404 180 c 0
 433 263 377 311 309 346 c 0
 231 386 171 449 201 542 c 0
 232 638 336 709 436 708 c 0
 529 707 571 638 580 555 c 1
 529 528 l 1
 522 591 501 653 427 655 c 0
 356 656 279 604 256 537 c 0
 228 457 300 416 361 385 c 0
 442 344 490 276 461 183 c 0
 428 74 322 -9 206 -8 c 0
 92 -7 54 90 47 188 c 1
 100 214 l 1
200 -71 m 1
 247 -92 l 1
 57 -337 l 1
 23 -324 l 1
 200 -71 l 1
EndSplineSet
EndChar

StartChar: uni0219
Encoding: 537 537 337
Width: 379
VWidth: 0
Flags: HMW
LayerCount: 2
Fore
SplineSet
68 155 m 1
 67 98 80 41 148 40 c 0
 198 39 256 73 272 121 c 0
 291 175 244 201 203 221 c 0
 148 248 98 285 121 354 c 0
 143 423 221 468 291 468 c 0
 355 468 393 433 408 374 c 1
 361 350 l 1
 347 387 327 419 282 419 c 0
 239 419 183 392 169 349 c 0
 151 296 207 274 246 256 c 0
 299 230 343 188 325 124 c 0
 303 44 218 -11 137 -9 c 0
 51 -8 19 56 19 132 c 1
 68 155 l 1
131 -72 m 1
 177 -93 l 1
 -13 -338 l 1
 -47 -325 l 1
 131 -72 l 1
EndSplineSet
EndChar

StartChar: pi
Encoding: 960 960 338
Width: 481
VWidth: 0
Flags: HMW
LayerCount: 2
Fore
SplineSet
178 437 m 1
 232 438 l 1
 79 0 l 1
 30 0 l 1
 178 437 l 1
130 460 m 1
 548 460 l 1
 531 411 l 1
 113 411 l 1
 130 460 l 1
415 438 m 1
 467 438 l 1
 360 133 l 1
 347 90 337 63 380 43 c 1
 363 -8 l 1
 288 7 285 52 306 121 c 1
 415 438 l 1
EndSplineSet
EndChar

StartChar: trademark
Encoding: 8482 8482 339
Width: 625
VWidth: 0
Flags: HMW
LayerCount: 2
Fore
SplineSet
208 674 m 1
 216 699 l 1
 417 699 l 1
 409 674 l 1
 321 674 l 1
 210 351 l 1
 183 351 l 1
 293 674 l 1
 208 674 l 1
702 636 m 1
 751 720 l 1
 660 350 l 1
 633 351 l 1
 702 636 l 1
484 712 m 1
 474 632 l 1
 347 351 l 1
 320 352 l 1
 484 712 l 1
752 719 m 1
 726 650 l 1
 504 389 l 1
 464 658 l 1
 483 713 l 1
 520 447 l 1
 752 719 l 1
EndSplineSet
EndChar

StartChar: uni2219
Encoding: 8729 8729 340
Width: 266
VWidth: 0
Flags: HMW
LayerCount: 2
Fore
SplineSet
190 430 m 0
 194 446 220 467 237 465 c 0
 255 463 265 445 261 427 c 0
 257 411 231 390 214 392 c 0
 196 394 186 412 190 430 c 0
EndSplineSet
EndChar

StartChar: agrave.alt
Encoding: 65537 -1 341
Width: 525
VWidth: 0
Flags: HMW
LayerCount: 2
Fore
SplineSet
511 459 m 1
 561 460 l 1
 401 0 l 1
 355 0 l 1
 511 459 l 1
59 230 m 0
 98 350 214 472 348 470 c 0
 478 468 487 326 455 230 c 0
 419 118 321 -8 192 -9 c 0
 58 -10 24 123 59 230 c 0
111 230 m 0
 82 147 101 39 207 40 c 0
 309 41 399 141 431 230 c 0
 457 306 444 416 345 420 c 0
 238 424 144 324 111 230 c 0
304 688 m 1
 357 714 l 1
 454 553 l 1
 423 534 l 1
 304 688 l 1
EndSplineSet
EndChar

StartChar: aacute.alt
Encoding: 65538 -1 342
Width: 525
VWidth: 0
Flags: HMW
LayerCount: 2
Fore
SplineSet
511 459 m 1
 561 460 l 1
 401 1 l 1
 355 0 l 1
 511 459 l 1
59 230 m 0
 98 350 214 472 348 470 c 0
 478 468 487 326 455 230 c 0
 419 118 321 -8 192 -9 c 0
 58 -10 24 123 59 230 c 0
111 230 m 0
 82 147 101 39 207 40 c 0
 309 41 399 141 431 230 c 0
 457 306 444 416 345 420 c 0
 238 424 144 324 111 230 c 0
537 683 m 1
 318 536 l 1
 294 557 l 1
 497 713 l 1
 537 683 l 1
EndSplineSet
EndChar

StartChar: acircumflex.alt
Encoding: 65539 -1 343
Width: 525
VWidth: 0
Flags: HMW
LayerCount: 2
Fore
SplineSet
511 459 m 1
 561 460 l 1
 401 0 l 1
 355 0 l 1
 511 459 l 1
59 230 m 0
 98 350 214 472 348 470 c 0
 478 468 487 326 455 230 c 0
 419 118 321 -8 192 -9 c 0
 58 -10 24 123 59 230 c 0
111 230 m 0
 82 147 101 39 207 40 c 0
 309 41 399 141 431 230 c 0
 457 306 444 416 345 420 c 0
 238 424 144 324 111 230 c 0
428 648 m 1
 269 539 l 1
 243 567 l 1
 441 704 l 1
 547 564 l 1
 509 539 l 1
 428 648 l 1
EndSplineSet
EndChar

StartChar: atilde.alt
Encoding: 65540 -1 344
Width: 525
VWidth: 0
Flags: HMW
LayerCount: 2
Fore
SplineSet
511 459 m 1
 561 460 l 1
 401 0 l 1
 355 0 l 1
 511 459 l 1
59 230 m 0
 98 350 214 472 348 470 c 0
 478 468 487 326 455 230 c 0
 419 118 321 -8 192 -9 c 0
 58 -10 24 123 59 230 c 0
111 230 m 0
 82 147 101 39 207 40 c 0
 309 41 399 141 431 230 c 0
 457 306 444 416 345 420 c 0
 238 424 144 324 111 230 c 0
252 563 m 1
 265 597 322 632 357 632 c 0
 396 632 418 584 458 587 c 0
 486 589 509 615 528 633 c 1
 552 605 l 1
 526 578 489 541 447 543 c 0
 409 545 388 590 349 588 c 0
 318 586 298 561 281 539 c 1
 252 563 l 1
EndSplineSet
EndChar

StartChar: adieresis.alt
Encoding: 65541 -1 345
Width: 525
VWidth: 0
Flags: HMW
LayerCount: 2
Fore
SplineSet
511 459 m 1
 561 460 l 1
 401 0 l 1
 355 0 l 1
 511 459 l 1
59 230 m 0
 98 350 214 472 348 470 c 0
 478 468 487 326 455 230 c 0
 419 118 321 -8 192 -9 c 0
 58 -10 24 123 59 230 c 0
111 230 m 0
 82 147 101 39 207 40 c 0
 309 41 399 141 431 230 c 0
 457 306 444 416 345 420 c 0
 238 424 144 324 111 230 c 0
465 589 m 0
 469 605 495 626 512 624 c 0
 530 622 541 604 537 586 c 0
 533 570 506 549 489 551 c 0
 471 553 461 571 465 589 c 0
277 589 m 0
 281 605 307 626 324 624 c 0
 342 622 352 604 348 586 c 0
 344 570 318 549 301 551 c 0
 283 553 273 571 277 589 c 0
EndSplineSet
EndChar

StartChar: aring.alt
Encoding: 65542 -1 346
Width: 525
VWidth: 0
Flags: HMW
LayerCount: 2
Fore
SplineSet
511 459 m 1
 561 460 l 1
 401 0 l 1
 355 0 l 1
 511 459 l 1
59 230 m 0
 98 350 214 472 348 470 c 0
 478 468 487 326 455 230 c 0
 419 118 321 -8 192 -9 c 0
 58 -10 24 123 59 230 c 0
111 230 m 0
 82 147 101 39 207 40 c 0
 309 41 399 141 431 230 c 0
 457 306 444 416 345 420 c 0
 238 424 144 324 111 230 c 0
289 630 m 0
 305 680 363 729 417 728 c 0
 471 727 498 677 483 628 c 0
 467 578 408 529 354 530 c 0
 300 531 274 581 289 630 c 0
322 629 m 0
 313 600 327 564 360 563 c 0
 394 562 440 599 450 630 c 0
 459 659 445 695 412 696 c 0
 377 697 332 660 322 629 c 0
EndSplineSet
EndChar

StartChar: amacron.alt
Encoding: 65543 -1 347
Width: 525
VWidth: 0
Flags: HMW
LayerCount: 2
Fore
SplineSet
511 459 m 1
 561 460 l 1
 401 0 l 1
 355 0 l 1
 511 459 l 1
59 230 m 0
 98 350 214 472 348 470 c 0
 478 468 487 326 455 230 c 0
 419 118 321 -8 192 -9 c 0
 58 -10 24 123 59 230 c 0
111 230 m 0
 82 147 101 39 207 40 c 0
 309 41 399 141 431 230 c 0
 457 306 444 416 345 420 c 0
 238 424 144 324 111 230 c 0
216 551 m 1
 232 599 l 1
 564 599 l 1
 547 550 l 1
 216 551 l 1
EndSplineSet
EndChar

StartChar: abreve.alt
Encoding: 65544 -1 348
Width: 525
VWidth: 0
Flags: HMW
LayerCount: 2
Fore
SplineSet
511 459 m 1
 561 460 l 1
 401 0 l 1
 355 0 l 1
 511 459 l 1
59 230 m 0
 98 350 214 472 348 470 c 0
 478 468 487 326 455 230 c 0
 419 118 321 -8 192 -9 c 0
 58 -10 24 123 59 230 c 0
111 230 m 0
 82 147 101 39 207 40 c 0
 309 41 399 141 431 230 c 0
 457 306 444 416 345 420 c 0
 238 424 144 324 111 230 c 0
249 677 m 1
 293 677 l 1
 287 625 303 582 363 581 c 0
 427 580 472 625 503 676 c 1
 549 675 l 1
 512 599 446 538 357 538 c 0
 271 538 238 599 249 677 c 1
EndSplineSet
EndChar

StartChar: aogonek.alt
Encoding: 65545 -1 349
Width: 525
VWidth: 0
Flags: HMW
LayerCount: 2
Fore
SplineSet
511 459 m 1
 561 460 l 1
 401 1 l 1
 355 0 l 1
 511 459 l 1
59 230 m 0
 98 350 214 472 348 470 c 0
 478 468 487 326 455 230 c 0
 419 118 321 -8 192 -9 c 0
 58 -10 24 123 59 230 c 0
111 230 m 0
 82 147 101 39 207 40 c 0
 309 41 399 141 431 230 c 0
 457 306 444 416 345 420 c 0
 238 424 144 324 111 230 c 0
366 -148 m 1
 377 -183 l 1
 347 -202 316 -219 279 -219 c 0
 224 -220 183 -185 199 -127 c 0
 221 -51 315 -12 380 18 c 1
 403 0 l 1
 354 -26 269 -55 253 -116 c 0
 245 -147 262 -170 293 -173 c 0
 318 -175 345 -160 366 -148 c 1
EndSplineSet
EndChar

StartChar: dagger
Encoding: 8224 8224 350
Width: 509
VWidth: 0
Flags: HMW
LayerCount: 2
Fore
SplineSet
216 540 m 1
 559 540 l 1
 543 491 l 1
 200 491 l 1
 216 540 l 1
411 700 m 1
 463 700 l 1
 199 -150 l 1
 150 -149 l 1
 411 700 l 1
EndSplineSet
EndChar

StartChar: daggerdbl
Encoding: 8225 8225 351
Width: 509
VWidth: 0
Flags: HMW
LayerCount: 2
Fore
SplineSet
86 120 m 1
 430 120 l 1
 414 71 l 1
 71 71 l 1
 86 120 l 1
216 540 m 1
 559 540 l 1
 543 491 l 1
 200 491 l 1
 216 540 l 1
411 700 m 1
 463 700 l 1
 199 -150 l 1
 150 -149 l 1
 411 700 l 1
EndSplineSet
EndChar

StartChar: ellipsis
Encoding: 8230 8230 352
Width: 813
VWidth: 0
Flags: HMW
LayerCount: 2
Fore
SplineSet
52 26 m 0
 56 42 82 63 99 61 c 0
 117 59 128 41 124 23 c 0
 120 7 94 -14 77 -12 c 0
 59 -10 48 8 52 26 c 0
325 26 m 0
 329 42 355 63 372 61 c 0
 390 59 401 41 397 23 c 0
 393 7 367 -14 350 -12 c 0
 332 -10 321 8 325 26 c 0
598 26 m 0
 602 42 628 63 645 61 c 0
 663 59 674 41 670 23 c 0
 666 7 640 -14 623 -12 c 0
 605 -10 594 8 598 26 c 0
EndSplineSet
EndChar

StartChar: uniFF10
Encoding: 65296 65296 353
Width: 533
VWidth: 0
Flags: HMW
LayerCount: 2
Fore
SplineSet
156 350 m 0
 126 264 73 46 223 43 c 0
 373 40 468 231 509 350 c 0
 539 436 592 654 442 657 c 0
 292 660 197 469 156 350 c 0
102 350 m 0
 151 498 270 710 451 709 c 0
 636 708 602 467 563 350 c 0
 514 202 394 -10 213 -9 c 0
 28 -8 63 233 102 350 c 0
EndSplineSet
EndChar

StartChar: uniFF11
Encoding: 65297 65297 354
Width: 533
VWidth: 0
Flags: HMW
LayerCount: 2
Fore
SplineSet
275 599 m 1
 296 658 l 1
 520 709 l 1
 276 0 l 1
 222 0 l 1
 442 639 l 1
 275 599 l 1
EndSplineSet
EndChar

StartChar: uniFF12
Encoding: 65298 65298 355
Width: 533
VWidth: 0
Flags: HMW
LayerCount: 2
Fore
SplineSet
-24 0 m 1
 398 345 l 2
 453 390 511 442 535 511 c 0
 560 581 533 655 451 658 c 0
 337 661 261 553 219 461 c 1
 166 462 l 1
 217 583 315 712 461 710 c 0
 575 709 621 607 588 507 c 0
 562 428 498 366 436 315 c 2
 105 53 l 1
 446 52 l 1
 428 0 l 1
 -24 0 l 1
EndSplineSet
EndChar

StartChar: uniFF13
Encoding: 65299 65299 356
Width: 533
VWidth: 0
Flags: HMW
LayerCount: 2
Fore
SplineSet
311 353 m 1
 322 388 l 1
 407 400 497 439 529 526 c 0
 552 590 528 657 453 659 c 0
 369 661 309 594 272 527 c 1
 220 528 l 1
 265 625 348 710 462 709 c 0
 563 708 615 620 584 527 c 0
 546 411 423 362 311 353 c 1
221 -9 m 0
 103 -9 52 77 75 185 c 1
 129 184 l 1
 114 105 141 44 230 43 c 0
 316 42 404 105 432 187 c 0
 465 283 391 328 307 339 c 1
 318 374 l 1
 428 365 524 304 484 180 c 0
 448 70 336 -9 221 -9 c 0
EndSplineSet
EndChar

StartChar: uniFF14
Encoding: 65300 65300 357
Width: 533
VWidth: 0
Flags: HMW
LayerCount: 2
Fore
SplineSet
9 141 m 1
 70 188 l 1
 377 189 l 1
 389 189 l 1
 518 189 l 1
 501 140 l 1
 9 141 l 1
70 142 m 1
 9 141 l 1
 565 698 l 1
 588 699 l 1
 348 0 l 1
 294 0 l 1
 351 162 l 1
 353 171 l 1
 490 565 l 1
 70 142 l 1
EndSplineSet
EndChar

StartChar: uniFF15
Encoding: 65301 65301 358
Width: 533
VWidth: 0
Flags: HMW
LayerCount: 2
Fore
SplineSet
509 230 m 0
 468 101 346 -9 206 -9 c 0
 109 -9 55 49 33 138 c 1
 85 168 l 1
 100 98 138 44 216 43 c 0
 325 42 418 131 453 230 c 0
 482 311 456 403 358 407 c 0
 281 411 211 369 149 330 c 1
 199 380 l 1
 249 425 320 458 388 457 c 0
 513 455 541 331 509 230 c 0
390 651 m 1
 238 392 l 1
 142 323 l 1
 362 699 l 1
 675 700 l 1
 659 652 l 1
 390 651 l 1
EndSplineSet
EndChar

StartChar: uniFF16
Encoding: 65302 65302 359
Width: 533
VWidth: 0
Flags: HMW
LayerCount: 2
Fore
SplineSet
124 226 m 0
 94 142 120 42 223 41 c 0
 328 40 424 131 457 226 c 0
 485 307 459 405 360 407 c 0
 256 409 158 320 124 226 c 0
497 699 m 1
 568 699 l 1
 244 390 l 1
 239 395 l 1
 283 425 330 449 385 448 c 0
 505 445 539 324 508 225 c 0
 469 101 348 -9 213 -9 c 0
 80 -9 36 113 73 226 c 0
 92 283 127 334 168 377 c 2
 497 699 l 1
EndSplineSet
EndChar

StartChar: uniFF17
Encoding: 65303 65303 360
Width: 533
VWidth: 0
Flags: HMW
LayerCount: 2
Fore
SplineSet
218 648 m 1
 236 700 l 1
 694 699 l 1
 124 0 l 1
 65 0 l 1
 592 647 l 1
 218 648 l 1
EndSplineSet
EndChar

StartChar: uniFF18
Encoding: 65304 65304 361
Width: 533
VWidth: 0
Flags: HMW
LayerCount: 2
Fore
SplineSet
221 536 m 0
 251 629 351 710 451 709 c 0
 547 708 599 622 571 534 c 0
 541 439 441 361 340 361 c 0
 242 361 192 446 221 536 c 0
269 529 m 0
 249 470 274 399 344 397 c 0
 417 395 494 463 518 529 c 0
 540 590 515 658 443 660 c 0
 369 662 293 597 269 529 c 0
80 189 m 0
 115 295 227 383 340 382 c 0
 449 382 506 288 474 187 c 0
 440 79 327 -10 213 -9 c 0
 103 -8 48 89 80 189 c 0
133 194 m 0
 106 120 136 42 222 40 c 0
 310 38 398 113 426 194 c 0
 450 264 417 344 335 346 c 0
 250 348 161 271 133 194 c 0
EndSplineSet
EndChar

StartChar: uniFF19
Encoding: 65305 65305 362
Width: 533
VWidth: 0
Flags: HMW
LayerCount: 2
Fore
SplineSet
541 474 m 0
 571 558 546 658 443 659 c 0
 338 660 241 569 208 474 c 0
 180 393 206 295 305 293 c 0
 409 291 507 380 541 474 c 0
168 0 m 1
 97 0 l 1
 420 310 l 1
 426 305 l 1
 382 275 336 251 281 252 c 0
 161 255 126 376 157 475 c 0
 196 599 316 709 451 709 c 0
 584 709 630 587 593 474 c 0
 574 417 537 366 496 323 c 2
 168 0 l 1
EndSplineSet
EndChar

StartChar: caron
Encoding: 711 711 363
Width: 451
VWidth: 0
Flags: HMW
LayerCount: 2
Fore
SplineSet
382 627 m 1
 540 736 l 1
 566 707 l 1
 369 570 l 1
 262 711 l 1
 300 737 l 1
 382 627 l 1
EndSplineSet
EndChar

StartChar: napostrophe
Encoding: 329 329 364
Width: 589
VWidth: 0
Flags: HMW
LayerCount: 2
Fore
SplineSet
324 460 m 1
 165 0 l 1
 114 0 l 1
 273 460 l 1
 324 460 l 1
495 296 m 2
 512 351 513 417 440 420 c 0
 357 423 297 347 261 282 c 1
 237 282 l 1
 277 370 352 469 460 469 c 0
 559 469 570 379 547 302 c 1
 442 0 l 1
 393 0 l 1
 495 296 l 2
322 699 m 1
 386 699 l 1
 211 472 l 1
 174 472 l 1
 322 699 l 1
EndSplineSet
EndChar

StartChar: IJ
Encoding: 306 306 365
Width: 461
VWidth: 0
Flags: HMW
LayerCount: 2
Fore
SplineSet
49 -127 m 1
 68 -150 88 -168 121 -167 c 0
 186 -166 223 -104 244 -50 c 1
 501 700 l 1
 553 700 l 1
 293 -61 l 2
 263 -142 203 -221 108 -219 c 0
 65 -218 35 -198 9 -167 c 1
 49 -127 l 1
261 699 m 1
 316 700 l 1
 74 0 l 1
 23 0 l 1
 261 699 l 1
EndSplineSet
EndChar

StartChar: ij
Encoding: 307 307 366
Width: 479
VWidth: 0
Flags: HMW
LayerCount: 2
Fore
SplineSet
482 669 m 0
 486 685 513 706 530 704 c 0
 548 702 558 685 554 667 c 0
 550 651 524 630 507 632 c 0
 489 634 478 651 482 669 c 0
95 -135 m 1
 108 -135 124 -166 141 -168 c 0
 193 -174 227 -102 242 -63 c 2
 423 460 l 1
 474 460 l 1
 293 -69 l 2
 267 -139 213 -223 127 -219 c 0
 94 -218 76 -199 56 -175 c 1
 95 -135 l 1
247 669 m 0
 251 685 277 706 294 704 c 0
 312 702 323 685 319 667 c 0
 315 651 289 630 272 632 c 0
 254 634 243 651 247 669 c 0
186 459 m 1
 239 460 l 1
 79 0 l 1
 30 0 l 1
 186 459 l 1
EndSplineSet
EndChar

StartChar: uni0237
Encoding: 567 567 367
Width: 208
VWidth: 0
Flags: HMW
LayerCount: 2
Fore
SplineSet
-149 -135 m 1
 -138 -151 -126 -167 -104 -168 c 0
 -50 -169 -19 -105 -2 -63 c 2
 178 460 l 1
 229 460 l 1
 49 -69 l 2
 23 -139 -32 -223 -118 -219 c 0
 -151 -218 -170 -199 -189 -175 c 1
 -149 -135 l 1
EndSplineSet
EndChar

StartChar: Sacute
Encoding: 346 346 368
Width: 492
VWidth: 0
Flags: HMW
LayerCount: 2
Fore
SplineSet
100 214 m 1
 104 137 123 45 219 44 c 0
 302 43 377 103 404 180 c 0
 433 263 377 311 309 346 c 0
 231 386 171 449 201 542 c 0
 232 638 336 709 436 708 c 0
 529 707 571 638 580 555 c 1
 529 528 l 1
 522 591 501 653 427 655 c 0
 356 656 279 604 256 537 c 0
 228 457 300 416 361 385 c 0
 442 344 490 276 461 183 c 0
 428 74 322 -9 206 -8 c 0
 92 -7 54 90 47 188 c 1
 100 214 l 1
674 918 m 1
 456 771 l 1
 432 792 l 1
 634 948 l 1
 674 918 l 1
EndSplineSet
EndChar

StartChar: sacute
Encoding: 347 347 369
Width: 379
VWidth: 0
Flags: HMW
LayerCount: 2
Fore
SplineSet
68 155 m 1
 67 98 80 41 148 40 c 0
 198 39 256 73 272 121 c 0
 291 175 244 201 203 221 c 0
 148 248 98 285 121 354 c 0
 143 423 221 468 291 468 c 0
 355 468 393 433 408 374 c 1
 361 350 l 1
 347 387 327 419 282 419 c 0
 239 419 183 392 169 349 c 0
 151 296 207 274 246 256 c 0
 299 230 343 188 325 124 c 0
 303 44 218 -11 137 -9 c 0
 51 -8 19 56 19 132 c 1
 68 155 l 1
529 679 m 1
 312 532 l 1
 287 553 l 1
 489 709 l 1
 529 679 l 1
EndSplineSet
EndChar

StartChar: Scircumflex
Encoding: 348 348 370
Width: 492
VWidth: 0
Flags: HMW
LayerCount: 2
Fore
SplineSet
100 214 m 1
 104 137 123 45 219 44 c 0
 302 43 377 103 404 180 c 0
 433 263 377 311 309 346 c 0
 231 386 171 449 201 542 c 0
 232 638 336 709 436 708 c 0
 529 707 571 638 580 555 c 1
 529 528 l 1
 522 591 501 653 427 655 c 0
 356 656 279 604 256 537 c 0
 228 457 300 416 361 385 c 0
 442 344 489 276 460 183 c 0
 427 74 322 -9 206 -8 c 0
 92 -7 54 90 47 188 c 1
 100 214 l 1
502 879 m 1
 343 771 l 1
 318 799 l 1
 515 936 l 1
 622 795 l 1
 584 770 l 1
 502 879 l 1
EndSplineSet
EndChar

StartChar: scircumflex
Encoding: 349 349 371
Width: 379
VWidth: 0
Flags: HMW
LayerCount: 2
Fore
SplineSet
68 155 m 1
 67 98 81 41 149 40 c 0
 199 39 256 73 272 121 c 0
 291 175 244 201 203 221 c 0
 148 248 98 285 121 354 c 0
 143 423 221 468 291 468 c 0
 355 468 393 433 408 374 c 1
 361 350 l 1
 347 387 327 419 282 419 c 0
 239 419 183 392 169 349 c 0
 151 296 207 274 246 256 c 0
 299 230 343 188 325 124 c 0
 303 44 218 -11 137 -9 c 0
 51 -8 19 56 19 132 c 1
 68 155 l 1
357 640 m 1
 198 531 l 1
 173 559 l 1
 370 696 l 1
 476 556 l 1
 438 531 l 1
 357 640 l 1
EndSplineSet
EndChar

StartChar: uni1E9E
Encoding: 7838 7838 372
Width: 654
VWidth: 0
Flags: HMW
LayerCount: 2
Fore
SplineSet
349 -9 m 0
 233 -9 186 80 207 185 c 1
 260 184 l 1
 246 109 271 44 358 43 c 0
 445 42 529 110 557 191 c 0
 591 289 514 328 430 338 c 1
 442 373 l 1
 552 365 650 310 610 184 c 0
 575 76 465 -9 349 -9 c 0
435 353 m 1
 446 388 l 1
 532 399 623 437 653 526 c 0
 682 611 609 658 532 659 c 0
 376 660 261 534 210 398 c 2
 73 0 l 1
 19 0 l 1
 155 398 l 2
 214 563 354 711 541 710 c 0
 643 710 746 647 710 533 c 0
 673 413 551 363 435 353 c 1
EndSplineSet
EndChar

StartChar: Zacute
Encoding: 377 377 373
Width: 508
VWidth: 0
Flags: HW
LayerCount: 2
Fore
SplineSet
200 648 m 1
 219 700 l 1
 680 699 l 1
 71 53 l 1
 443 52 l 1
 424 0 l 1
 -42 0 l 1
 568 647 l 1
 200 648 l 1
671 918 m 1
 452 771 l 1
 428 792 l 1
 631 948 l 1
 671 918 l 1
EndSplineSet
EndChar

StartChar: zacute
Encoding: 378 378 374
Width: 420
VWidth: 0
Flags: HW
LayerCount: 2
Fore
SplineSet
395 410 m 1
 125 411 l 1
 142 460 l 1
 508 459 l 1
 71 50 l 1
 358 49 l 1
 341 0 l 1
 -42 0 l 1
 395 410 l 1
551 691 m 1
 332 544 l 1
 308 565 l 1
 511 721 l 1
 551 691 l 1
EndSplineSet
EndChar

StartChar: Zdotaccent
Encoding: 379 379 375
Width: 508
VWidth: 0
Flags: HW
LayerCount: 2
Fore
SplineSet
200 648 m 1
 219 700 l 1
 680 699 l 1
 71 53 l 1
 443 52 l 1
 424 0 l 1
 -42 0 l 1
 568 647 l 1
 200 648 l 1
449 808 m 0
 453 824 478 845 495 843 c 0
 513 841 525 823 521 805 c 0
 517 789 490 768 473 770 c 0
 455 772 445 790 449 808 c 0
EndSplineSet
EndChar

StartChar: zdotaccent
Encoding: 380 380 376
Width: 420
VWidth: 0
Flags: HW
LayerCount: 2
Fore
SplineSet
395 410 m 1
 125 411 l 1
 142 460 l 1
 508 459 l 1
 71 50 l 1
 358 49 l 1
 341 0 l 1
 -42 0 l 1
 395 410 l 1
335 599 m 0
 339 615 365 636 382 634 c 0
 400 632 411 614 407 596 c 0
 403 580 377 559 360 561 c 0
 342 563 331 581 335 599 c 0
EndSplineSet
EndChar

StartChar: Tcaron
Encoding: 356 356 377
Width: 424
VWidth: 0
Flags: HW
LayerCount: 2
Fore
SplineSet
178 648 m 1
 197 700 l 1
 598 700 l 1
 579 648 l 1
 406 648 l 1
 184 0 l 1
 130 0 l 1
 352 648 l 1
 178 648 l 1
436 826 m 1
 595 935 l 1
 620 907 l 1
 423 770 l 1
 317 910 l 1
 355 936 l 1
 436 826 l 1
EndSplineSet
EndChar

StartChar: tcaron
Encoding: 357 357 378
Width: 302
VWidth: 0
Flags: HW
LayerCount: 2
Fore
SplineSet
111 460 m 1
 303 460 l 1
 285 411 l 1
 93 411 l 1
 111 460 l 1
235 619 m 1
 288 620 l 1
 73 0 l 1
 25 0 l 1
 235 619 l 1
485 794 m 1
 532 773 l 1
 342 528 l 1
 309 541 l 1
 485 794 l 1
EndSplineSet
EndChar

StartChar: Uring
Encoding: 366 366 379
Width: 569
VWidth: 0
Flags: HW
LayerCount: 2
Fore
SplineSet
259 700 m 1
 313 700 l 1
 149 226 l 2
 123 143 135 45 242 43 c 0
 350 41 429 133 465 226 c 1
 629 700 l 1
 683 700 l 1
 521 226 l 2
 477 104 371 -9 232 -9 c 0
 96 -9 63 113 97 226 c 1
 259 700 l 1
430 871 m 0
 446 921 505 969 559 968 c 0
 613 967 640 917 625 868 c 0
 609 818 550 769 496 770 c 0
 442 771 415 822 430 871 c 0
464 869 m 0
 455 840 469 805 502 802 c 0
 536 799 582 839 592 870 c 0
 601 899 586 933 553 936 c 0
 519 939 474 900 464 869 c 0
EndSplineSet
EndChar

StartChar: uring
Encoding: 367 367 380
Width: 474
VWidth: 0
Flags: HW
LayerCount: 2
Fore
SplineSet
295 0 m 1
 454 460 l 1
 506 460 l 1
 347 0 l 1
 295 0 l 1
126 168 m 2
 109 113 105 42 180 40 c 0
 263 37 323 112 359 178 c 1
 377 178 l 1
 338 90 266 -10 159 -9 c 0
 58 -9 51 85 74 162 c 1
 178 460 l 1
 226 459 l 1
 126 168 l 2
301 632 m 0
 317 682 376 730 430 729 c 0
 484 728 510 677 495 628 c 0
 479 578 421 530 367 531 c 0
 313 532 286 583 301 632 c 0
334 629 m 0
 325 600 339 566 372 563 c 0
 406 560 452 600 462 631 c 0
 471 660 457 694 424 697 c 0
 390 700 344 660 334 629 c 0
EndSplineSet
EndChar

StartChar: uni0123
Encoding: 291 291 381
Width: 536
VWidth: 0
Flags: HW
LayerCount: 2
Fore
SplineSet
-18 -30 m 5
 32 -31 l 5
 17 -108 36 -178 127 -180 c 4
 235 -182 318 -82 354 10 c 5
 509 460 l 5
 561 460 l 5
 408 10 l 6
 364 -111 260 -229 122 -229 c 4
 2 -229 -40 -136 -18 -30 c 5
59 230 m 4
 97 350 212 472 346 470 c 4
 476 468 486 328 455 230 c 4
 419 118 323 -8 194 -9 c 4
 60 -11 24 122 59 230 c 4
111 230 m 4
 81 148 100 40 206 40 c 4
 309 40 399 142 431 232 c 4
 458 306 445 416 347 420 c 4
 240 425 145 324 111 230 c 4
395 555 m 1
 352 587 l 1
 569 810 l 1
 600 789 l 1
 395 555 l 1
EndSplineSet
EndChar

StartChar: Hbar
Encoding: 294 294 382
Width: 646
VWidth: 0
Flags: HW
LayerCount: 2
Fore
SplineSet
175 355 m 1
 191 407 l 1
 638 407 l 1
 621 355 l 1
 175 355 l 1
698 699 m 1
 756 700 l 1
 514 0 l 1
 462 0 l 1
 698 699 l 1
261 699 m 1
 319 700 l 1
 77 0 l 1
 25 0 l 1
 261 699 l 1
144 567 m 1
 160 615 l 1
 801 615 l 1
 785 567 l 1
 144 567 l 1
EndSplineSet
EndChar

StartChar: hbar
Encoding: 295 295 383
Width: 493
VWidth: 0
Flags: HW
LayerCount: 2
Fore
SplineSet
338 780 m 1
 69 0 l 1
 17 0 l 1
 286 780 l 1
 338 780 l 1
399 296 m 2
 416 350 418 416 345 419 c 0
 262 422 202 347 166 282 c 1
 146 283 l 1
 185 371 256 469 363 469 c 0
 462 469 474 379 451 302 c 1
 346 0 l 1
 298 0 l 1
 399 296 l 2
173 652 m 1
 189 700 l 1
 485 700 l 1
 470 652 l 1
 173 652 l 1
EndSplineSet
EndChar

StartChar: Utilde
Encoding: 360 360 384
Width: 569
VWidth: 0
Flags: HW
LayerCount: 2
Fore
SplineSet
259 700 m 1
 314 700 l 1
 149 226 l 2
 123 143 133 45 240 43 c 0
 348 41 428 133 464 226 c 1
 627 700 l 1
 683 700 l 1
 522 226 l 2
 478 104 373 -9 234 -9 c 0
 98 -9 62 112 96 226 c 1
 259 700 l 1
360 794 m 1
 361 828 430 864 462 863 c 0
 501 862 524 815 564 818 c 0
 592 820 616 846 635 864 c 1
 659 835 l 1
 633 808 598 772 557 774 c 0
 519 776 497 820 459 819 c 0
 428 818 408 792 391 770 c 1
 360 794 l 1
EndSplineSet
EndChar

StartChar: utilde
Encoding: 361 361 385
Width: 474
VWidth: 0
Flags: HW
LayerCount: 2
Fore
SplineSet
295 0 m 1
 454 460 l 1
 506 460 l 1
 347 0 l 1
 295 0 l 1
126 168 m 2
 109 114 104 43 179 41 c 0
 262 38 322 112 358 178 c 1
 377 177 l 1
 338 89 268 -9 161 -9 c 0
 60 -9 51 84 74 162 c 1
 177 459 l 1
 226 459 l 1
 126 168 l 2
230 555 m 1
 254 587 288 626 333 624 c 0
 372 623 395 576 434 579 c 0
 462 581 486 608 505 626 c 1
 530 596 l 1
 504 569 469 533 427 535 c 0
 389 537 367 581 329 580 c 0
 298 579 277 553 260 531 c 1
 230 555 l 1
EndSplineSet
EndChar

StartChar: Umacron
Encoding: 362 362 386
Width: 569
VWidth: 0
Flags: HW
LayerCount: 2
Fore
SplineSet
259 700 m 1
 314 700 l 1
 149 226 l 2
 123 143 133 45 240 43 c 0
 348 41 428 133 464 226 c 1
 627 700 l 1
 683 700 l 1
 522 226 l 2
 478 104 373 -9 234 -9 c 0
 98 -9 62 112 96 226 c 1
 259 700 l 1
330 770 m 1
 345 818 l 1
 678 818 l 1
 661 770 l 1
 330 770 l 1
EndSplineSet
EndChar

StartChar: umacron
Encoding: 363 363 387
Width: 474
VWidth: 0
Flags: HW
LayerCount: 2
Fore
SplineSet
295 0 m 1
 454 460 l 1
 506 460 l 1
 347 0 l 1
 295 0 l 1
126 168 m 2
 109 114 104 43 179 41 c 0
 262 38 322 112 358 178 c 1
 377 177 l 1
 338 89 268 -9 161 -9 c 0
 60 -9 51 84 74 162 c 1
 177 459 l 1
 226 459 l 1
 126 168 l 2
201 531 m 1
 216 579 l 1
 549 579 l 1
 532 531 l 1
 201 531 l 1
EndSplineSet
EndChar

StartChar: Ubreve
Encoding: 364 364 388
Width: 569
VWidth: 0
Flags: HW
LayerCount: 2
Fore
SplineSet
259 700 m 1
 314 700 l 1
 149 226 l 2
 123 143 133 45 240 43 c 0
 348 41 428 133 464 226 c 1
 627 700 l 1
 683 700 l 1
 522 226 l 2
 478 104 373 -9 234 -9 c 0
 98 -9 62 112 96 226 c 1
 259 700 l 1
391 909 m 1
 435 909 l 1
 428 858 443 814 503 813 c 0
 567 812 612 858 644 908 c 1
 691 907 l 1
 653 831 588 770 499 770 c 0
 412 770 379 831 391 909 c 1
EndSplineSet
EndChar

StartChar: ubreve
Encoding: 365 365 389
Width: 474
VWidth: 0
Flags: HW
LayerCount: 2
Fore
SplineSet
295 0 m 1
 454 460 l 1
 506 460 l 1
 347 0 l 1
 295 0 l 1
126 168 m 2
 109 114 104 43 179 41 c 0
 262 38 322 112 358 178 c 1
 377 177 l 1
 338 89 268 -9 161 -9 c 0
 60 -9 51 84 74 162 c 1
 177 459 l 1
 226 459 l 1
 126 168 l 2
262 670 m 1
 306 669 l 1
 299 618 313 575 373 574 c 0
 437 573 483 619 515 669 c 1
 562 667 l 1
 524 591 459 531 370 531 c 0
 283 531 250 592 262 670 c 1
EndSplineSet
EndChar

StartChar: Wcircumflex
Encoding: 372 372 390
Width: 915
VWidth: 0
Flags: HW
LayerCount: 2
Fore
SplineSet
648 121 m 1
 1027 699 l 1
 1092 699 l 1
 603 -32 l 1
 601 572 l 1
 201 -32 l 1
 197 700 l 1
 255 700 l 1
 251 121 l 1
 651 732 l 1
 648 121 l 1
715 897 m 1
 556 789 l 1
 529 817 l 1
 725 954 l 1
 833 812 l 1
 796 787 l 1
 715 897 l 1
EndSplineSet
EndChar

StartChar: wcircumflex
Encoding: 373 373 391
Width: 616
VWidth: 0
Flags: HW
LayerCount: 2
Fore
SplineSet
113 460 m 1
 166 460 l 1
 159 109 l 1
 417 491 l 1
 416 107 l 1
 655 459 l 1
 717 459 l 1
 376 -31 l 1
 374 352 l 1
 112 -31 l 1
 113 460 l 1
481 657 m 1
 321 549 l 1
 295 577 l 1
 491 714 l 1
 599 572 l 1
 562 547 l 1
 481 657 l 1
EndSplineSet
EndChar

StartChar: Ycircumflex
Encoding: 374 374 392
Width: 507
VWidth: 0
Flags: HW
LayerCount: 2
Fore
SplineSet
622 699 m 1
 689 699 l 1
 322 283 l 1
 224 0 l 1
 169 0 l 1
 271 293 l 1
 195 700 l 1
 251 700 l 1
 310 341 l 1
 622 699 l 1
499 879 m 1
 339 771 l 1
 312 799 l 1
 508 936 l 1
 617 794 l 1
 580 769 l 1
 499 879 l 1
EndSplineSet
EndChar

StartChar: ycircumflex
Encoding: 375 375 393
Width: 407
VWidth: 0
Flags: HW
LayerCount: 2
Fore
SplineSet
512 459 m 1
 -5 -219 l 1
 -67 -219 l 1
 141 52 l 1
 107 460 l 1
 164 460 l 1
 189 68 l 1
 164 72 l 1
 450 459 l 1
 512 459 l 1
368 639 m 1
 209 531 l 1
 182 560 l 1
 378 696 l 1
 486 555 l 1
 449 530 l 1
 368 639 l 1
EndSplineSet
EndChar

StartChar: uni0400
Encoding: 1024 1024 394
Width: 517
VWidth: 0
Flags: HW
LayerCount: 2
Fore
SplineSet
53 0 m 1
 69 52 l 1
 399 52 l 1
 382 0 l 1
 53 0 l 1
274 649 m 1
 290 700 l 1
 620 700 l 1
 603 649 l 1
 274 649 l 1
175 358 m 1
 192 410 l 1
 502 410 l 1
 485 358 l 1
 175 358 l 1
261 699 m 1
 319 700 l 1
 77 0 l 1
 25 0 l 1
 261 699 l 1
375 933 m 1
 428 959 l 1
 529 798 l 1
 497 780 l 1
 375 933 l 1
EndSplineSet
EndChar

StartChar: uni0401
Encoding: 1025 1025 395
Width: 517
VWidth: 0
Flags: HW
LayerCount: 2
Fore
SplineSet
53 0 m 1
 69 52 l 1
 399 52 l 1
 382 0 l 1
 53 0 l 1
274 649 m 1
 290 700 l 1
 620 700 l 1
 603 649 l 1
 274 649 l 1
175 358 m 1
 192 410 l 1
 502 410 l 1
 485 358 l 1
 175 358 l 1
261 699 m 1
 319 700 l 1
 77 0 l 1
 25 0 l 1
 261 699 l 1
558 837 m 0
 561 853 587 875 604 873 c 0
 622 871 633 853 630 835 c 0
 627 819 601 797 584 799 c 0
 566 801 555 819 558 837 c 0
370 837 m 0
 373 853 399 875 416 873 c 0
 434 871 445 853 442 835 c 0
 439 819 413 797 396 799 c 0
 378 801 367 819 370 837 c 0
EndSplineSet
EndChar

StartChar: uni0403
Encoding: 1027 1027 396
Width: 409
VWidth: 0
Flags: HW
LayerCount: 2
Fore
SplineSet
256 699 m 1
 587 700 l 1
 568 648 l 1
 296 648 l 1
 72 0 l 1
 21 0 l 1
 256 699 l 1
636 928 m 1
 420 781 l 1
 396 801 l 1
 595 957 l 1
 636 928 l 1
EndSplineSet
EndChar

StartChar: uni040C
Encoding: 1036 1036 397
Width: 531
VWidth: 0
Flags: HW
LayerCount: 2
Fore
SplineSet
259 699 m 1
 317 700 l 1
 75 0 l 1
 23 0 l 1
 259 699 l 1
583 699 m 1
 658 699 l 1
 249 367 l 1
 425 0 l 1
 364 0 l 1
 186 375 l 1
 583 699 l 1
693 928 m 1
 477 781 l 1
 450 804 l 1
 652 959 l 1
 693 928 l 1
EndSplineSet
EndChar

StartChar: uni040D
Encoding: 1037 1037 398
Width: 710
VWidth: 0
Flags: HW
LayerCount: 2
Fore
SplineSet
793 641 m 1
 6 -42 l 1
 48 59 l 1
 834 742 l 1
 793 641 l 1
318 700 m 1
 90 36 l 1
 6 -42 l 1
 263 700 l 1
 318 700 l 1
834 742 m 1
 577 0 l 1
 522 0 l 1
 751 665 l 1
 834 742 l 1
433 910 m 1
 487 935 l 1
 585 773 l 1
 554 755 l 1
 433 910 l 1
EndSplineSet
EndChar

StartChar: uni040E
Encoding: 1038 1038 399
Width: 499
VWidth: 0
Flags: HW
LayerCount: 2
Fore
SplineSet
690 700 m 1
 139 0 l 1
 73 0 l 1
 243 220 l 1
 186 700 l 1
 244 700 l 1
 293 230 l 1
 263 234 l 1
 624 700 l 1
 690 700 l 1
350 909 m 1
 394 909 l 1
 388 857 405 814 465 813 c 0
 529 812 573 856 604 907 c 1
 650 907 l 1
 613 831 547 770 458 770 c 0
 372 770 339 831 350 909 c 1
EndSplineSet
EndChar

StartChar: uni0410
Encoding: 1040 1040 400
Width: 620
VWidth: 0
Flags: HW
LayerCount: 2
Fore
SplineSet
158 236 m 1
 190 286 l 1
 497 287 l 1
 498 234 l 1
 158 236 l 1
455 600 m 1
 212 269 l 1
 204 257 l 1
 15 0 l 1
 -51 0 l 1
 493 731 l 1
 535 0 l 1
 477 0 l 1
 467 253 l 1
 467 266 l 1
 455 600 l 1
EndSplineSet
EndChar

StartChar: uni0411
Encoding: 1041 1041 401
Width: 499
VWidth: 0
Flags: HW
LayerCount: 2
Fore
SplineSet
173 368 m 1
 193 420 l 1
 321 420 l 1
 440 417 520 329 482 209 c 0
 442 84 318 3 191 0 c 1
 47 0 l 1
 66 52 l 1
 196 52 l 2
 295 54 393 114 428 210 c 0
 461 300 407 364 316 367 c 1
 173 368 l 1
256 699 m 1
 600 700 l 1
 582 648 l 1
 296 648 l 1
 72 0 l 1
 21 0 l 1
 256 699 l 1
EndSplineSet
EndChar

StartChar: uni0412
Encoding: 1042 1042 402
Width: 525
VWidth: 0
Flags: HW
LayerCount: 2
Fore
SplineSet
194 377 m 1
 203 407 l 1
 302 408 l 1
 379 413 459 451 487 528 c 0
 513 601 466 647 395 650 c 1
 301 651 l 1
 95 49 l 1
 188 50 l 1
 287 53 380 111 414 206 c 0
 445 292 391 355 304 359 c 1
 187 360 l 1
 197 390 l 1
 309 391 l 1
 417 389 501 317 467 202 c 0
 430 77 310 3 183 0 c 1
 22 0 l 1
 263 700 l 1
 401 700 l 1
 500 698 578 636 543 530 c 0
 510 428 406 380 305 377 c 2
 194 377 l 1
EndSplineSet
EndChar

StartChar: uni0413
Encoding: 1043 1043 403
Width: 409
VWidth: 0
Flags: HW
LayerCount: 2
Fore
SplineSet
256 699 m 1
 587 700 l 1
 568 648 l 1
 296 648 l 1
 72 0 l 1
 21 0 l 1
 256 699 l 1
EndSplineSet
EndChar

StartChar: uni0414
Encoding: 1044 1044 404
Width: 748
VWidth: 0
Flags: HW
LayerCount: 2
Fore
SplineSet
529 608 m 1
 115 22 l 1
 52 22 l 1
 569 739 l 1
 592 21 l 1
 540 21 l 1
 529 608 l 1
608 0 m 1
 32 0 l 1
 -7 -109 l 1
 -56 -109 l 1
 0 52 l 1
 672 52 l 1
 615 -109 l 1
 567 -109 l 1
 608 0 l 1
EndSplineSet
EndChar

StartChar: uni0415
Encoding: 1045 1045 405
Width: 517
VWidth: 0
Flags: HW
LayerCount: 2
Fore
SplineSet
53 0 m 1
 69 52 l 1
 399 52 l 1
 382 0 l 1
 53 0 l 1
274 649 m 1
 290 700 l 1
 620 700 l 1
 603 649 l 1
 274 649 l 1
175 358 m 1
 192 410 l 1
 502 410 l 1
 485 358 l 1
 175 358 l 1
261 699 m 1
 319 700 l 1
 77 0 l 1
 25 0 l 1
 261 699 l 1
EndSplineSet
EndChar

StartChar: uni0416
Encoding: 1046 1046 406
Width: 746
VWidth: 0
Flags: HW
LayerCount: 2
Fore
SplineSet
266 700 m 1
 434 365 l 1
 19 0 l 1
 -56 0 l 1
 373 376 l 1
 207 700 l 1
 266 700 l 1
534 699 m 1
 592 700 l 1
 349 0 l 1
 298 0 l 1
 534 699 l 1
843 699 m 1
 919 699 l 1
 522 367 l 1
 684 0 l 1
 625 0 l 1
 466 375 l 1
 843 699 l 1
EndSplineSet
EndChar

StartChar: uni0417
Encoding: 1047 1047 407
Width: 570
VWidth: 0
Flags: HW
LayerCount: 2
Fore
SplineSet
332 352 m 1
 342 386 l 1
 434 395 544 426 580 522 c 0
 609 602 555 658 476 659 c 0
 383 661 307 605 262 527 c 1
 209 528 l 1
 259 636 358 710 480 709 c 0
 585 708 670 632 635 523 c 0
 594 396 449 359 332 352 c 1
243 -9 m 0
 120 -9 40 60 64 185 c 1
 117 184 l 1
 102 90 155 43 248 43 c 0
 345 43 451 95 485 191 c 0
 525 304 415 332 327 338 c 1
 338 374 l 1
 452 369 582 325 538 184 c 0
 499 59 367 -9 243 -9 c 0
EndSplineSet
EndChar

StartChar: uni0418
Encoding: 1048 1048 408
Width: 710
VWidth: 0
Flags: HW
LayerCount: 2
Fore
SplineSet
793 641 m 1
 6 -42 l 1
 48 59 l 1
 834 742 l 1
 793 641 l 1
318 700 m 1
 90 36 l 1
 6 -42 l 1
 263 700 l 1
 318 700 l 1
834 742 m 1
 577 0 l 1
 522 0 l 1
 751 665 l 1
 834 742 l 1
EndSplineSet
EndChar

StartChar: uni0419
Encoding: 1049 1049 409
Width: 710
VWidth: 0
Flags: HW
LayerCount: 2
Fore
SplineSet
793 641 m 1
 6 -42 l 1
 48 59 l 1
 834 742 l 1
 793 641 l 1
318 700 m 1
 90 36 l 1
 6 -42 l 1
 263 700 l 1
 318 700 l 1
834 742 m 1
 577 0 l 1
 522 0 l 1
 751 665 l 1
 834 742 l 1
436 909 m 1
 480 909 l 1
 475 857 492 814 552 813 c 0
 616 812 660 857 690 908 c 1
 736 907 l 1
 700 831 635 770 546 770 c 0
 460 770 426 831 436 909 c 1
EndSplineSet
EndChar

StartChar: uni041A
Encoding: 1050 1050 410
Width: 531
VWidth: 0
Flags: HW
LayerCount: 2
Fore
SplineSet
259 699 m 1
 317 700 l 1
 75 0 l 1
 23 0 l 1
 259 699 l 1
583 699 m 1
 658 699 l 1
 249 367 l 1
 424 0 l 1
 364 0 l 1
 186 375 l 1
 583 699 l 1
EndSplineSet
EndChar

StartChar: uni041B
Encoding: 1051 1051 411
Width: 601
VWidth: 0
Flags: HW
LayerCount: 2
Fore
SplineSet
714 700 m 1
 473 0 l 1
 418 0 l 1
 641 648 l 1
 315 648 l 1
 176 239 l 2
 137 129 75 26 -45 2 c 1
 -31 48 l 1
 58 78 96 169 126 252 c 2
 280 700 l 1
 714 700 l 1
EndSplineSet
EndChar

StartChar: uni041C
Encoding: 1052 1052 412
Width: 762
VWidth: 0
Flags: HW
LayerCount: 2
Fore
SplineSet
291 552 m 1
 44 0 l 1
 -13 0 l 1
 315 729 l 1
 393 193 l 1
 847 735 l 1
 670 0 l 1
 616 0 l 1
 749 544 l 1
 359 79 l 1
 291 552 l 1
EndSplineSet
EndChar

StartChar: uni041D
Encoding: 1053 1053 413
Width: 672
VWidth: 0
Flags: HW
LayerCount: 2
Fore
SplineSet
175 355 m 1
 191 407 l 1
 638 407 l 1
 621 355 l 1
 175 355 l 1
698 699 m 1
 756 700 l 1
 514 0 l 1
 462 0 l 1
 698 699 l 1
261 699 m 1
 319 700 l 1
 77 0 l 1
 25 0 l 1
 261 699 l 1
EndSplineSet
EndChar

StartChar: uni041E
Encoding: 1054 1054 414
Width: 743
VWidth: 0
Flags: HW
LayerCount: 2
Fore
SplineSet
163 350 m 0
 115 214 155 49 324 47 c 0
 497 45 650 196 705 350 c 0
 753 486 713 651 544 653 c 0
 371 655 218 504 163 350 c 0
105 350 m 0
 165 536 346 710 550 709 c 0
 748 708 817 518 763 350 c 0
 703 164 521 -10 317 -9 c 0
 119 -8 51 182 105 350 c 0
EndSplineSet
EndChar

StartChar: uni041F
Encoding: 1055 1055 415
Width: 644
VWidth: 0
Flags: HW
LayerCount: 2
Fore
SplineSet
687 649 m 1
 296 648 l 1
 73 0 l 1
 18 0 l 1
 259 700 l 1
 756 700 l 1
 515 0 l 1
 463 0 l 1
 687 649 l 1
EndSplineSet
EndChar

StartChar: uni0420
Encoding: 1056 1056 416
Width: 515
VWidth: 0
Flags: HW
LayerCount: 2
Fore
SplineSet
261 699 m 1
 319 700 l 1
 77 0 l 1
 25 0 l 1
 261 699 l 1
273 648 m 1
 292 700 l 1
 412 700 l 1
 530 697 602 608 565 492 c 0
 527 370 408 289 283 286 c 1
 149 286 l 1
 168 338 l 1
 289 338 l 2
 386 340 476 400 510 493 c 0
 542 580 496 644 406 647 c 1
 273 648 l 1
EndSplineSet
EndChar

StartChar: uni0421
Encoding: 1057 1057 417
Width: 644
VWidth: 0
Flags: HW
LayerCount: 2
Fore
SplineSet
164 350 m 0
 117 217 153 51 319 48 c 0
 411 46 495 90 569 141 c 1
 547 68 l 1
 476 22 398 -10 312 -9 c 0
 115 -7 51 185 105 350 c 0
 165 536 342 707 545 709 c 0
 621 710 684 685 737 631 c 1
 714 558 l 1
 674 622 614 653 538 653 c 0
 367 652 219 503 164 350 c 0
EndSplineSet
EndChar

StartChar: uni0422
Encoding: 1058 1058 418
Width: 437
VWidth: 0
Flags: HW
LayerCount: 2
Fore
SplineSet
178 648 m 1
 196 700 l 1
 598 700 l 1
 580 648 l 1
 407 648 l 1
 185 0 l 1
 129 0 l 1
 352 648 l 1
 178 648 l 1
EndSplineSet
EndChar

StartChar: uni0423
Encoding: 1059 1059 419
Width: 499
VWidth: 0
Flags: HW
LayerCount: 2
Fore
SplineSet
690 700 m 1
 139 0 l 1
 73 0 l 1
 243 219 l 1
 186 700 l 1
 244 700 l 1
 293 230 l 1
 262 234 l 1
 624 700 l 1
 690 700 l 1
EndSplineSet
EndChar

StartChar: uni0424
Encoding: 1060 1060 420
Width: 716
VWidth: 0
Flags: HW
LayerCount: 2
Fore
SplineSet
514 699 m 1
 572 700 l 1
 330 0 l 1
 278 0 l 1
 514 699 l 1
692 350 m 0
 740 481 648 560 522 564 c 1
 483 565 l 2
 345 561 204 486 155 350 c 0
 107 219 199 139 325 135 c 1
 364 135 l 2
 503 139 643 214 692 350 c 0
746 350 m 0
 692 184 525 85 357 80 c 1
 318 80 l 1
 163 84 49 190 101 350 c 0
 155 516 322 615 490 620 c 1
 529 620 l 1
 684 616 798 510 746 350 c 0
EndSplineSet
EndChar

StartChar: uni0425
Encoding: 1061 1061 421
Width: 522
VWidth: 0
Flags: HW
LayerCount: 2
Fore
SplineSet
594 699 m 1
 664 699 l 1
 350 362 l 1
 433 0 l 1
 373 0 l 1
 310 315 l 1
 24 0 l 1
 -47 0 l 1
 299 372 l 1
 223 700 l 1
 282 700 l 1
 339 419 l 1
 594 699 l 1
EndSplineSet
EndChar

StartChar: uni0426
Encoding: 1062 1062 422
Width: 686
VWidth: 0
Flags: HW
LayerCount: 2
Fore
SplineSet
88 51 m 1
 479 52 l 1
 701 700 l 1
 757 700 l 1
 534 52 l 1
 615 52 l 1
 558 -109 l 1
 509 -109 l 1
 548 0 l 1
 19 0 l 1
 260 700 l 1
 312 699 l 1
 88 51 l 1
EndSplineSet
EndChar

StartChar: uni0427
Encoding: 1063 1063 423
Width: 550
VWidth: 0
Flags: HW
LayerCount: 2
Fore
SplineSet
315 281 m 1
 330 329 l 1
 519 329 l 1
 503 281 l 1
 315 281 l 1
605 699 m 1
 663 700 l 1
 421 0 l 1
 369 0 l 1
 605 699 l 1
312 700 m 1
 247 518 l 2
 214 426 238 329 330 329 c 1
 315 281 l 1
 200 281 159 403 196 518 c 1
 259 700 l 1
 312 700 l 1
EndSplineSet
EndChar

StartChar: uni0428
Encoding: 1064 1064 424
Width: 897
VWidth: 0
Flags: HW
LayerCount: 2
Fore
SplineSet
733 52 m 1
 955 700 l 1
 1011 700 l 1
 771 0 l 1
 19 0 l 1
 259 700 l 1
 315 700 l 1
 92 52 l 1
 385 52 l 1
 607 700 l 1
 663 700 l 1
 440 52 l 1
 733 52 l 1
EndSplineSet
EndChar

StartChar: uni0429
Encoding: 1065 1065 425
Width: 940
VWidth: 0
Flags: HW
LayerCount: 2
Fore
SplineSet
733 52 m 1
 955 700 l 1
 1011 700 l 1
 788 52 l 1
 869 52 l 1
 812 -109 l 1
 763 -109 l 1
 802 0 l 1
 19 0 l 1
 259 700 l 1
 315 700 l 1
 92 52 l 1
 385 52 l 1
 607 700 l 1
 663 700 l 1
 440 52 l 1
 733 52 l 1
EndSplineSet
EndChar

StartChar: uni042A
Encoding: 1066 1066 426
Width: 603
VWidth: 0
Flags: HW
LayerCount: 2
Fore
SplineSet
276 368 m 1
 295 420 l 1
 425 420 l 2
 544 420 623 329 585 209 c 0
 545 84 420 0 293 0 c 2
 151 0 l 1
 169 52 l 1
 299 52 l 2
 398 54 496 114 531 210 c 0
 564 300 510 366 419 367 c 2
 276 368 l 1
348 649 m 1
 174 648 l 1
 193 700 l 1
 418 700 l 1
 176 0 l 1
 125 0 l 1
 348 649 l 1
EndSplineSet
EndChar

StartChar: uni042B
Encoding: 1067 1067 427
Width: 689
VWidth: 0
Flags: HW
LayerCount: 2
Fore
SplineSet
743 699 m 1
 801 700 l 1
 558 0 l 1
 506 0 l 1
 743 699 l 1
255 699 m 1
 313 700 l 1
 71 0 l 1
 19 0 l 1
 255 699 l 1
171 368 m 1
 190 420 l 1
 320 420 l 2
 439 420 518 329 480 209 c 0
 440 84 315 0 188 0 c 2
 45 0 l 1
 64 52 l 1
 194 52 l 2
 293 54 390 114 425 210 c 0
 458 300 404 366 313 367 c 2
 171 368 l 1
EndSplineSet
EndChar

StartChar: uni042C
Encoding: 1068 1068 428
Width: 497
VWidth: 0
Flags: HW
LayerCount: 2
Fore
SplineSet
255 699 m 1
 313 700 l 1
 71 0 l 1
 19 0 l 1
 255 699 l 1
171 368 m 1
 190 420 l 1
 320 420 l 2
 439 420 518 329 480 209 c 0
 440 84 315 0 188 0 c 2
 45 0 l 1
 64 52 l 1
 194 52 l 2
 293 54 390 114 425 210 c 0
 458 300 404 366 313 367 c 2
 171 368 l 1
EndSplineSet
EndChar

StartChar: uni042D
Encoding: 1069 1069 429
Width: 644
VWidth: 0
Flags: HW
LayerCount: 2
Fore
SplineSet
193 325 m 1
 209 376 l 1
 625 376 l 1
 607 325 l 1
 193 325 l 1
611 350 m 0
 658 483 623 649 456 652 c 0
 364 654 281 610 207 560 c 1
 228 632 l 1
 299 678 377 710 463 709 c 0
 660 707 724 515 670 350 c 0
 610 164 433 -7 230 -9 c 0
 154 -10 91 15 38 69 c 1
 61 142 l 1
 101 78 160 47 237 47 c 0
 407 48 556 197 611 350 c 0
EndSplineSet
EndChar

StartChar: uni042E
Encoding: 1070 1070 430
Width: 966
VWidth: 0
Flags: HW
LayerCount: 2
Fore
SplineSet
171 355 m 1
 188 406 l 1
 398 406 l 1
 381 355 l 1
 171 355 l 1
257 699 m 1
 315 700 l 1
 72 0 l 1
 21 0 l 1
 257 699 l 1
393 351 m 0
 345 215 385 49 554 47 c 0
 727 45 880 196 935 351 c 0
 983 487 943 652 774 654 c 0
 601 656 448 505 393 351 c 0
335 351 m 0
 395 537 576 711 780 710 c 0
 978 709 1047 519 993 351 c 0
 933 165 751 -11 547 -10 c 0
 349 -9 281 183 335 351 c 0
EndSplineSet
EndChar

StartChar: uni042F
Encoding: 1071 1071 431
Width: 491
VWidth: 0
Flags: HW
LayerCount: 2
Fore
SplineSet
367 332 m 1
 32 0 l 1
 -41 0 l 1
 300 332 l 1
 367 332 l 1
601 700 m 1
 359 0 l 1
 304 0 l 1
 545 700 l 1
 601 700 l 1
555 651 m 1
 436 651 l 2
 338 649 242 592 207 497 c 0
 174 406 230 347 320 343 c 1
 451 343 l 1
 433 294 l 1
 314 294 l 1
 197 297 115 377 153 497 c 0
 192 621 316 698 442 700 c 2
 573 700 l 1
 555 651 l 1
EndSplineSet
EndChar

StartChar: uni0430
Encoding: 1072 1072 432
Width: 456
VWidth: 0
Flags: HW
LayerCount: 2
Fore
SplineSet
73 135 m 0
 55 79 89 39 145 38 c 0
 232 36 294 100 334 171 c 1
 335 140 l 1
 294 58 222 -10 125 -9 c 0
 43 -8 -3 56 22 134 c 0
 52 228 155 284 250 283 c 0
 301 282 340 265 374 228 c 1
 363 198 l 1
 329 227 291 243 245 242 c 0
 176 241 96 205 73 135 c 0
167 370 m 1
 154 412 l 1
 208 443 267 470 330 469 c 0
 415 467 461 406 435 326 c 2
 323 0 l 1
 271 0 l 1
 386 326 l 2
 403 376 382 420 321 422 c 0
 266 424 213 396 167 370 c 1
EndSplineSet
Substitution2: "alt a" a.alt
EndChar

StartChar: uni0431
Encoding: 1073 1073 433
Width: 513
VWidth: 0
Flags: HW
LayerCount: 2
Fore
SplineSet
351 421 m 1
 367 469 l 1
 495 469 555 353 519 229 c 0
 483 103 360 -10 225 -10 c 0
 76 -10 72 129 72 178 c 1
 118 178 l 1
 119 135 124 41 230 40 c 0
 337 39 435 133 467 230 c 0
 500 331 453 421 351 421 c 1
94 211 m 1
 121 337 228 469 367 469 c 1
 351 421 l 1
 239 421 118 308 118 178 c 1
 94 211 l 1
72 178 m 1
 72 372 229 592 391 656 c 0
 462 684 518 717 564 779 c 1
 616 778 l 1
 567 691 490 649 400 613 c 0
 265 559 118 362 118 230 c 2
 118 178 l 1
 72 178 l 1
EndSplineSet
EndChar

StartChar: uni0432
Encoding: 1074 1074 434
Width: 410
VWidth: 0
Flags: HW
LayerCount: 2
Fore
SplineSet
124 236 m 1
 246 236 l 2
 316 234 398 212 373 124 c 0
 350 45 270 2 194 1 c 2
 44 0 l 1
 58 45 l 1
 188 46 l 2
 241 46 307 76 324 132 c 0
 341 189 292 207 245 208 c 2
 115 209 l 1
 124 236 l 1
121 224 m 1
 130 254 l 1
 243 254 l 2
 293 255 356 281 374 333 c 0
 391 384 351 412 305 413 c 2
 185 415 l 1
 200 460 l 1
 313 460 l 2
 386 460 452 415 425 334 c 0
 400 256 317 227 242 224 c 2
 121 224 l 1
170 460 m 1
 226 460 l 1
 65 0 l 1
 16 0 l 1
 170 460 l 1
EndSplineSet
EndChar

StartChar: uni0433
Encoding: 1075 1075 435
Width: 298
VWidth: 0
Flags: HW
LayerCount: 2
Fore
SplineSet
174 459 m 1
 400 460 l 1
 382 411 l 1
 213 411 l 1
 70 0 l 1
 21 0 l 1
 174 459 l 1
EndSplineSet
EndChar

StartChar: uni0434
Encoding: 1076 1076 436
Width: 616
VWidth: 0
Flags: HW
LayerCount: 2
Fore
SplineSet
386 381 m 1
 105 21 l 1
 43 21 l 1
 420 498 l 1
 469 20 l 1
 418 19 l 1
 386 381 l 1
474 0 m 1
 38 0 l 1
 5 -90 l 1
 -51 -90 l 1
 -1 49 l 1
 539 49 l 1
 489 -90 l 1
 441 -90 l 1
 474 0 l 1
EndSplineSet
EndChar

StartChar: uni0435
Encoding: 1077 1077 437
Width: 479
VWidth: 0
Flags: HW
LayerCount: 2
Fore
SplineSet
101 217 m 1
 114 262 l 1
 434 262 l 1
 458 332 438 421 344 423 c 0
 242 425 164 335 130 250 c 1
 123 231 l 1
 99 149 112 41 217 40 c 0
 289 39 349 86 400 134 c 1
 436 104 l 1
 373 42 296 -10 203 -9 c 0
 73 -7 42 125 72 231 c 0
 78 252 86 272 96 291 c 0
 143 385 240 470 351 469 c 0
 478 468 512 348 484 242 c 0
 482 234 478 225 476 217 c 1
 101 217 l 1
EndSplineSet
EndChar

StartChar: uni0436
Encoding: 1078 1078 438
Width: 551
VWidth: 0
Flags: HW
LayerCount: 2
Fore
SplineSet
567 459 m 1
 638 459 l 1
 377 260 l 1
 492 0 l 1
 435 0 l 1
 325 275 l 1
 567 459 l 1
403 459 m 1
 246 1 l 1
 197 0 l 1
 355 459 l 1
 403 459 l 1
183 460 m 1
 303 265 l 1
 14 0 l 1
 -56 0 l 1
 246 268 l 1
 128 460 l 1
 183 460 l 1
EndSplineSet
EndChar

StartChar: uni0437
Encoding: 1079 1079 439
Width: 447
VWidth: 0
Flags: HW
LayerCount: 2
Fore
SplineSet
253 237 m 1
 263 268 l 1
 313 273 380 283 399 339 c 0
 415 386 378 420 332 421 c 0
 270 422 225 375 194 327 c 1
 141 329 l 1
 178 403 245 469 334 469 c 0
 409 469 474 410 448 332 c 0
 421 251 326 241 253 237 c 1
181 -9 m 0
 85 -9 44 57 50 145 c 1
 100 145 l 1
 98 84 118 38 186 37 c 0
 247 36 328 74 348 136 c 0
 370 205 300 217 249 223 c 1
 260 256 l 1
 329 251 425 226 399 134 c 0
 374 46 267 -9 181 -9 c 0
EndSplineSet
EndChar

StartChar: uni0438
Encoding: 1080 1080 440
Width: 485
VWidth: 0
Flags: HW
LayerCount: 2
Fore
SplineSet
495 410 m 1
 3 -42 l 1
 40 50 l 1
 532 502 l 1
 495 410 l 1
230 460 m 1
 83 35 l 1
 3 -42 l 1
 177 460 l 1
 230 460 l 1
532 502 m 1
 357 0 l 1
 305 0 l 1
 452 425 l 1
 532 502 l 1
EndSplineSet
EndChar

StartChar: uni0439
Encoding: 1081 1081 441
Width: 485
VWidth: 0
Flags: HW
LayerCount: 2
Fore
SplineSet
495 410 m 1
 3 -42 l 1
 40 50 l 1
 532 502 l 1
 495 410 l 1
230 460 m 1
 83 35 l 1
 3 -42 l 1
 177 460 l 1
 230 460 l 1
532 502 m 1
 357 0 l 1
 305 0 l 1
 452 425 l 1
 532 502 l 1
262 683 m 1
 306 683 l 1
 301 631 318 588 378 587 c 0
 442 586 486 631 516 682 c 1
 562 681 l 1
 526 605 461 544 372 544 c 0
 286 544 252 605 262 683 c 1
EndSplineSet
EndChar

StartChar: uni043A
Encoding: 1082 1082 442
Width: 413
VWidth: 0
Flags: HW
LayerCount: 2
Fore
SplineSet
169 459 m 1
 225 460 l 1
 64 0 l 1
 15 0 l 1
 169 459 l 1
402 459 m 1
 475 459 l 1
 199 266 l 1
 328 0 l 1
 272 0 l 1
 139 275 l 1
 402 459 l 1
EndSplineSet
EndChar

StartChar: uni043B
Encoding: 1083 1083 443
Width: 498
VWidth: 0
Flags: HW
LayerCount: 2
Fore
SplineSet
529 460 m 1
 370 0 l 1
 317 0 l 1
 460 411 l 1
 216 411 l 1
 130 159 l 2
 98 72 46 18 -45 1 c 1
 -31 48 l 1
 25 66 55 105 76 160 c 1
 180 460 l 1
 529 460 l 1
EndSplineSet
EndChar

StartChar: uni043C
Encoding: 1084 1084 444
Width: 571
VWidth: 0
Flags: HW
LayerCount: 2
Fore
SplineSet
456 0 m 1
 510 406 l 1
 571 501 l 1
 512 0 l 1
 456 0 l 1
227 50 m 1
 571 500 l 1
 536 377 l 1
 219 -33 l 1
 227 50 l 1
219 -33 m 1
 190 389 l 1
 234 500 l 1
 262 39 l 1
 219 -33 l 1
-54 0 m 1
 234 499 l 1
 227 395 l 1
 8 0 l 1
 -54 0 l 1
EndSplineSet
EndChar

StartChar: uni043D
Encoding: 1085 1085 445
Width: 504
VWidth: 0
Flags: HW
LayerCount: 2
Fore
SplineSet
121 220 m 1
 136 268 l 1
 456 268 l 1
 440 220 l 1
 121 220 l 1
486 459 m 1
 541 460 l 1
 380 0 l 1
 332 0 l 1
 486 459 l 1
170 459 m 1
 226 460 l 1
 65 0 l 1
 16 0 l 1
 170 459 l 1
EndSplineSet
EndChar

StartChar: uni043E
Encoding: 1086 1086 446
Width: 513
VWidth: 0
Flags: HW
LayerCount: 2
Fore
SplineSet
59 230 m 0
 99 355 223 469 359 469 c 0
 492 469 543 345 507 230 c 0
 467 105 343 -9 207 -9 c 0
 74 -9 23 115 59 230 c 0
111 230 m 0
 80 145 107 42 212 40 c 0
 320 38 420 133 455 230 c 0
 486 315 459 418 354 420 c 0
 246 422 146 327 111 230 c 0
EndSplineSet
EndChar

StartChar: uni043F
Encoding: 1087 1087 447
Width: 467
VWidth: 0
Flags: HW
LayerCount: 2
Fore
SplineSet
502 460 m 1
 343 0 l 1
 291 0 l 1
 433 411 l 1
 208 411 l 1
 66 0 l 1
 13 0 l 1
 172 460 l 1
 502 460 l 1
EndSplineSet
EndChar

StartChar: uni0440
Encoding: 1088 1088 448
Width: 536
VWidth: 0
Flags: HW
LayerCount: 2
Fore
SplineSet
-8 -219 m 1
 -63 -220 l 1
 172 460 l 1
 221 459 l 1
 -8 -219 l 1
515 230 m 0
 477 110 362 -12 228 -10 c 0
 98 -8 88 132 119 230 c 0
 155 342 251 468 380 469 c 0
 514 471 550 338 515 230 c 0
463 230 m 0
 492 312 474 421 368 420 c 0
 266 419 176 319 144 230 c 0
 117 155 128 44 227 40 c 0
 334 35 429 136 463 230 c 0
EndSplineSet
EndChar

StartChar: uni0441
Encoding: 1089 1089 449
Width: 449
VWidth: 0
Flags: HW
LayerCount: 2
Fore
SplineSet
106 230 m 0
 75 144 103 43 208 41 c 0
 274 40 335 73 387 112 c 1
 368 48 l 1
 318 14 263 -10 202 -10 c 0
 69 -9 18 115 54 230 c 0
 94 356 219 469 355 469 c 0
 409 469 453 450 489 411 c 1
 470 347 l 1
 446 396 406 421 350 420 c 0
 242 419 142 328 106 230 c 0
EndSplineSet
EndChar

StartChar: uni0442
Encoding: 1090 1090 450
Width: 263
VWidth: 0
Flags: HW
LayerCount: 2
Fore
SplineSet
106 460 m 1
 364 460 l 1
 346 411 l 1
 88 411 l 1
 106 460 l 1
203 445 m 1
 258 446 l 1
 101 0 l 1
 53 0 l 1
 203 445 l 1
EndSplineSet
EndChar

StartChar: uni0443
Encoding: 1091 1091 451
Width: 413
VWidth: 0
Flags: HW
LayerCount: 2
Fore
SplineSet
512 459 m 1
 -5 -219 l 1
 -68 -219 l 1
 141 52 l 1
 107 460 l 1
 164 460 l 1
 189 68 l 1
 164 72 l 1
 449 459 l 1
 512 459 l 1
EndSplineSet
EndChar

StartChar: uni0444
Encoding: 1092 1092 452
Width: 551
VWidth: 0
Flags: HW
LayerCount: 2
Fore
SplineSet
386 559 m 1
 441 560 l 1
 211 -99 l 1
 163 -99 l 1
 386 559 l 1
56 230 m 0
 99 365 234 471 376 470 c 0
 512 469 584 357 544 230 c 0
 501 95 366 -11 224 -10 c 0
 88 -9 16 103 56 230 c 0
107 230 m 0
 71 132 120 42 229 40 c 0
 343 38 454 124 492 230 c 0
 528 328 480 418 371 420 c 0
 257 422 145 336 107 230 c 0
EndSplineSet
EndChar

StartChar: uni0445
Encoding: 1093 1093 453
Width: 395
VWidth: 0
Flags: HW
LayerCount: 2
Fore
SplineSet
410 459 m 1
 475 459 l 1
 242 233 l 1
 320 0 l 1
 267 0 l 1
 206 193 l 1
 9 0 l 1
 -56 0 l 1
 191 241 l 1
 117 460 l 1
 170 460 l 1
 227 281 l 1
 410 459 l 1
EndSplineSet
EndChar

StartChar: uni0446
Encoding: 1094 1094 454
Width: 504
VWidth: 0
Flags: HW
LayerCount: 2
Fore
SplineSet
358 48 m 1
 438 48 l 1
 389 -89 l 1
 343 -89 l 1
 375 0 l 1
 14 0 l 1
 173 460 l 1
 225 460 l 1
 83 49 l 1
 308 49 l 1
 451 459 l 1
 500 459 l 1
 358 48 l 1
EndSplineSet
EndChar

StartChar: uni0447
Encoding: 1095 1095 455
Width: 429
VWidth: 0
Flags: HW
LayerCount: 2
Fore
SplineSet
211 141 m 1
 225 188 l 1
 358 189 l 1
 342 141 l 1
 211 141 l 1
410 459 m 1
 465 460 l 1
 305 0 l 1
 256 0 l 1
 410 459 l 1
202 459 m 1
 154 328 l 2
 125 247 138 188 225 188 c 1
 211 141 l 1
 92 141 67 219 104 328 c 2
 149 460 l 1
 202 459 l 1
EndSplineSet
EndChar

StartChar: uni0448
Encoding: 1096 1096 456
Width: 707
VWidth: 0
Flags: HW
LayerCount: 2
Fore
SplineSet
339 48 m 1
 548 49 l 1
 690 460 l 1
 743 460 l 1
 584 0 l 1
 14 0 l 1
 173 460 l 1
 225 460 l 1
 83 49 l 1
 289 49 l 1
 432 459 l 1
 481 459 l 1
 339 48 l 1
EndSplineSet
EndChar

StartChar: uni0449
Encoding: 1097 1097 457
Width: 744
VWidth: 0
Flags: HW
LayerCount: 2
Fore
SplineSet
339 48 m 1
 548 49 l 1
 690 460 l 1
 743 460 l 1
 601 49 l 1
 677 49 l 1
 629 -89 l 1
 583 -89 l 1
 615 0 l 1
 14 0 l 1
 173 460 l 1
 225 460 l 1
 83 49 l 1
 289 49 l 1
 432 459 l 1
 481 459 l 1
 339 48 l 1
EndSplineSet
EndChar

StartChar: uni044A
Encoding: 1098 1098 458
Width: 518
VWidth: 0
Flags: HW
LayerCount: 2
Fore
SplineSet
216 241 m 1
 230 285 l 1
 352 286 l 2
 436 287 497 230 469 142 c 0
 441 52 354 0 265 0 c 2
 135 0 l 1
 149 45 l 1
 271 46 l 2
 334 46 396 83 417 145 c 0
 437 205 401 238 346 239 c 2
 216 241 l 1
248 412 m 1
 88 411 l 1
 106 460 l 1
 314 460 l 1
 154 0 l 1
 106 0 l 1
 248 412 l 1
EndSplineSet
EndChar

StartChar: uni044B
Encoding: 1099 1099 459
Width: 570
VWidth: 0
Flags: HW
LayerCount: 2
Fore
SplineSet
552 459 m 1
 607 460 l 1
 446 0 l 1
 398 0 l 1
 552 459 l 1
170 459 m 1
 226 460 l 1
 65 0 l 1
 16 0 l 1
 170 459 l 1
125 241 m 1
 139 285 l 1
 261 286 l 2
 345 287 405 230 377 142 c 0
 349 52 260 0 171 0 c 2
 43 0 l 1
 57 45 l 1
 180 46 l 2
 238 46 304 82 326 144 c 0
 347 202 310 238 255 239 c 2
 125 241 l 1
EndSplineSet
EndChar

StartChar: uni044C
Encoding: 1100 1100 460
Width: 427
VWidth: 0
Flags: HW
LayerCount: 2
Fore
SplineSet
170 459 m 1
 226 460 l 1
 65 0 l 1
 16 0 l 1
 170 459 l 1
125 241 m 1
 139 285 l 1
 261 286 l 2
 345 287 406 229 378 141 c 0
 350 51 259 0 174 0 c 2
 43 0 l 1
 57 45 l 1
 180 46 l 2
 242 48 304 82 326 144 c 0
 347 202 310 238 255 239 c 2
 125 241 l 1
EndSplineSet
EndChar

StartChar: uni044D
Encoding: 1101 1101 461
Width: 453
VWidth: 0
Flags: HW
LayerCount: 2
Fore
SplineSet
159 254 m 1
 451 254 l 1
 394 206 l 1
 144 206 l 1
 159 254 l 1
396 230 m 0
 427 316 399 417 294 419 c 0
 228 420 168 387 116 348 c 1
 134 412 l 1
 184 445 239 470 300 470 c 0
 433 470 483 345 447 230 c 0
 407 104 284 -8 148 -9 c 0
 94 -10 49 9 13 49 c 1
 33 113 l 1
 57 64 97 39 153 40 c 0
 261 41 360 132 396 230 c 0
EndSplineSet
EndChar

StartChar: uni044E
Encoding: 1102 1102 462
Width: 705
VWidth: 0
Flags: HW
LayerCount: 2
Fore
SplineSet
120 218 m 1
 136 265 l 1
 299 266 l 1
 282 218 l 1
 120 218 l 1
170 459 m 1
 226 460 l 1
 65 0 l 1
 16 0 l 1
 170 459 l 1
247 230 m 0
 287 355 411 469 547 469 c 0
 680 469 731 345 695 230 c 0
 655 105 531 -9 395 -9 c 0
 262 -9 211 115 247 230 c 0
299 230 m 0
 268 145 295 42 400 40 c 0
 508 38 608 133 643 230 c 0
 674 315 647 418 542 420 c 0
 434 422 334 327 299 230 c 0
EndSplineSet
EndChar

StartChar: uni044F
Encoding: 1103 1103 463
Width: 427
VWidth: 0
Flags: HW
LayerCount: 2
Fore
SplineSet
54 0 m 1
 -10 0 l 1
 220 219 l 1
 278 219 l 1
 54 0 l 1
329 0 m 1
 274 0 l 1
 435 459 l 1
 484 459 l 1
 329 0 l 1
376 229 m 1
 363 185 l 1
 242 184 l 1
 159 185 97 234 124 323 c 0
 151 412 240 455 327 459 c 2
 455 459 l 1
 441 415 l 1
 321 414 l 2
 261 412 195 382 175 321 c 0
 155 262 195 233 249 231 c 2
 376 229 l 1
EndSplineSet
EndChar

StartChar: uni0450
Encoding: 1104 1104 464
Width: 479
VWidth: 0
Flags: HW
LayerCount: 2
Fore
SplineSet
101 217 m 1
 114 262 l 1
 434 262 l 1
 458 332 438 421 344 423 c 0
 242 425 164 335 130 250 c 1
 123 231 l 1
 99 149 112 41 217 40 c 0
 289 39 349 86 400 134 c 1
 436 104 l 1
 373 42 296 -10 203 -9 c 0
 73 -7 42 125 72 231 c 0
 78 252 86 272 96 291 c 0
 143 385 240 470 351 469 c 0
 478 468 512 348 484 242 c 0
 482 234 478 225 476 217 c 1
 101 217 l 1
246 682 m 1
 298 708 l 1
 401 547 l 1
 370 529 l 1
 246 682 l 1
EndSplineSet
EndChar

